<svg width="1636" height="1634" viewBox="0 0 1636 1634" fill="none" xmlns="http://www.w3.org/2000/svg">
<g filter="url(#filter0_f_119_1042)">
<path d="M1277.82 647.143H1105.49C1037.56 647.143 982.49 702.212 982.49 770.143V875.372C982.49 943.303 1037.56 998.372 1105.49 998.372H1277.82C1345.75 998.372 1400.82 943.303 1400.82 875.372V770.143C1400.82 702.212 1345.75 647.143 1277.82 647.143Z" fill="#907CFF" fill-opacity="0.75"/>
<path d="M977.487 400.76H805.153C737.222 400.76 682.153 455.828 682.153 523.759V628.988C682.153 696.919 737.222 751.988 805.153 751.988H977.487C1045.42 751.988 1100.49 696.919 1100.49 628.988V523.76C1100.49 455.829 1045.42 400.76 977.487 400.76Z" fill="#DB19FA" fill-opacity="0.75"/>
<path d="M977.487 882.531H805.153C737.222 882.531 682.153 937.6 682.153 1005.53V1110.76C682.153 1178.69 737.222 1233.76 805.153 1233.76H977.487C1045.42 1233.76 1100.49 1178.69 1100.49 1110.76V1005.53C1100.49 937.6 1045.42 882.531 977.487 882.531Z" fill="#FFC806" fill-opacity="0.75"/>
<path d="M696.157 647.143H523.823C455.892 647.143 400.823 702.212 400.823 770.143V875.372C400.823 943.303 455.893 998.372 523.824 998.372H696.157C764.088 998.372 819.157 943.303 819.157 875.372V770.143C819.157 702.212 764.088 647.143 696.157 647.143Z" fill="#C5291D" fill-opacity="0.75"/>
<path d="M1077.59 805.221C1077.59 901.871 999.242 980.221 902.592 980.221C805.942 980.221 727.592 901.871 727.592 805.221C727.592 708.571 805.942 630.221 902.592 630.221C999.242 630.221 1077.59 708.571 1077.59 805.221Z" fill="#FFE141" fill-opacity="0.75"/>
</g>
<defs>
<filter id="filter0_f_119_1042" x="0.823486" y="0.759521" width="1800" height="1633" filterUnits="userSpaceOnUse" color-interpolation-filters="sRGB">
<feFlood flood-opacity="0" result="BackgroundImageFix"/>
<feBlend mode="normal" in="SourceGraphic" in2="BackgroundImageFix" result="shape"/>
<feGaussianBlur stdDeviation="200" result="effect1_foregroundBlur_119_1042"/>
</filter>
</defs>
</svg>
