<svg width="1695" height="1785" viewBox="0 0 1695 1785" fill="none" xmlns="http://www.w3.org/2000/svg">
<g filter="url(#filter0_f_119_1042)">
<path d="M1372.58 647.486H1160.57C1092.64 647.486 1037.57 702.555 1037.57 770.486V876.034C1037.57 943.965 1092.64 999.034 1160.57 999.034H1372.58C1440.51 999.034 1495.58 943.965 1495.58 876.034V770.486C1495.58 702.555 1440.51 647.486 1372.58 647.486Z" fill="#907CFF" fill-opacity="0.75"/>
<path d="M1043.76 400.878H831.744C763.813 400.878 708.744 455.947 708.744 523.878V629.426C708.744 697.357 763.813 752.426 831.744 752.426H1043.76C1111.69 752.426 1166.76 697.357 1166.76 629.426V523.878C1166.76 455.947 1111.69 400.878 1043.76 400.878Z" fill="#DB19FA" fill-opacity="0.75"/>
<path d="M1043.76 883.088H831.744C763.813 883.088 708.744 938.157 708.744 1006.09V1111.64C708.744 1179.57 763.813 1234.64 831.744 1234.64H1043.76C1111.69 1234.64 1166.76 1179.57 1166.76 1111.64V1006.09C1166.76 938.157 1111.69 883.088 1043.76 883.088Z" fill="#FFC806" fill-opacity="0.75"/>
<path d="M735.742 647.486H523.729C455.798 647.486 400.729 702.555 400.729 770.486V876.034C400.729 943.965 455.798 999.034 523.729 999.034H735.742C803.673 999.034 858.742 943.965 858.742 876.034V770.486C858.742 702.555 803.673 647.486 735.742 647.486Z" fill="#C5291D" fill-opacity="0.75"/>
<path d="M1206.22 1191.75C1206.22 1298.18 1119.94 1384.46 1013.51 1384.46C907.078 1384.46 820.798 1298.18 820.798 1191.75C820.798 1085.31 907.078 999.033 1013.51 999.033C1119.94 999.033 1206.22 1085.31 1206.22 1191.75Z" fill="#FFE141" fill-opacity="0.75"/>
</g>
<defs>
<filter id="filter0_f_119_1042" x="0.729248" y="0.877563" width="1894.85" height="1783.58" filterUnits="userSpaceOnUse" color-interpolation-filters="sRGB">
<feFlood flood-opacity="0" result="BackgroundImageFix"/>
<feBlend mode="normal" in="SourceGraphic" in2="BackgroundImageFix" result="shape"/>
<feGaussianBlur stdDeviation="200" result="effect1_foregroundBlur_119_1042"/>
</filter>
</defs>
</svg>
