<svg width="126" height="126" viewBox="0 0 126 126" fill="none" xmlns="http://www.w3.org/2000/svg">
<g filter="url(#filter0_f_262_330)">
<path fill-rule="evenodd" clip-rule="evenodd" d="M5 3C5 4.10457 4.10457 5 3 5C1.89543 5 1 4.10457 1 3C1 1.89543 1.89543 1 3 1C4.10457 1 5 1.89543 5 3ZM13 3C13 4.10457 12.1046 5 11 5C9.89543 5 9 4.10457 9 3C9 1.89543 9.89543 1 11 1C12.1046 1 13 1.89543 13 3ZM3 13C4.10457 13 5 12.1046 5 11C5 9.89543 4.10457 9 3 9C1.89543 9 1 9.89543 1 11C1 12.1046 1.89543 13 3 13ZM13 11C13 12.1046 12.1046 13 11 13C9.89543 13 9 12.1046 9 11C9 9.89543 9.89543 9 11 9C12.1046 9 13 9.89543 13 11ZM19 5C20.1046 5 21 4.10457 21 3C21 1.89543 20.1046 1 19 1C17.8954 1 17 1.89543 17 3C17 4.10457 17.8954 5 19 5ZM29 3C29 4.10457 28.1046 5 27 5C25.8954 5 25 4.10457 25 3C25 1.89543 25.8954 1 27 1C28.1046 1 29 1.89543 29 3ZM19 13C20.1046 13 21 12.1046 21 11C21 9.89543 20.1046 9 19 9C17.8954 9 17 9.89543 17 11C17 12.1046 17.8954 13 19 13ZM29 11C29 12.1046 28.1046 13 27 13C25.8954 13 25 12.1046 25 11C25 9.89543 25.8954 9 27 9C28.1046 9 29 9.89543 29 11ZM3 21C4.10457 21 5 20.1046 5 19C5 17.8954 4.10457 17 3 17C1.89543 17 1 17.8954 1 19C1 20.1046 1.89543 21 3 21ZM13 19C13 20.1046 12.1046 21 11 21C9.89543 21 9 20.1046 9 19C9 17.8954 9.89543 17 11 17C12.1046 17 13 17.8954 13 19ZM3 29C4.10457 29 5 28.1046 5 27C5 25.8954 4.10457 25 3 25C1.89543 25 1 25.8954 1 27C1 28.1046 1.89543 29 3 29ZM13 27C13 28.1046 12.1046 29 11 29C9.89543 29 9 28.1046 9 27C9 25.8954 9.89543 25 11 25C12.1046 25 13 25.8954 13 27ZM19 21C20.1046 21 21 20.1046 21 19C21 17.8954 20.1046 17 19 17C17.8954 17 17 17.8954 17 19C17 20.1046 17.8954 21 19 21ZM29 19C29 20.1046 28.1046 21 27 21C25.8954 21 25 20.1046 25 19C25 17.8954 25.8954 17 27 17C28.1046 17 29 17.8954 29 19ZM19 29C20.1046 29 21 28.1046 21 27C21 25.8954 20.1046 25 19 25C17.8954 25 17 25.8954 17 27C17 28.1046 17.8954 29 19 29ZM29 27C29 28.1046 28.1046 29 27 29C25.8954 29 25 28.1046 25 27C25 25.8954 25.8954 25 27 25C28.1046 25 29 25.8954 29 27ZM35 5C36.1046 5 37 4.10457 37 3C37 1.89543 36.1046 1 35 1C33.8954 1 33 1.89543 33 3C33 4.10457 33.8954 5 35 5ZM45 3C45 4.10457 44.1046 5 43 5C41.8954 5 41 4.10457 41 3C41 1.89543 41.8954 1 43 1C44.1046 1 45 1.89543 45 3ZM35 13C36.1046 13 37 12.1046 37 11C37 9.89543 36.1046 9 35 9C33.8954 9 33 9.89543 33 11C33 12.1046 33.8954 13 35 13ZM45 11C45 12.1046 44.1046 13 43 13C41.8954 13 41 12.1046 41 11C41 9.89543 41.8954 9 43 9C44.1046 9 45 9.89543 45 11ZM51 5C52.1046 5 53 4.10457 53 3C53 1.89543 52.1046 1 51 1C49.8954 1 49 1.89543 49 3C49 4.10457 49.8954 5 51 5ZM61 3C61 4.10457 60.1046 5 59 5C57.8954 5 57 4.10457 57 3C57 1.89543 57.8954 1 59 1C60.1046 1 61 1.89543 61 3ZM51 13C52.1046 13 53 12.1046 53 11C53 9.89543 52.1046 9 51 9C49.8954 9 49 9.89543 49 11C49 12.1046 49.8954 13 51 13ZM61 11C61 12.1046 60.1046 13 59 13C57.8954 13 57 12.1046 57 11C57 9.89543 57.8954 9 59 9C60.1046 9 61 9.89543 61 11ZM35 21C36.1046 21 37 20.1046 37 19C37 17.8954 36.1046 17 35 17C33.8954 17 33 17.8954 33 19C33 20.1046 33.8954 21 35 21ZM45 19C45 20.1046 44.1046 21 43 21C41.8954 21 41 20.1046 41 19C41 17.8954 41.8954 17 43 17C44.1046 17 45 17.8954 45 19ZM35 29C36.1046 29 37 28.1046 37 27C37 25.8954 36.1046 25 35 25C33.8954 25 33 25.8954 33 27C33 28.1046 33.8954 29 35 29ZM45 27C45 28.1046 44.1046 29 43 29C41.8954 29 41 28.1046 41 27C41 25.8954 41.8954 25 43 25C44.1046 25 45 25.8954 45 27ZM51 21C52.1046 21 53 20.1046 53 19C53 17.8954 52.1046 17 51 17C49.8954 17 49 17.8954 49 19C49 20.1046 49.8954 21 51 21ZM61 19C61 20.1046 60.1046 21 59 21C57.8954 21 57 20.1046 57 19C57 17.8954 57.8954 17 59 17C60.1046 17 61 17.8954 61 19ZM51 29C52.1046 29 53 28.1046 53 27C53 25.8954 52.1046 25 51 25C49.8954 25 49 25.8954 49 27C49 28.1046 49.8954 29 51 29ZM61 27C61 28.1046 60.1046 29 59 29C57.8954 29 57 28.1046 57 27C57 25.8954 57.8954 25 59 25C60.1046 25 61 25.8954 61 27ZM3 37C4.10457 37 5 36.1046 5 35C5 33.8954 4.10457 33 3 33C1.89543 33 1 33.8954 1 35C1 36.1046 1.89543 37 3 37ZM13 35C13 36.1046 12.1046 37 11 37C9.89543 37 9 36.1046 9 35C9 33.8954 9.89543 33 11 33C12.1046 33 13 33.8954 13 35ZM3 45C4.10457 45 5 44.1046 5 43C5 41.8954 4.10457 41 3 41C1.89543 41 1 41.8954 1 43C1 44.1046 1.89543 45 3 45ZM13 43C13 44.1046 12.1046 45 11 45C9.89543 45 9 44.1046 9 43C9 41.8954 9.89543 41 11 41C12.1046 41 13 41.8954 13 43ZM19 37C20.1046 37 21 36.1046 21 35C21 33.8954 20.1046 33 19 33C17.8954 33 17 33.8954 17 35C17 36.1046 17.8954 37 19 37ZM29 35C29 36.1046 28.1046 37 27 37C25.8954 37 25 36.1046 25 35C25 33.8954 25.8954 33 27 33C28.1046 33 29 33.8954 29 35ZM19 45C20.1046 45 21 44.1046 21 43C21 41.8954 20.1046 41 19 41C17.8954 41 17 41.8954 17 43C17 44.1046 17.8954 45 19 45ZM29 43C29 44.1046 28.1046 45 27 45C25.8954 45 25 44.1046 25 43C25 41.8954 25.8954 41 27 41C28.1046 41 29 41.8954 29 43ZM3 53C4.10457 53 5 52.1046 5 51C5 49.8954 4.10457 49 3 49C1.89543 49 1 49.8954 1 51C1 52.1046 1.89543 53 3 53ZM13 51C13 52.1046 12.1046 53 11 53C9.89543 53 9 52.1046 9 51C9 49.8954 9.89543 49 11 49C12.1046 49 13 49.8954 13 51ZM3 61C4.10457 61 5 60.1046 5 59C5 57.8954 4.10457 57 3 57C1.89543 57 1 57.8954 1 59C1 60.1046 1.89543 61 3 61ZM13 59C13 60.1046 12.1046 61 11 61C9.89543 61 9 60.1046 9 59C9 57.8954 9.89543 57 11 57C12.1046 57 13 57.8954 13 59ZM19 53C20.1046 53 21 52.1046 21 51C21 49.8954 20.1046 49 19 49C17.8954 49 17 49.8954 17 51C17 52.1046 17.8954 53 19 53ZM29 51C29 52.1046 28.1046 53 27 53C25.8954 53 25 52.1046 25 51C25 49.8954 25.8954 49 27 49C28.1046 49 29 49.8954 29 51ZM19 61C20.1046 61 21 60.1046 21 59C21 57.8954 20.1046 57 19 57C17.8954 57 17 57.8954 17 59C17 60.1046 17.8954 61 19 61ZM29 59C29 60.1046 28.1046 61 27 61C25.8954 61 25 60.1046 25 59C25 57.8954 25.8954 57 27 57C28.1046 57 29 57.8954 29 59ZM35 37C36.1046 37 37 36.1046 37 35C37 33.8954 36.1046 33 35 33C33.8954 33 33 33.8954 33 35C33 36.1046 33.8954 37 35 37ZM45 35C45 36.1046 44.1046 37 43 37C41.8954 37 41 36.1046 41 35C41 33.8954 41.8954 33 43 33C44.1046 33 45 33.8954 45 35ZM35 45C36.1046 45 37 44.1046 37 43C37 41.8954 36.1046 41 35 41C33.8954 41 33 41.8954 33 43C33 44.1046 33.8954 45 35 45ZM45 43C45 44.1046 44.1046 45 43 45C41.8954 45 41 44.1046 41 43C41 41.8954 41.8954 41 43 41C44.1046 41 45 41.8954 45 43ZM51 37C52.1046 37 53 36.1046 53 35C53 33.8954 52.1046 33 51 33C49.8954 33 49 33.8954 49 35C49 36.1046 49.8954 37 51 37ZM61 35C61 36.1046 60.1046 37 59 37C57.8954 37 57 36.1046 57 35C57 33.8954 57.8954 33 59 33C60.1046 33 61 33.8954 61 35ZM51 45C52.1046 45 53 44.1046 53 43C53 41.8954 52.1046 41 51 41C49.8954 41 49 41.8954 49 43C49 44.1046 49.8954 45 51 45ZM61 43C61 44.1046 60.1046 45 59 45C57.8954 45 57 44.1046 57 43C57 41.8954 57.8954 41 59 41C60.1046 41 61 41.8954 61 43ZM35 53C36.1046 53 37 52.1046 37 51C37 49.8954 36.1046 49 35 49C33.8954 49 33 49.8954 33 51C33 52.1046 33.8954 53 35 53ZM45 51C45 52.1046 44.1046 53 43 53C41.8954 53 41 52.1046 41 51C41 49.8954 41.8954 49 43 49C44.1046 49 45 49.8954 45 51ZM35 61C36.1046 61 37 60.1046 37 59C37 57.8954 36.1046 57 35 57C33.8954 57 33 57.8954 33 59C33 60.1046 33.8954 61 35 61ZM45 59C45 60.1046 44.1046 61 43 61C41.8954 61 41 60.1046 41 59C41 57.8954 41.8954 57 43 57C44.1046 57 45 57.8954 45 59ZM51 53C52.1046 53 53 52.1046 53 51C53 49.8954 52.1046 49 51 49C49.8954 49 49 49.8954 49 51C49 52.1046 49.8954 53 51 53ZM61 51C61 52.1046 60.1046 53 59 53C57.8954 53 57 52.1046 57 51C57 49.8954 57.8954 49 59 49C60.1046 49 61 49.8954 61 51ZM51 61C52.1046 61 53 60.1046 53 59C53 57.8954 52.1046 57 51 57C49.8954 57 49 57.8954 49 59C49 60.1046 49.8954 61 51 61ZM61 59C61 60.1046 60.1046 61 59 61C57.8954 61 57 60.1046 57 59C57 57.8954 57.8954 57 59 57C60.1046 57 61 57.8954 61 59ZM67 5C68.1046 5 69 4.10457 69 3C69 1.89543 68.1046 1 67 1C65.8954 1 65 1.89543 65 3C65 4.10457 65.8954 5 67 5ZM77 3C77 4.10457 76.1046 5 75 5C73.8954 5 73 4.10457 73 3C73 1.89543 73.8954 1 75 1C76.1046 1 77 1.89543 77 3ZM67 13C68.1046 13 69 12.1046 69 11C69 9.89543 68.1046 9 67 9C65.8954 9 65 9.89543 65 11C65 12.1046 65.8954 13 67 13ZM77 11C77 12.1046 76.1046 13 75 13C73.8954 13 73 12.1046 73 11C73 9.89543 73.8954 9 75 9C76.1046 9 77 9.89543 77 11ZM83 5C84.1046 5 85 4.10457 85 3C85 1.89543 84.1046 1 83 1C81.8954 1 81 1.89543 81 3C81 4.10457 81.8954 5 83 5ZM93 3C93 4.10457 92.1046 5 91 5C89.8954 5 89 4.10457 89 3C89 1.89543 89.8954 1 91 1C92.1046 1 93 1.89543 93 3ZM83 13C84.1046 13 85 12.1046 85 11C85 9.89543 84.1046 9 83 9C81.8954 9 81 9.89543 81 11C81 12.1046 81.8954 13 83 13ZM93 11C93 12.1046 92.1046 13 91 13C89.8954 13 89 12.1046 89 11C89 9.89543 89.8954 9 91 9C92.1046 9 93 9.89543 93 11ZM67 21C68.1046 21 69 20.1046 69 19C69 17.8954 68.1046 17 67 17C65.8954 17 65 17.8954 65 19C65 20.1046 65.8954 21 67 21ZM77 19C77 20.1046 76.1046 21 75 21C73.8954 21 73 20.1046 73 19C73 17.8954 73.8954 17 75 17C76.1046 17 77 17.8954 77 19ZM67 29C68.1046 29 69 28.1046 69 27C69 25.8954 68.1046 25 67 25C65.8954 25 65 25.8954 65 27C65 28.1046 65.8954 29 67 29ZM77 27C77 28.1046 76.1046 29 75 29C73.8954 29 73 28.1046 73 27C73 25.8954 73.8954 25 75 25C76.1046 25 77 25.8954 77 27ZM83 21C84.1046 21 85 20.1046 85 19C85 17.8954 84.1046 17 83 17C81.8954 17 81 17.8954 81 19C81 20.1046 81.8954 21 83 21ZM93 19C93 20.1046 92.1046 21 91 21C89.8954 21 89 20.1046 89 19C89 17.8954 89.8954 17 91 17C92.1046 17 93 17.8954 93 19ZM83 29C84.1046 29 85 28.1046 85 27C85 25.8954 84.1046 25 83 25C81.8954 25 81 25.8954 81 27C81 28.1046 81.8954 29 83 29ZM93 27C93 28.1046 92.1046 29 91 29C89.8954 29 89 28.1046 89 27C89 25.8954 89.8954 25 91 25C92.1046 25 93 25.8954 93 27ZM99 5C100.105 5 101 4.10457 101 3C101 1.89543 100.105 1 99 1C97.8954 1 97 1.89543 97 3C97 4.10457 97.8954 5 99 5ZM109 3C109 4.10457 108.105 5 107 5C105.895 5 105 4.10457 105 3C105 1.89543 105.895 1 107 1C108.105 1 109 1.89543 109 3ZM99 13C100.105 13 101 12.1046 101 11C101 9.89543 100.105 9 99 9C97.8954 9 97 9.89543 97 11C97 12.1046 97.8954 13 99 13ZM109 11C109 12.1046 108.105 13 107 13C105.895 13 105 12.1046 105 11C105 9.89543 105.895 9 107 9C108.105 9 109 9.89543 109 11ZM115 5C116.105 5 117 4.10457 117 3C117 1.89543 116.105 1 115 1C113.895 1 113 1.89543 113 3C113 4.10457 113.895 5 115 5ZM125 3C125 4.10457 124.105 5 123 5C121.895 5 121 4.10457 121 3C121 1.89543 121.895 1 123 1C124.105 1 125 1.89543 125 3ZM115 13C116.105 13 117 12.1046 117 11C117 9.89543 116.105 9 115 9C113.895 9 113 9.89543 113 11C113 12.1046 113.895 13 115 13ZM125 11C125 12.1046 124.105 13 123 13C121.895 13 121 12.1046 121 11C121 9.89543 121.895 9 123 9C124.105 9 125 9.89543 125 11ZM99 21C100.105 21 101 20.1046 101 19C101 17.8954 100.105 17 99 17C97.8954 17 97 17.8954 97 19C97 20.1046 97.8954 21 99 21ZM109 19C109 20.1046 108.105 21 107 21C105.895 21 105 20.1046 105 19C105 17.8954 105.895 17 107 17C108.105 17 109 17.8954 109 19ZM99 29C100.105 29 101 28.1046 101 27C101 25.8954 100.105 25 99 25C97.8954 25 97 25.8954 97 27C97 28.1046 97.8954 29 99 29ZM109 27C109 28.1046 108.105 29 107 29C105.895 29 105 28.1046 105 27C105 25.8954 105.895 25 107 25C108.105 25 109 25.8954 109 27ZM115 21C116.105 21 117 20.1046 117 19C117 17.8954 116.105 17 115 17C113.895 17 113 17.8954 113 19C113 20.1046 113.895 21 115 21ZM125 19C125 20.1046 124.105 21 123 21C121.895 21 121 20.1046 121 19C121 17.8954 121.895 17 123 17C124.105 17 125 17.8954 125 19ZM115 29C116.105 29 117 28.1046 117 27C117 25.8954 116.105 25 115 25C113.895 25 113 25.8954 113 27C113 28.1046 113.895 29 115 29ZM125 27C125 28.1046 124.105 29 123 29C121.895 29 121 28.1046 121 27C121 25.8954 121.895 25 123 25C124.105 25 125 25.8954 125 27ZM67 37C68.1046 37 69 36.1046 69 35C69 33.8954 68.1046 33 67 33C65.8954 33 65 33.8954 65 35C65 36.1046 65.8954 37 67 37ZM77 35C77 36.1046 76.1046 37 75 37C73.8954 37 73 36.1046 73 35C73 33.8954 73.8954 33 75 33C76.1046 33 77 33.8954 77 35ZM67 45C68.1046 45 69 44.1046 69 43C69 41.8954 68.1046 41 67 41C65.8954 41 65 41.8954 65 43C65 44.1046 65.8954 45 67 45ZM77 43C77 44.1046 76.1046 45 75 45C73.8954 45 73 44.1046 73 43C73 41.8954 73.8954 41 75 41C76.1046 41 77 41.8954 77 43ZM83 37C84.1046 37 85 36.1046 85 35C85 33.8954 84.1046 33 83 33C81.8954 33 81 33.8954 81 35C81 36.1046 81.8954 37 83 37ZM93 35C93 36.1046 92.1046 37 91 37C89.8954 37 89 36.1046 89 35C89 33.8954 89.8954 33 91 33C92.1046 33 93 33.8954 93 35ZM83 45C84.1046 45 85 44.1046 85 43C85 41.8954 84.1046 41 83 41C81.8954 41 81 41.8954 81 43C81 44.1046 81.8954 45 83 45ZM93 43C93 44.1046 92.1046 45 91 45C89.8954 45 89 44.1046 89 43C89 41.8954 89.8954 41 91 41C92.1046 41 93 41.8954 93 43ZM67 53C68.1046 53 69 52.1046 69 51C69 49.8954 68.1046 49 67 49C65.8954 49 65 49.8954 65 51C65 52.1046 65.8954 53 67 53ZM77 51C77 52.1046 76.1046 53 75 53C73.8954 53 73 52.1046 73 51C73 49.8954 73.8954 49 75 49C76.1046 49 77 49.8954 77 51ZM67 61C68.1046 61 69 60.1046 69 59C69 57.8954 68.1046 57 67 57C65.8954 57 65 57.8954 65 59C65 60.1046 65.8954 61 67 61ZM77 59C77 60.1046 76.1046 61 75 61C73.8954 61 73 60.1046 73 59C73 57.8954 73.8954 57 75 57C76.1046 57 77 57.8954 77 59ZM83 53C84.1046 53 85 52.1046 85 51C85 49.8954 84.1046 49 83 49C81.8954 49 81 49.8954 81 51C81 52.1046 81.8954 53 83 53ZM93 51C93 52.1046 92.1046 53 91 53C89.8954 53 89 52.1046 89 51C89 49.8954 89.8954 49 91 49C92.1046 49 93 49.8954 93 51ZM83 61C84.1046 61 85 60.1046 85 59C85 57.8954 84.1046 57 83 57C81.8954 57 81 57.8954 81 59C81 60.1046 81.8954 61 83 61ZM93 59C93 60.1046 92.1046 61 91 61C89.8954 61 89 60.1046 89 59C89 57.8954 89.8954 57 91 57C92.1046 57 93 57.8954 93 59ZM99 37C100.105 37 101 36.1046 101 35C101 33.8954 100.105 33 99 33C97.8954 33 97 33.8954 97 35C97 36.1046 97.8954 37 99 37ZM109 35C109 36.1046 108.105 37 107 37C105.895 37 105 36.1046 105 35C105 33.8954 105.895 33 107 33C108.105 33 109 33.8954 109 35ZM99 45C100.105 45 101 44.1046 101 43C101 41.8954 100.105 41 99 41C97.8954 41 97 41.8954 97 43C97 44.1046 97.8954 45 99 45ZM109 43C109 44.1046 108.105 45 107 45C105.895 45 105 44.1046 105 43C105 41.8954 105.895 41 107 41C108.105 41 109 41.8954 109 43ZM115 37C116.105 37 117 36.1046 117 35C117 33.8954 116.105 33 115 33C113.895 33 113 33.8954 113 35C113 36.1046 113.895 37 115 37ZM125 35C125 36.1046 124.105 37 123 37C121.895 37 121 36.1046 121 35C121 33.8954 121.895 33 123 33C124.105 33 125 33.8954 125 35ZM115 45C116.105 45 117 44.1046 117 43C117 41.8954 116.105 41 115 41C113.895 41 113 41.8954 113 43C113 44.1046 113.895 45 115 45ZM125 43C125 44.1046 124.105 45 123 45C121.895 45 121 44.1046 121 43C121 41.8954 121.895 41 123 41C124.105 41 125 41.8954 125 43ZM99 53C100.105 53 101 52.1046 101 51C101 49.8954 100.105 49 99 49C97.8954 49 97 49.8954 97 51C97 52.1046 97.8954 53 99 53ZM109 51C109 52.1046 108.105 53 107 53C105.895 53 105 52.1046 105 51C105 49.8954 105.895 49 107 49C108.105 49 109 49.8954 109 51ZM99 61C100.105 61 101 60.1046 101 59C101 57.8954 100.105 57 99 57C97.8954 57 97 57.8954 97 59C97 60.1046 97.8954 61 99 61ZM109 59C109 60.1046 108.105 61 107 61C105.895 61 105 60.1046 105 59C105 57.8954 105.895 57 107 57C108.105 57 109 57.8954 109 59ZM115 53C116.105 53 117 52.1046 117 51C117 49.8954 116.105 49 115 49C113.895 49 113 49.8954 113 51C113 52.1046 113.895 53 115 53ZM125 51C125 52.1046 124.105 53 123 53C121.895 53 121 52.1046 121 51C121 49.8954 121.895 49 123 49C124.105 49 125 49.8954 125 51ZM115 61C116.105 61 117 60.1046 117 59C117 57.8954 116.105 57 115 57C113.895 57 113 57.8954 113 59C113 60.1046 113.895 61 115 61ZM125 59C125 60.1046 124.105 61 123 61C121.895 61 121 60.1046 121 59C121 57.8954 121.895 57 123 57C124.105 57 125 57.8954 125 59ZM5 67C5 68.1046 4.10457 69 3 69C1.89543 69 1 68.1046 1 67C1 65.8954 1.89543 65 3 65C4.10457 65 5 65.8954 5 67ZM13 67C13 68.1046 12.1046 69 11 69C9.89543 69 9 68.1046 9 67C9 65.8954 9.89543 65 11 65C12.1046 65 13 65.8954 13 67ZM3 77C4.10457 77 5 76.1046 5 75C5 73.8954 4.10457 73 3 73C1.89543 73 1 73.8954 1 75C1 76.1046 1.89543 77 3 77ZM13 75C13 76.1046 12.1046 77 11 77C9.89543 77 9 76.1046 9 75C9 73.8954 9.89543 73 11 73C12.1046 73 13 73.8954 13 75ZM19 69C20.1046 69 21 68.1046 21 67C21 65.8954 20.1046 65 19 65C17.8954 65 17 65.8954 17 67C17 68.1046 17.8954 69 19 69ZM29 67C29 68.1046 28.1046 69 27 69C25.8954 69 25 68.1046 25 67C25 65.8954 25.8954 65 27 65C28.1046 65 29 65.8954 29 67ZM19 77C20.1046 77 21 76.1046 21 75C21 73.8954 20.1046 73 19 73C17.8954 73 17 73.8954 17 75C17 76.1046 17.8954 77 19 77ZM29 75C29 76.1046 28.1046 77 27 77C25.8954 77 25 76.1046 25 75C25 73.8954 25.8954 73 27 73C28.1046 73 29 73.8954 29 75ZM3 85C4.10457 85 5 84.1046 5 83C5 81.8954 4.10457 81 3 81C1.89543 81 1 81.8954 1 83C1 84.1046 1.89543 85 3 85ZM13 83C13 84.1046 12.1046 85 11 85C9.89543 85 9 84.1046 9 83C9 81.8954 9.89543 81 11 81C12.1046 81 13 81.8954 13 83ZM3 93C4.10457 93 5 92.1046 5 91C5 89.8954 4.10457 89 3 89C1.89543 89 1 89.8954 1 91C1 92.1046 1.89543 93 3 93ZM13 91C13 92.1046 12.1046 93 11 93C9.89543 93 9 92.1046 9 91C9 89.8954 9.89543 89 11 89C12.1046 89 13 89.8954 13 91ZM19 85C20.1046 85 21 84.1046 21 83C21 81.8954 20.1046 81 19 81C17.8954 81 17 81.8954 17 83C17 84.1046 17.8954 85 19 85ZM29 83C29 84.1046 28.1046 85 27 85C25.8954 85 25 84.1046 25 83C25 81.8954 25.8954 81 27 81C28.1046 81 29 81.8954 29 83ZM19 93C20.1046 93 21 92.1046 21 91C21 89.8954 20.1046 89 19 89C17.8954 89 17 89.8954 17 91C17 92.1046 17.8954 93 19 93ZM29 91C29 92.1046 28.1046 93 27 93C25.8954 93 25 92.1046 25 91C25 89.8954 25.8954 89 27 89C28.1046 89 29 89.8954 29 91ZM35 69C36.1046 69 37 68.1046 37 67C37 65.8954 36.1046 65 35 65C33.8954 65 33 65.8954 33 67C33 68.1046 33.8954 69 35 69ZM45 67C45 68.1046 44.1046 69 43 69C41.8954 69 41 68.1046 41 67C41 65.8954 41.8954 65 43 65C44.1046 65 45 65.8954 45 67ZM35 77C36.1046 77 37 76.1046 37 75C37 73.8954 36.1046 73 35 73C33.8954 73 33 73.8954 33 75C33 76.1046 33.8954 77 35 77ZM45 75C45 76.1046 44.1046 77 43 77C41.8954 77 41 76.1046 41 75C41 73.8954 41.8954 73 43 73C44.1046 73 45 73.8954 45 75ZM51 69C52.1046 69 53 68.1046 53 67C53 65.8954 52.1046 65 51 65C49.8954 65 49 65.8954 49 67C49 68.1046 49.8954 69 51 69ZM61 67C61 68.1046 60.1046 69 59 69C57.8954 69 57 68.1046 57 67C57 65.8954 57.8954 65 59 65C60.1046 65 61 65.8954 61 67ZM51 77C52.1046 77 53 76.1046 53 75C53 73.8954 52.1046 73 51 73C49.8954 73 49 73.8954 49 75C49 76.1046 49.8954 77 51 77ZM61 75C61 76.1046 60.1046 77 59 77C57.8954 77 57 76.1046 57 75C57 73.8954 57.8954 73 59 73C60.1046 73 61 73.8954 61 75ZM35 85C36.1046 85 37 84.1046 37 83C37 81.8954 36.1046 81 35 81C33.8954 81 33 81.8954 33 83C33 84.1046 33.8954 85 35 85ZM45 83C45 84.1046 44.1046 85 43 85C41.8954 85 41 84.1046 41 83C41 81.8954 41.8954 81 43 81C44.1046 81 45 81.8954 45 83ZM35 93C36.1046 93 37 92.1046 37 91C37 89.8954 36.1046 89 35 89C33.8954 89 33 89.8954 33 91C33 92.1046 33.8954 93 35 93ZM45 91C45 92.1046 44.1046 93 43 93C41.8954 93 41 92.1046 41 91C41 89.8954 41.8954 89 43 89C44.1046 89 45 89.8954 45 91ZM51 85C52.1046 85 53 84.1046 53 83C53 81.8954 52.1046 81 51 81C49.8954 81 49 81.8954 49 83C49 84.1046 49.8954 85 51 85ZM61 83C61 84.1046 60.1046 85 59 85C57.8954 85 57 84.1046 57 83C57 81.8954 57.8954 81 59 81C60.1046 81 61 81.8954 61 83ZM51 93C52.1046 93 53 92.1046 53 91C53 89.8954 52.1046 89 51 89C49.8954 89 49 89.8954 49 91C49 92.1046 49.8954 93 51 93ZM61 91C61 92.1046 60.1046 93 59 93C57.8954 93 57 92.1046 57 91C57 89.8954 57.8954 89 59 89C60.1046 89 61 89.8954 61 91ZM3 101C4.10457 101 5 100.105 5 99C5 97.8954 4.10457 97 3 97C1.89543 97 1 97.8954 1 99C1 100.105 1.89543 101 3 101ZM13 99C13 100.105 12.1046 101 11 101C9.89543 101 9 100.105 9 99C9 97.8954 9.89543 97 11 97C12.1046 97 13 97.8954 13 99ZM3 109C4.10457 109 5 108.105 5 107C5 105.895 4.10457 105 3 105C1.89543 105 1 105.895 1 107C1 108.105 1.89543 109 3 109ZM13 107C13 108.105 12.1046 109 11 109C9.89543 109 9 108.105 9 107C9 105.895 9.89543 105 11 105C12.1046 105 13 105.895 13 107ZM19 101C20.1046 101 21 100.105 21 99C21 97.8954 20.1046 97 19 97C17.8954 97 17 97.8954 17 99C17 100.105 17.8954 101 19 101ZM29 99C29 100.105 28.1046 101 27 101C25.8954 101 25 100.105 25 99C25 97.8954 25.8954 97 27 97C28.1046 97 29 97.8954 29 99ZM19 109C20.1046 109 21 108.105 21 107C21 105.895 20.1046 105 19 105C17.8954 105 17 105.895 17 107C17 108.105 17.8954 109 19 109ZM29 107C29 108.105 28.1046 109 27 109C25.8954 109 25 108.105 25 107C25 105.895 25.8954 105 27 105C28.1046 105 29 105.895 29 107ZM3 117C4.10457 117 5 116.105 5 115C5 113.895 4.10457 113 3 113C1.89543 113 1 113.895 1 115C1 116.105 1.89543 117 3 117ZM13 115C13 116.105 12.1046 117 11 117C9.89543 117 9 116.105 9 115C9 113.895 9.89543 113 11 113C12.1046 113 13 113.895 13 115ZM3 125C4.10457 125 5 124.105 5 123C5 121.895 4.10457 121 3 121C1.89543 121 1 121.895 1 123C1 124.105 1.89543 125 3 125ZM13 123C13 124.105 12.1046 125 11 125C9.89543 125 9 124.105 9 123C9 121.895 9.89543 121 11 121C12.1046 121 13 121.895 13 123ZM19 117C20.1046 117 21 116.105 21 115C21 113.895 20.1046 113 19 113C17.8954 113 17 113.895 17 115C17 116.105 17.8954 117 19 117ZM29 115C29 116.105 28.1046 117 27 117C25.8954 117 25 116.105 25 115C25 113.895 25.8954 113 27 113C28.1046 113 29 113.895 29 115ZM19 125C20.1046 125 21 124.105 21 123C21 121.895 20.1046 121 19 121C17.8954 121 17 121.895 17 123C17 124.105 17.8954 125 19 125ZM29 123C29 124.105 28.1046 125 27 125C25.8954 125 25 124.105 25 123C25 121.895 25.8954 121 27 121C28.1046 121 29 121.895 29 123ZM35 101C36.1046 101 37 100.105 37 99C37 97.8954 36.1046 97 35 97C33.8954 97 33 97.8954 33 99C33 100.105 33.8954 101 35 101ZM45 99C45 100.105 44.1046 101 43 101C41.8954 101 41 100.105 41 99C41 97.8954 41.8954 97 43 97C44.1046 97 45 97.8954 45 99ZM35 109C36.1046 109 37 108.105 37 107C37 105.895 36.1046 105 35 105C33.8954 105 33 105.895 33 107C33 108.105 33.8954 109 35 109ZM45 107C45 108.105 44.1046 109 43 109C41.8954 109 41 108.105 41 107C41 105.895 41.8954 105 43 105C44.1046 105 45 105.895 45 107ZM51 101C52.1046 101 53 100.105 53 99C53 97.8954 52.1046 97 51 97C49.8954 97 49 97.8954 49 99C49 100.105 49.8954 101 51 101ZM61 99C61 100.105 60.1046 101 59 101C57.8954 101 57 100.105 57 99C57 97.8954 57.8954 97 59 97C60.1046 97 61 97.8954 61 99ZM51 109C52.1046 109 53 108.105 53 107C53 105.895 52.1046 105 51 105C49.8954 105 49 105.895 49 107C49 108.105 49.8954 109 51 109ZM61 107C61 108.105 60.1046 109 59 109C57.8954 109 57 108.105 57 107C57 105.895 57.8954 105 59 105C60.1046 105 61 105.895 61 107ZM35 117C36.1046 117 37 116.105 37 115C37 113.895 36.1046 113 35 113C33.8954 113 33 113.895 33 115C33 116.105 33.8954 117 35 117ZM45 115C45 116.105 44.1046 117 43 117C41.8954 117 41 116.105 41 115C41 113.895 41.8954 113 43 113C44.1046 113 45 113.895 45 115ZM35 125C36.1046 125 37 124.105 37 123C37 121.895 36.1046 121 35 121C33.8954 121 33 121.895 33 123C33 124.105 33.8954 125 35 125ZM45 123C45 124.105 44.1046 125 43 125C41.8954 125 41 124.105 41 123C41 121.895 41.8954 121 43 121C44.1046 121 45 121.895 45 123ZM51 117C52.1046 117 53 116.105 53 115C53 113.895 52.1046 113 51 113C49.8954 113 49 113.895 49 115C49 116.105 49.8954 117 51 117ZM61 115C61 116.105 60.1046 117 59 117C57.8954 117 57 116.105 57 115C57 113.895 57.8954 113 59 113C60.1046 113 61 113.895 61 115ZM51 125C52.1046 125 53 124.105 53 123C53 121.895 52.1046 121 51 121C49.8954 121 49 121.895 49 123C49 124.105 49.8954 125 51 125ZM61 123C61 124.105 60.1046 125 59 125C57.8954 125 57 124.105 57 123C57 121.895 57.8954 121 59 121C60.1046 121 61 121.895 61 123ZM67 69C68.1046 69 69 68.1046 69 67C69 65.8954 68.1046 65 67 65C65.8954 65 65 65.8954 65 67C65 68.1046 65.8954 69 67 69ZM77 67C77 68.1046 76.1046 69 75 69C73.8954 69 73 68.1046 73 67C73 65.8954 73.8954 65 75 65C76.1046 65 77 65.8954 77 67ZM67 77C68.1046 77 69 76.1046 69 75C69 73.8954 68.1046 73 67 73C65.8954 73 65 73.8954 65 75C65 76.1046 65.8954 77 67 77ZM77 75C77 76.1046 76.1046 77 75 77C73.8954 77 73 76.1046 73 75C73 73.8954 73.8954 73 75 73C76.1046 73 77 73.8954 77 75ZM83 69C84.1046 69 85 68.1046 85 67C85 65.8954 84.1046 65 83 65C81.8954 65 81 65.8954 81 67C81 68.1046 81.8954 69 83 69ZM93 67C93 68.1046 92.1046 69 91 69C89.8954 69 89 68.1046 89 67C89 65.8954 89.8954 65 91 65C92.1046 65 93 65.8954 93 67ZM83 77C84.1046 77 85 76.1046 85 75C85 73.8954 84.1046 73 83 73C81.8954 73 81 73.8954 81 75C81 76.1046 81.8954 77 83 77ZM93 75C93 76.1046 92.1046 77 91 77C89.8954 77 89 76.1046 89 75C89 73.8954 89.8954 73 91 73C92.1046 73 93 73.8954 93 75ZM67 85C68.1046 85 69 84.1046 69 83C69 81.8954 68.1046 81 67 81C65.8954 81 65 81.8954 65 83C65 84.1046 65.8954 85 67 85ZM77 83C77 84.1046 76.1046 85 75 85C73.8954 85 73 84.1046 73 83C73 81.8954 73.8954 81 75 81C76.1046 81 77 81.8954 77 83ZM67 93C68.1046 93 69 92.1046 69 91C69 89.8954 68.1046 89 67 89C65.8954 89 65 89.8954 65 91C65 92.1046 65.8954 93 67 93ZM77 91C77 92.1046 76.1046 93 75 93C73.8954 93 73 92.1046 73 91C73 89.8954 73.8954 89 75 89C76.1046 89 77 89.8954 77 91ZM83 85C84.1046 85 85 84.1046 85 83C85 81.8954 84.1046 81 83 81C81.8954 81 81 81.8954 81 83C81 84.1046 81.8954 85 83 85ZM93 83C93 84.1046 92.1046 85 91 85C89.8954 85 89 84.1046 89 83C89 81.8954 89.8954 81 91 81C92.1046 81 93 81.8954 93 83ZM83 93C84.1046 93 85 92.1046 85 91C85 89.8954 84.1046 89 83 89C81.8954 89 81 89.8954 81 91C81 92.1046 81.8954 93 83 93ZM93 91C93 92.1046 92.1046 93 91 93C89.8954 93 89 92.1046 89 91C89 89.8954 89.8954 89 91 89C92.1046 89 93 89.8954 93 91ZM99 69C100.105 69 101 68.1046 101 67C101 65.8954 100.105 65 99 65C97.8954 65 97 65.8954 97 67C97 68.1046 97.8954 69 99 69ZM109 67C109 68.1046 108.105 69 107 69C105.895 69 105 68.1046 105 67C105 65.8954 105.895 65 107 65C108.105 65 109 65.8954 109 67ZM99 77C100.105 77 101 76.1046 101 75C101 73.8954 100.105 73 99 73C97.8954 73 97 73.8954 97 75C97 76.1046 97.8954 77 99 77ZM109 75C109 76.1046 108.105 77 107 77C105.895 77 105 76.1046 105 75C105 73.8954 105.895 73 107 73C108.105 73 109 73.8954 109 75ZM115 69C116.105 69 117 68.1046 117 67C117 65.8954 116.105 65 115 65C113.895 65 113 65.8954 113 67C113 68.1046 113.895 69 115 69ZM125 67C125 68.1046 124.105 69 123 69C121.895 69 121 68.1046 121 67C121 65.8954 121.895 65 123 65C124.105 65 125 65.8954 125 67ZM115 77C116.105 77 117 76.1046 117 75C117 73.8954 116.105 73 115 73C113.895 73 113 73.8954 113 75C113 76.1046 113.895 77 115 77ZM125 75C125 76.1046 124.105 77 123 77C121.895 77 121 76.1046 121 75C121 73.8954 121.895 73 123 73C124.105 73 125 73.8954 125 75ZM99 85C100.105 85 101 84.1046 101 83C101 81.8954 100.105 81 99 81C97.8954 81 97 81.8954 97 83C97 84.1046 97.8954 85 99 85ZM109 83C109 84.1046 108.105 85 107 85C105.895 85 105 84.1046 105 83C105 81.8954 105.895 81 107 81C108.105 81 109 81.8954 109 83ZM99 93C100.105 93 101 92.1046 101 91C101 89.8954 100.105 89 99 89C97.8954 89 97 89.8954 97 91C97 92.1046 97.8954 93 99 93ZM109 91C109 92.1046 108.105 93 107 93C105.895 93 105 92.1046 105 91C105 89.8954 105.895 89 107 89C108.105 89 109 89.8954 109 91ZM115 85C116.105 85 117 84.1046 117 83C117 81.8954 116.105 81 115 81C113.895 81 113 81.8954 113 83C113 84.1046 113.895 85 115 85ZM125 83C125 84.1046 124.105 85 123 85C121.895 85 121 84.1046 121 83C121 81.8954 121.895 81 123 81C124.105 81 125 81.8954 125 83ZM115 93C116.105 93 117 92.1046 117 91C117 89.8954 116.105 89 115 89C113.895 89 113 89.8954 113 91C113 92.1046 113.895 93 115 93ZM125 91C125 92.1046 124.105 93 123 93C121.895 93 121 92.1046 121 91C121 89.8954 121.895 89 123 89C124.105 89 125 89.8954 125 91ZM67 101C68.1046 101 69 100.105 69 99C69 97.8954 68.1046 97 67 97C65.8954 97 65 97.8954 65 99C65 100.105 65.8954 101 67 101ZM77 99C77 100.105 76.1046 101 75 101C73.8954 101 73 100.105 73 99C73 97.8954 73.8954 97 75 97C76.1046 97 77 97.8954 77 99ZM67 109C68.1046 109 69 108.105 69 107C69 105.895 68.1046 105 67 105C65.8954 105 65 105.895 65 107C65 108.105 65.8954 109 67 109ZM77 107C77 108.105 76.1046 109 75 109C73.8954 109 73 108.105 73 107C73 105.895 73.8954 105 75 105C76.1046 105 77 105.895 77 107ZM83 101C84.1046 101 85 100.105 85 99C85 97.8954 84.1046 97 83 97C81.8954 97 81 97.8954 81 99C81 100.105 81.8954 101 83 101ZM93 99C93 100.105 92.1046 101 91 101C89.8954 101 89 100.105 89 99C89 97.8954 89.8954 97 91 97C92.1046 97 93 97.8954 93 99ZM83 109C84.1046 109 85 108.105 85 107C85 105.895 84.1046 105 83 105C81.8954 105 81 105.895 81 107C81 108.105 81.8954 109 83 109ZM93 107C93 108.105 92.1046 109 91 109C89.8954 109 89 108.105 89 107C89 105.895 89.8954 105 91 105C92.1046 105 93 105.895 93 107ZM67 117C68.1046 117 69 116.105 69 115C69 113.895 68.1046 113 67 113C65.8954 113 65 113.895 65 115C65 116.105 65.8954 117 67 117ZM77 115C77 116.105 76.1046 117 75 117C73.8954 117 73 116.105 73 115C73 113.895 73.8954 113 75 113C76.1046 113 77 113.895 77 115ZM67 125C68.1046 125 69 124.105 69 123C69 121.895 68.1046 121 67 121C65.8954 121 65 121.895 65 123C65 124.105 65.8954 125 67 125ZM77 123C77 124.105 76.1046 125 75 125C73.8954 125 73 124.105 73 123C73 121.895 73.8954 121 75 121C76.1046 121 77 121.895 77 123ZM83 117C84.1046 117 85 116.105 85 115C85 113.895 84.1046 113 83 113C81.8954 113 81 113.895 81 115C81 116.105 81.8954 117 83 117ZM93 115C93 116.105 92.1046 117 91 117C89.8954 117 89 116.105 89 115C89 113.895 89.8954 113 91 113C92.1046 113 93 113.895 93 115ZM83 125C84.1046 125 85 124.105 85 123C85 121.895 84.1046 121 83 121C81.8954 121 81 121.895 81 123C81 124.105 81.8954 125 83 125ZM93 123C93 124.105 92.1046 125 91 125C89.8954 125 89 124.105 89 123C89 121.895 89.8954 121 91 121C92.1046 121 93 121.895 93 123ZM99 101C100.105 101 101 100.105 101 99C101 97.8954 100.105 97 99 97C97.8954 97 97 97.8954 97 99C97 100.105 97.8954 101 99 101ZM109 99C109 100.105 108.105 101 107 101C105.895 101 105 100.105 105 99C105 97.8954 105.895 97 107 97C108.105 97 109 97.8954 109 99ZM99 109C100.105 109 101 108.105 101 107C101 105.895 100.105 105 99 105C97.8954 105 97 105.895 97 107C97 108.105 97.8954 109 99 109ZM109 107C109 108.105 108.105 109 107 109C105.895 109 105 108.105 105 107C105 105.895 105.895 105 107 105C108.105 105 109 105.895 109 107ZM115 101C116.105 101 117 100.105 117 99C117 97.8954 116.105 97 115 97C113.895 97 113 97.8954 113 99C113 100.105 113.895 101 115 101ZM125 99C125 100.105 124.105 101 123 101C121.895 101 121 100.105 121 99C121 97.8954 121.895 97 123 97C124.105 97 125 97.8954 125 99ZM115 109C116.105 109 117 108.105 117 107C117 105.895 116.105 105 115 105C113.895 105 113 105.895 113 107C113 108.105 113.895 109 115 109ZM125 107C125 108.105 124.105 109 123 109C121.895 109 121 108.105 121 107C121 105.895 121.895 105 123 105C124.105 105 125 105.895 125 107ZM99 117C100.105 117 101 116.105 101 115C101 113.895 100.105 113 99 113C97.8954 113 97 113.895 97 115C97 116.105 97.8954 117 99 117ZM109 115C109 116.105 108.105 117 107 117C105.895 117 105 116.105 105 115C105 113.895 105.895 113 107 113C108.105 113 109 113.895 109 115ZM99 125C100.105 125 101 124.105 101 123C101 121.895 100.105 121 99 121C97.8954 121 97 121.895 97 123C97 124.105 97.8954 125 99 125ZM109 123C109 124.105 108.105 125 107 125C105.895 125 105 124.105 105 123C105 121.895 105.895 121 107 121C108.105 121 109 121.895 109 123ZM115 117C116.105 117 117 116.105 117 115C117 113.895 116.105 113 115 113C113.895 113 113 113.895 113 115C113 116.105 113.895 117 115 117ZM125 115C125 116.105 124.105 117 123 117C121.895 117 121 116.105 121 115C121 113.895 121.895 113 123 113C124.105 113 125 113.895 125 115ZM115 125C116.105 125 117 124.105 117 123C117 121.895 116.105 121 115 121C113.895 121 113 121.895 113 123C113 124.105 113.895 125 115 125ZM125 123C125 124.105 124.105 125 123 125C121.895 125 121 124.105 121 123C121 121.895 121.895 121 123 121C124.105 121 125 121.895 125 123Z" fill="url(#paint0_radial_262_330)"/>
</g>
<defs>
<filter id="filter0_f_262_330" x="0" y="0" width="126" height="126" filterUnits="userSpaceOnUse" color-interpolation-filters="sRGB">
<feFlood flood-opacity="0" result="BackgroundImageFix"/>
<feBlend mode="normal" in="SourceGraphic" in2="BackgroundImageFix" result="shape"/>
<feGaussianBlur stdDeviation="0.5" result="effect1_foregroundBlur_262_330"/>
</filter>
<radialGradient id="paint0_radial_262_330" cx="0" cy="0" r="1" gradientUnits="userSpaceOnUse" gradientTransform="translate(63 63) rotate(90) scale(62)">
<stop stop-color="#D333DC"/>
<stop offset="1" stop-color="#FFD600" stop-opacity="0"/>
</radialGradient>
</defs>
</svg>
