<svg width="1332" height="1141" viewBox="0 0 1332 1141" fill="none" xmlns="http://www.w3.org/2000/svg">
<path fill-rule="evenodd" clip-rule="evenodd" d="M661.135 380.499C661.135 225.509 535.491 99.8649 380.5 99.8649C225.51 99.8649 99.8656 225.509 99.8656 380.499C99.8656 535.49 225.51 661.134 380.5 661.134C535.491 661.134 661.135 535.49 661.135 380.499ZM500.592 381.131C500.592 314.457 446.542 260.407 379.868 260.407C313.195 260.407 259.145 314.457 259.145 381.131C259.145 447.804 313.195 501.854 379.868 501.854C446.542 501.854 500.592 447.804 500.592 381.131Z" fill="#333333"/>
<path d="M8.24134 431.98C3.54954 431.459 0 427.493 0 422.772L0 338.227C0 333.506 3.54953 329.541 8.24134 329.019L103.483 318.437C108.971 317.827 113.771 322.123 113.771 327.645L113.771 433.355C113.771 438.877 108.971 443.172 103.483 442.563L8.24134 431.98Z" fill="#333333"/>
<path d="M752.759 329.02C757.451 329.541 761 333.507 761 338.227V422.773C761 427.494 757.451 431.459 752.759 431.981L657.517 442.563C652.029 443.173 647.229 438.877 647.229 433.355V327.645C647.229 322.123 652.029 317.828 657.517 318.437L752.759 329.02Z" fill="#333333"/>
<path d="M431.981 752.759C431.46 757.45 427.494 761 422.773 761H338.228C333.507 761 329.541 757.45 329.02 752.759L318.437 657.517C317.828 652.029 322.123 647.229 327.645 647.229H433.356C438.877 647.229 443.173 652.029 442.563 657.517L431.981 752.759Z" fill="#333333"/>
<path d="M329.02 8.24128C329.541 3.54948 333.507 -3.24249e-05 338.227 -3.24249e-05H422.773C427.494 -3.24249e-05 431.459 3.54948 431.981 8.24128L442.563 103.483C443.173 108.971 438.877 113.771 433.355 113.771H327.645C322.123 113.771 317.827 108.971 318.437 103.483L329.02 8.24128Z" fill="#333333"/>
<path d="M153.676 680.13C149.99 683.079 144.676 682.784 141.338 679.446L81.555 619.663C78.217 616.325 77.9227 611.011 80.8717 607.325L140.735 532.496C144.184 528.184 150.616 527.828 154.52 531.733L229.269 606.481C233.173 610.385 232.817 616.817 228.505 620.266L153.676 680.13Z" fill="#333333"/>
<path d="M607.325 80.8701C611.011 77.9211 616.325 78.2154 619.663 81.5534L679.446 141.336C682.784 144.674 683.078 149.988 680.129 153.674L620.266 228.504C616.817 232.815 610.385 233.171 606.481 229.267L531.732 154.519C527.828 150.614 528.184 144.183 532.496 140.733L607.325 80.8701Z" fill="#333333"/>
<path d="M680.129 607.325C683.078 611.011 682.784 616.325 679.446 619.663L619.663 679.446C616.325 682.784 611.011 683.078 607.325 680.129L532.496 620.266C528.184 616.817 527.828 610.385 531.732 606.481L606.481 531.732C610.385 527.828 616.816 528.184 620.266 532.496L680.129 607.325Z" fill="#333333"/>
<path d="M80.8718 153.675C77.9228 149.989 78.2171 144.675 81.5551 141.336L141.338 81.5538C144.676 78.2158 149.99 77.9214 153.676 80.8704L228.505 140.734C232.817 144.183 233.173 150.615 229.269 154.519L154.52 229.267C150.616 233.172 144.184 232.816 140.735 228.504L80.8718 153.675Z" fill="#333333"/>
<path fill-rule="evenodd" clip-rule="evenodd" d="M1232.13 760.499C1232.13 605.509 1106.49 479.865 951.5 479.865C796.51 479.865 670.866 605.509 670.866 760.499C670.866 915.49 796.51 1041.13 951.5 1041.13C1106.49 1041.13 1232.13 915.49 1232.13 760.499ZM1071.59 761.131C1071.59 694.457 1017.54 640.407 950.868 640.407C884.195 640.407 830.145 694.457 830.145 761.131C830.145 827.804 884.195 881.854 950.868 881.854C1017.54 881.854 1071.59 827.804 1071.59 761.131Z" fill="#333333"/>
<path d="M579.241 811.98C574.55 811.459 571 807.493 571 802.772V718.227C571 713.506 574.55 709.541 579.241 709.019L674.483 698.437C679.971 697.827 684.771 702.123 684.771 707.645V813.355C684.771 818.877 679.971 823.172 674.483 822.563L579.241 811.98Z" fill="#333333"/>
<path d="M1323.76 709.02C1328.45 709.541 1332 713.507 1332 718.227V802.773C1332 807.494 1328.45 811.459 1323.76 811.981L1228.52 822.563C1223.03 823.173 1218.23 818.877 1218.23 813.355V707.645C1218.23 702.123 1223.03 697.828 1228.52 698.437L1323.76 709.02Z" fill="#333333"/>
<path d="M1002.98 1132.76C1002.46 1137.45 998.494 1141 993.773 1141H909.228C904.507 1141 900.541 1137.45 900.02 1132.76L889.437 1037.52C888.828 1032.03 893.123 1027.23 898.645 1027.23H1004.36C1009.88 1027.23 1014.17 1032.03 1013.56 1037.52L1002.98 1132.76Z" fill="#333333"/>
<path d="M900.02 388.241C900.541 383.549 904.507 380 909.227 380H993.773C998.494 380 1002.46 383.549 1002.98 388.241L1013.56 483.483C1014.17 488.971 1009.88 493.771 1004.36 493.771H898.645C893.123 493.771 888.827 488.971 889.437 483.483L900.02 388.241Z" fill="#333333"/>
<path d="M724.676 1060.13C720.99 1063.08 715.676 1062.78 712.338 1059.45L652.555 999.663C649.217 996.325 648.923 991.011 651.872 987.325L711.735 912.496C715.184 908.184 721.616 907.828 725.52 911.733L800.269 986.481C804.173 990.385 803.817 996.817 799.505 1000.27L724.676 1060.13Z" fill="#333333"/>
<path d="M1178.32 460.87C1182.01 457.921 1187.33 458.215 1190.66 461.553L1250.45 521.336C1253.78 524.674 1254.08 529.988 1251.13 533.674L1191.27 608.504C1187.82 612.815 1181.39 613.171 1177.48 609.267L1102.73 534.519C1098.83 530.614 1099.18 524.183 1103.5 520.733L1178.32 460.87Z" fill="#333333"/>
<path d="M1251.13 987.325C1254.08 991.011 1253.78 996.325 1250.45 999.663L1190.66 1059.45C1187.33 1062.78 1182.01 1063.08 1178.32 1060.13L1103.5 1000.27C1099.18 996.817 1098.83 990.385 1102.73 986.481L1177.48 911.732C1181.39 907.828 1187.82 908.184 1191.27 912.496L1251.13 987.325Z" fill="#333333"/>
<path d="M651.872 533.675C648.923 529.989 649.217 524.675 652.555 521.336L712.338 461.554C715.676 458.216 720.99 457.921 724.676 460.87L799.505 520.734C803.817 524.183 804.173 530.615 800.269 534.519L725.52 609.267C721.616 613.172 715.184 612.816 711.735 608.504L651.872 533.675Z" fill="#333333"/>
</svg>
