<svg width="126" height="126" viewBox="0 0 126 126" fill="none" xmlns="http://www.w3.org/2000/svg">
<g filter="url(#filter0_f_262_332)">
<circle cx="3" cy="3" r="2" fill="white"/>
<circle cx="11" cy="3" r="2" fill="white"/>
<circle cx="3" cy="11" r="2" fill="white"/>
<circle cx="19" cy="3" r="2" fill="white"/>
<circle cx="27" cy="3" r="2" fill="white"/>
<circle cx="3" cy="19" r="2" fill="white"/>
<circle cx="3" cy="27" r="2" fill="white"/>
<circle cx="35" cy="3" r="2" fill="white"/>
<circle cx="43" cy="3" r="2" fill="white"/>
<circle cx="51" cy="3" r="2" fill="white"/>
<circle cx="59" cy="3" r="2" fill="white"/>
<circle cx="3" cy="35" r="2" fill="white"/>
<circle cx="3" cy="43" r="2" fill="white"/>
<circle cx="3" cy="51" r="2" fill="white"/>
<circle cx="3" cy="59" r="2" fill="white"/>
<circle cx="67" cy="3" r="2" fill="white"/>
<circle cx="75" cy="3" r="2" fill="white"/>
<circle cx="83" cy="3" r="2" fill="white"/>
<circle cx="91" cy="3" r="2" fill="white"/>
<circle cx="99" cy="3" r="2" fill="white"/>
<circle cx="107" cy="3" r="2" fill="white"/>
<circle cx="115" cy="3" r="2" fill="white"/>
<circle cx="123" cy="3" r="2" fill="white"/>
<circle cx="123" cy="11" r="2" fill="white"/>
<circle cx="123" cy="19" r="2" fill="white"/>
<circle cx="123" cy="27" r="2" fill="white"/>
<circle cx="123" cy="35" r="2" fill="white"/>
<circle cx="123" cy="43" r="2" fill="white"/>
<circle cx="123" cy="51" r="2" fill="white"/>
<circle cx="123" cy="59" r="2" fill="white"/>
<circle cx="3" cy="67" r="2" fill="white"/>
<circle cx="3" cy="75" r="2" fill="white"/>
<circle cx="3" cy="83" r="2" fill="white"/>
<circle cx="3" cy="91" r="2" fill="white"/>
<circle cx="3" cy="99" r="2" fill="white"/>
<circle cx="3" cy="107" r="2" fill="white"/>
<circle cx="3" cy="115" r="2" fill="white"/>
<circle cx="3" cy="123" r="2" fill="white"/>
<circle cx="11" cy="123" r="2" fill="white"/>
<circle cx="19" cy="123" r="2" fill="white"/>
<circle cx="27" cy="123" r="2" fill="white"/>
<circle cx="35" cy="123" r="2" fill="white"/>
<circle cx="43" cy="123" r="2" fill="white"/>
<circle cx="51" cy="123" r="2" fill="white"/>
<circle cx="59" cy="123" r="2" fill="white"/>
<circle cx="123" cy="67" r="2" fill="white"/>
<circle cx="123" cy="75" r="2" fill="white"/>
<circle cx="123" cy="83" r="2" fill="white"/>
<circle cx="123" cy="91" r="2" fill="white"/>
<circle cx="67" cy="123" r="2" fill="white"/>
<circle cx="75" cy="123" r="2" fill="white"/>
<circle cx="83" cy="123" r="2" fill="white"/>
<circle cx="91" cy="123" r="2" fill="white"/>
<circle cx="123" cy="99" r="2" fill="white"/>
<circle cx="123" cy="107" r="2" fill="white"/>
<circle cx="99" cy="123" r="2" fill="white"/>
<circle cx="107" cy="123" r="2" fill="white"/>
<circle cx="11" cy="11" r="2" fill="white"/>
<circle cx="19" cy="11" r="2" fill="white"/>
<circle cx="27" cy="11" r="2" fill="white"/>
<circle cx="11" cy="19" r="2" fill="white"/>
<circle cx="11" cy="27" r="2" fill="white"/>
<circle cx="19" cy="19" r="2" fill="white"/>
<circle cx="27" cy="19" r="2" fill="white"/>
<circle cx="19" cy="27" r="2" fill="white"/>
<circle cx="27" cy="27" r="2" fill="white"/>
<circle cx="35" cy="11" r="2" fill="white"/>
<circle cx="43" cy="11" r="2" fill="white"/>
<circle cx="51" cy="11" r="2" fill="white"/>
<circle cx="59" cy="11" r="2" fill="white"/>
<circle cx="35" cy="19" r="2" fill="white"/>
<circle cx="43" cy="19" r="2" fill="white"/>
<circle cx="35" cy="27" r="2" fill="white"/>
<circle cx="43" cy="27" r="2" fill="white"/>
<circle cx="51" cy="19" r="2" fill="white"/>
<circle cx="59" cy="19" r="2" fill="white"/>
<circle cx="51" cy="27" r="2" fill="white"/>
<circle cx="59" cy="27" r="2" fill="white"/>
<circle cx="11" cy="35" r="2" fill="white"/>
<circle cx="11" cy="43" r="2" fill="white"/>
<circle cx="19" cy="35" r="2" fill="white"/>
<circle cx="27" cy="35" r="2" fill="white"/>
<circle cx="19" cy="43" r="2" fill="white"/>
<circle cx="27" cy="43" r="2" fill="white"/>
<circle cx="11" cy="51" r="2" fill="white"/>
<circle cx="11" cy="59" r="2" fill="white"/>
<circle cx="19" cy="51" r="2" fill="white"/>
<circle cx="27" cy="51" r="2" fill="white"/>
<circle cx="19" cy="59" r="2" fill="white"/>
<circle cx="27" cy="59" r="2" fill="white"/>
<circle cx="35" cy="35" r="2" fill="white"/>
<circle cx="43" cy="35" r="2" fill="white"/>
<circle cx="35" cy="43" r="2" fill="white"/>
<circle cx="43" cy="43" r="2" fill="white"/>
<circle cx="51" cy="35" r="2" fill="white"/>
<circle cx="59" cy="35" r="2" fill="white"/>
<circle cx="51" cy="43" r="2" fill="white"/>
<circle cx="59" cy="43" r="2" fill="white"/>
<circle cx="35" cy="51" r="2" fill="white"/>
<circle cx="43" cy="51" r="2" fill="white"/>
<circle cx="35" cy="59" r="2" fill="white"/>
<circle cx="43" cy="59" r="2" fill="white"/>
<circle cx="51" cy="51" r="2" fill="white"/>
<circle cx="59" cy="51" r="2" fill="white"/>
<circle cx="51" cy="59" r="2" fill="white"/>
<circle cx="59" cy="59" r="2" fill="white"/>
<circle cx="67" cy="11" r="2" fill="white"/>
<circle cx="75" cy="11" r="2" fill="white"/>
<circle cx="83" cy="11" r="2" fill="white"/>
<circle cx="91" cy="11" r="2" fill="white"/>
<circle cx="67" cy="19" r="2" fill="white"/>
<circle cx="75" cy="19" r="2" fill="white"/>
<circle cx="67" cy="27" r="2" fill="white"/>
<circle cx="75" cy="27" r="2" fill="white"/>
<circle cx="83" cy="19" r="2" fill="white"/>
<circle cx="91" cy="19" r="2" fill="white"/>
<circle cx="83" cy="27" r="2" fill="white"/>
<circle cx="91" cy="27" r="2" fill="white"/>
<circle cx="99" cy="11" r="2" fill="white"/>
<circle cx="107" cy="11" r="2" fill="white"/>
<circle cx="115" cy="11" r="2" fill="white"/>
<circle cx="99" cy="19" r="2" fill="white"/>
<circle cx="107" cy="19" r="2" fill="white"/>
<circle cx="99" cy="27" r="2" fill="white"/>
<circle cx="107" cy="27" r="2" fill="white"/>
<circle cx="115" cy="19" r="2" fill="white"/>
<circle cx="115" cy="27" r="2" fill="white"/>
<circle cx="67" cy="35" r="2" fill="white"/>
<circle cx="75" cy="35" r="2" fill="white"/>
<circle cx="67" cy="43" r="2" fill="white"/>
<circle cx="75" cy="43" r="2" fill="white"/>
<circle cx="83" cy="35" r="2" fill="white"/>
<circle cx="91" cy="35" r="2" fill="white"/>
<circle cx="83" cy="43" r="2" fill="white"/>
<circle cx="91" cy="43" r="2" fill="white"/>
<circle cx="67" cy="51" r="2" fill="white"/>
<circle cx="75" cy="51" r="2" fill="white"/>
<circle cx="67" cy="59" r="2" fill="white"/>
<circle cx="75" cy="59" r="2" fill="white"/>
<circle cx="83" cy="51" r="2" fill="white"/>
<circle cx="91" cy="51" r="2" fill="white"/>
<circle cx="83" cy="59" r="2" fill="white"/>
<circle cx="91" cy="59" r="2" fill="white"/>
<circle cx="99" cy="35" r="2" fill="white"/>
<circle cx="107" cy="35" r="2" fill="white"/>
<circle cx="99" cy="43" r="2" fill="white"/>
<circle cx="107" cy="43" r="2" fill="white"/>
<circle cx="115" cy="35" r="2" fill="white"/>
<circle cx="115" cy="43" r="2" fill="white"/>
<circle cx="99" cy="51" r="2" fill="white"/>
<circle cx="107" cy="51" r="2" fill="white"/>
<circle cx="99" cy="59" r="2" fill="white"/>
<circle cx="107" cy="59" r="2" fill="white"/>
<circle cx="115" cy="51" r="2" fill="white"/>
<circle cx="115" cy="59" r="2" fill="white"/>
<circle cx="11" cy="67" r="2" fill="white"/>
<circle cx="11" cy="75" r="2" fill="white"/>
<circle cx="19" cy="67" r="2" fill="white"/>
<circle cx="27" cy="67" r="2" fill="white"/>
<circle cx="19" cy="75" r="2" fill="white"/>
<circle cx="27" cy="75" r="2" fill="white"/>
<circle cx="11" cy="83" r="2" fill="white"/>
<circle cx="11" cy="91" r="2" fill="white"/>
<circle cx="19" cy="83" r="2" fill="white"/>
<circle cx="27" cy="83" r="2" fill="white"/>
<circle cx="19" cy="91" r="2" fill="white"/>
<circle cx="27" cy="91" r="2" fill="white"/>
<circle cx="35" cy="67" r="2" fill="white"/>
<circle cx="43" cy="67" r="2" fill="white"/>
<circle cx="35" cy="75" r="2" fill="white"/>
<circle cx="43" cy="75" r="2" fill="white"/>
<circle cx="51" cy="67" r="2" fill="white"/>
<circle cx="59" cy="67" r="2" fill="white"/>
<circle cx="51" cy="75" r="2" fill="white"/>
<circle cx="59" cy="75" r="2" fill="white"/>
<circle cx="35" cy="83" r="2" fill="white"/>
<circle cx="43" cy="83" r="2" fill="white"/>
<circle cx="35" cy="91" r="2" fill="white"/>
<circle cx="43" cy="91" r="2" fill="white"/>
<circle cx="51" cy="83" r="2" fill="white"/>
<circle cx="59" cy="83" r="2" fill="white"/>
<circle cx="51" cy="91" r="2" fill="white"/>
<circle cx="59" cy="91" r="2" fill="white"/>
<circle cx="11" cy="99" r="2" fill="white"/>
<circle cx="11" cy="107" r="2" fill="white"/>
<circle cx="19" cy="99" r="2" fill="white"/>
<circle cx="27" cy="99" r="2" fill="white"/>
<circle cx="19" cy="107" r="2" fill="white"/>
<circle cx="27" cy="107" r="2" fill="white"/>
<circle cx="11" cy="115" r="2" fill="white"/>
<circle cx="19" cy="115" r="2" fill="white"/>
<circle cx="27" cy="115" r="2" fill="white"/>
<circle cx="35" cy="99" r="2" fill="white"/>
<circle cx="43" cy="99" r="2" fill="white"/>
<circle cx="35" cy="107" r="2" fill="white"/>
<circle cx="43" cy="107" r="2" fill="white"/>
<circle cx="51" cy="99" r="2" fill="white"/>
<circle cx="59" cy="99" r="2" fill="white"/>
<circle cx="51" cy="107" r="2" fill="white"/>
<circle cx="59" cy="107" r="2" fill="white"/>
<circle cx="35" cy="115" r="2" fill="white"/>
<circle cx="43" cy="115" r="2" fill="white"/>
<circle cx="51" cy="115" r="2" fill="white"/>
<circle cx="59" cy="115" r="2" fill="white"/>
<circle cx="67" cy="67" r="2" fill="white"/>
<circle cx="75" cy="67" r="2" fill="white"/>
<circle cx="67" cy="75" r="2" fill="white"/>
<circle cx="75" cy="75" r="2" fill="white"/>
<circle cx="83" cy="67" r="2" fill="white"/>
<circle cx="91" cy="67" r="2" fill="white"/>
<circle cx="83" cy="75" r="2" fill="white"/>
<circle cx="91" cy="75" r="2" fill="white"/>
<circle cx="67" cy="83" r="2" fill="white"/>
<circle cx="75" cy="83" r="2" fill="white"/>
<circle cx="67" cy="91" r="2" fill="white"/>
<circle cx="75" cy="91" r="2" fill="white"/>
<circle cx="83" cy="83" r="2" fill="white"/>
<circle cx="91" cy="83" r="2" fill="white"/>
<circle cx="83" cy="91" r="2" fill="white"/>
<circle cx="91" cy="91" r="2" fill="white"/>
<circle cx="99" cy="67" r="2" fill="white"/>
<circle cx="107" cy="67" r="2" fill="white"/>
<circle cx="99" cy="75" r="2" fill="white"/>
<circle cx="107" cy="75" r="2" fill="white"/>
<circle cx="115" cy="67" r="2" fill="white"/>
<circle cx="115" cy="75" r="2" fill="white"/>
<circle cx="99" cy="83" r="2" fill="white"/>
<circle cx="107" cy="83" r="2" fill="white"/>
<circle cx="99" cy="91" r="2" fill="white"/>
<circle cx="107" cy="91" r="2" fill="white"/>
<circle cx="115" cy="83" r="2" fill="white"/>
<circle cx="115" cy="91" r="2" fill="white"/>
<circle cx="67" cy="99" r="2" fill="white"/>
<circle cx="75" cy="99" r="2" fill="white"/>
<circle cx="67" cy="107" r="2" fill="white"/>
<circle cx="75" cy="107" r="2" fill="white"/>
<circle cx="83" cy="99" r="2" fill="white"/>
<circle cx="91" cy="99" r="2" fill="white"/>
<circle cx="83" cy="107" r="2" fill="white"/>
<circle cx="91" cy="107" r="2" fill="white"/>
<circle cx="67" cy="115" r="2" fill="white"/>
<circle cx="75" cy="115" r="2" fill="white"/>
<circle cx="83" cy="115" r="2" fill="white"/>
<circle cx="91" cy="115" r="2" fill="white"/>
<circle cx="99" cy="99" r="2" fill="white"/>
<circle cx="107" cy="99" r="2" fill="white"/>
<circle cx="99" cy="107" r="2" fill="white"/>
<circle cx="107" cy="107" r="2" fill="white"/>
<circle cx="115" cy="99" r="2" fill="white"/>
<circle cx="115" cy="107" r="2" fill="white"/>
<circle cx="99" cy="115" r="2" fill="white"/>
<circle cx="107" cy="115" r="2" fill="white"/>
<circle cx="115" cy="115" r="2" fill="white"/>
<circle cx="123" cy="115" r="2" fill="white"/>
<circle cx="115" cy="123" r="2" fill="white"/>
<circle cx="123" cy="123" r="2" fill="white"/>
</g>
<defs>
<filter id="filter0_f_262_332" x="0" y="0" width="126" height="126" filterUnits="userSpaceOnUse" color-interpolation-filters="sRGB">
<feFlood flood-opacity="0" result="BackgroundImageFix"/>
<feBlend mode="normal" in="SourceGraphic" in2="BackgroundImageFix" result="shape"/>
<feGaussianBlur stdDeviation="0.5" result="effect1_foregroundBlur_262_332"/>
</filter>
</defs>
</svg>
