<svg width="1706" height="846" viewBox="0 0 1706 846" fill="none" xmlns="http://www.w3.org/2000/svg">
<path fill-rule="evenodd" clip-rule="evenodd" d="M0.345215 0.795898H1705.65V845.188H0.345215V0.795898ZM621.367 408.113C623.003 410.537 624.322 413.28 625.322 416.34H636.958C636.109 411.825 634.564 407.719 632.322 404.022C630.079 400.295 627.276 397.098 623.912 394.431C620.579 391.734 616.776 389.658 612.503 388.204C608.261 386.719 603.685 385.977 598.776 385.977C592.806 385.977 587.337 387.083 582.367 389.295C577.397 391.507 573.094 394.689 569.458 398.84C565.822 402.992 563.003 408.022 561.003 413.931C559.034 419.81 558.049 426.431 558.049 433.795C558.049 443.613 559.776 452.098 563.231 459.249C566.716 466.401 571.564 471.916 577.776 475.795C584.019 479.674 591.261 481.613 599.503 481.613C606.897 481.613 613.443 480.067 619.14 476.977C624.867 473.855 629.352 469.461 632.594 463.795C635.867 458.128 637.503 451.461 637.503 443.795V433.795H602.049V443.795H626.588C626.494 449.187 625.344 453.899 623.14 457.931C620.867 462.113 617.685 465.355 613.594 467.658C609.534 469.931 604.837 471.067 599.503 471.067C593.746 471.067 588.564 469.643 583.958 466.795C579.352 463.946 575.7 459.749 573.003 454.204C570.306 448.658 568.958 441.855 568.958 433.795C568.958 425.734 570.291 418.931 572.958 413.386C575.625 407.84 579.216 403.643 583.731 400.795C588.246 397.946 593.261 396.522 598.776 396.522C602.14 396.522 605.231 396.977 608.049 397.886C610.867 398.795 613.382 400.113 615.594 401.84C617.837 403.567 619.761 405.658 621.367 408.113ZM663.856 479.477C667.462 481.143 671.477 481.977 675.901 481.977C679.962 481.977 683.401 481.371 686.219 480.158C689.037 478.946 691.295 477.477 692.992 475.749C694.689 474.022 695.901 472.401 696.628 470.886H697.174V480.34H707.901V434.34C707.901 428.795 706.992 424.371 705.174 421.067C703.356 417.764 701.068 415.295 698.31 413.658C695.583 412.022 692.75 410.946 689.81 410.431C686.901 409.886 684.325 409.613 682.083 409.613C678.568 409.613 674.992 410.098 671.356 411.067C667.75 412.007 664.416 413.674 661.356 416.067C658.325 418.431 655.901 421.734 654.083 425.977L664.265 429.613C665.447 427.067 667.492 424.674 670.401 422.431C673.31 420.189 677.325 419.067 682.447 419.067C687.386 419.067 691.068 420.31 693.492 422.795C695.947 425.28 697.174 428.764 697.174 433.249V433.613C697.174 435.34 696.553 436.552 695.31 437.249C694.098 437.946 692.159 438.446 689.492 438.749C686.856 439.022 683.416 439.431 679.174 439.977C675.931 440.401 672.704 440.977 669.492 441.704C666.31 442.401 663.401 443.461 660.765 444.886C658.128 446.31 656.022 448.28 654.447 450.795C652.871 453.28 652.083 456.522 652.083 460.522C652.083 465.067 653.144 468.946 655.265 472.158C657.386 475.34 660.25 477.78 663.856 479.477ZM688.265 469.84C685.356 471.507 681.78 472.34 677.537 472.34C673.265 472.34 669.734 471.401 666.947 469.522C664.189 467.613 662.81 464.795 662.81 461.067C662.81 458.34 663.537 456.189 664.992 454.613C666.477 453.007 668.416 451.81 670.81 451.022C673.234 450.204 675.841 449.613 678.628 449.249C679.78 449.098 681.28 448.916 683.128 448.704C685.007 448.461 686.931 448.189 688.901 447.886C690.901 447.552 692.659 447.174 694.174 446.749C695.719 446.295 696.719 445.795 697.174 445.249V455.067C697.174 457.977 696.416 460.749 694.901 463.386C693.416 466.022 691.204 468.174 688.265 469.84ZM738.208 480.34H727.481V387.249H738.208V480.34ZM757.856 480.34H768.583V387.249H757.856V480.34ZM817.503 481.795C810.776 481.795 804.973 480.31 800.094 477.34C795.246 474.34 791.503 470.158 788.867 464.795C786.261 459.401 784.958 453.128 784.958 445.977C784.958 438.825 786.261 432.522 788.867 427.067C791.503 421.583 795.17 417.31 799.867 414.249C804.594 411.158 810.109 409.613 816.412 409.613C820.049 409.613 823.64 410.219 827.185 411.431C830.731 412.643 833.958 414.613 836.867 417.34C839.776 420.037 842.094 423.613 843.822 428.067C845.549 432.522 846.412 438.007 846.412 444.522V449.067H795.709C795.863 453.713 796.764 457.697 798.412 461.022C800.261 464.658 802.822 467.431 806.094 469.34C809.367 471.219 813.17 472.158 817.503 472.158C820.322 472.158 822.867 471.764 825.14 470.977C827.443 470.158 829.428 468.946 831.094 467.34C832.761 465.704 834.049 463.674 834.958 461.249L845.322 464.158C844.231 467.674 842.397 470.764 839.822 473.431C837.246 476.067 834.064 478.128 830.276 479.613C826.488 481.067 822.231 481.795 817.503 481.795ZM798.185 430.613C796.757 433.495 795.941 436.556 795.736 439.795H835.503C835.503 435.855 834.716 432.34 833.14 429.249C831.594 426.158 829.382 423.719 826.503 421.931C823.655 420.143 820.291 419.249 816.412 419.249C812.14 419.249 808.443 420.31 805.322 422.431C802.231 424.522 799.852 427.249 798.185 430.613ZM862.731 410.522V480.34H873.458V436.158C873.458 433.007 874.216 430.204 875.731 427.749C877.276 425.264 879.367 423.325 882.003 421.931C884.67 420.507 887.7 419.795 891.094 419.795C892.519 419.795 893.867 419.901 895.14 420.113C896.443 420.295 897.276 420.431 897.64 420.522V409.613C897.034 409.552 896.14 409.507 894.958 409.477C893.776 409.446 892.791 409.431 892.003 409.431C887.822 409.431 884.064 410.507 880.731 412.658C877.397 414.81 875.094 417.613 873.822 421.067H873.094V410.522H862.731ZM919.39 506.522C917.572 506.522 915.95 506.371 914.526 506.067C913.102 505.795 912.117 505.522 911.572 505.249L914.299 495.795C916.905 496.461 919.208 496.704 921.208 496.522C923.208 496.34 924.981 495.446 926.526 493.84C928.102 492.264 929.541 489.704 930.844 486.158L932.844 480.704L907.026 410.522H918.662L937.935 466.158H938.662L957.935 410.522H969.572L939.935 490.522C938.602 494.128 936.95 497.113 934.981 499.477C933.011 501.871 930.723 503.643 928.117 504.795C925.541 505.946 922.632 506.522 919.39 506.522ZM1180.46 430.5L1190 440L1180.46 449.5L1151.84 478L1142.3 468.5L1164.17 446.717H1048V433.282H1164.17L1142.3 411.5L1151.84 402L1180.46 430.5Z" fill="#161616"/>
</svg>
