<svg width="960" height="679" viewBox="0 0 960 679" fill="none" xmlns="http://www.w3.org/2000/svg">
<path d="M0 -39.2276C0 -34.5069 3.54954 -30.5411 8.24134 -30.0198L103.483 -19.4374C104.597 -19.3136 105.683 -19.3919 106.706 -19.6416C113.836 12.0522 126.328 41.7167 143.179 68.349C142.271 68.8974 141.441 69.6139 140.735 70.496L80.8717 145.325C77.9227 149.011 78.217 154.325 81.555 157.663L141.338 217.446C144.676 220.784 149.99 221.079 153.676 218.13L228.505 158.266C229.387 157.56 230.104 156.73 230.653 155.822C257.284 172.672 286.949 185.164 318.642 192.294C318.392 193.317 318.314 194.403 318.437 195.517L329.02 290.759C329.541 295.45 333.507 299 338.228 299H422.773C427.494 299 431.46 295.45 431.981 290.759L442.563 195.517C442.687 194.403 442.609 193.317 442.359 192.294C474.052 185.164 503.716 172.672 530.348 155.821C530.897 156.73 531.613 157.56 532.496 158.266L607.325 218.129C611.011 221.078 616.325 220.784 619.663 217.446L679.446 157.663C682.784 154.325 683.078 149.011 680.129 145.325L620.266 70.4957C619.56 69.6135 618.73 68.897 617.821 68.3486C634.673 41.7166 647.165 12.0524 654.295 -19.6411C655.317 -19.3914 656.403 -19.3131 657.517 -19.4369L752.759 -30.0193C757.451 -30.5406 761 -34.5064 761 -39.2271V-123.772C761 -128.493 757.451 -132.459 752.759 -132.98L657.517 -143.563C656.403 -143.686 655.318 -143.608 654.295 -143.359C647.165 -175.052 634.673 -204.717 617.822 -231.349C618.73 -231.898 619.56 -232.614 620.266 -233.496L680.129 -308.326C683.078 -312.012 682.784 -317.326 679.446 -320.664L619.663 -380.447C616.325 -383.785 611.011 -384.079 607.325 -381.13L532.496 -321.267C531.614 -320.561 530.897 -319.73 530.349 -318.822C503.717 -335.673 474.052 -348.165 442.359 -355.295C442.608 -356.318 442.687 -357.403 442.563 -358.517L431.981 -453.759C431.459 -458.451 427.493 -462 422.773 -462H338.227C333.507 -462 329.541 -458.451 329.02 -453.759L318.437 -358.517C318.313 -357.403 318.392 -356.318 318.641 -355.295C286.948 -348.165 257.284 -335.673 230.652 -318.822C230.104 -319.73 229.387 -320.561 228.505 -321.266L153.676 -381.13C149.99 -384.079 144.676 -383.784 141.338 -380.446L81.5551 -320.664C78.2171 -317.326 77.9228 -312.011 80.8718 -308.325L140.735 -233.496C141.441 -232.614 142.271 -231.898 143.179 -231.349C126.327 -204.717 113.835 -175.053 106.706 -143.359C105.683 -143.609 104.597 -143.687 103.483 -143.563L8.24134 -132.981C3.54953 -132.459 0 -128.494 0 -123.773L0 -39.2276ZM379.868 -201.593C446.542 -201.593 500.592 -147.543 500.592 -80.8694C500.592 -14.1958 446.542 39.854 379.868 39.854C313.195 39.854 259.145 -14.1958 259.145 -80.8694C259.145 -147.543 313.195 -201.593 379.868 -201.593Z" fill="#333333"/>
<path d="M0 -39.2276C0 -34.5069 3.54954 -30.5411 8.24134 -30.0198L103.483 -19.4374C104.597 -19.3136 105.683 -19.3919 106.706 -19.6416C113.836 12.0522 126.328 41.7167 143.179 68.349C142.271 68.8974 141.441 69.6139 140.735 70.496L80.8717 145.325C77.9227 149.011 78.217 154.325 81.555 157.663L141.338 217.446C144.676 220.784 149.99 221.079 153.676 218.13L228.505 158.266C229.387 157.56 230.104 156.73 230.653 155.822C257.284 172.672 286.949 185.164 318.642 192.294C318.392 193.317 318.314 194.403 318.437 195.517L329.02 290.759C329.541 295.45 333.507 299 338.228 299H422.773C427.494 299 431.46 295.45 431.981 290.759L442.563 195.517C442.687 194.403 442.609 193.317 442.359 192.294C474.052 185.164 503.716 172.672 530.348 155.821C530.897 156.73 531.613 157.56 532.496 158.266L607.325 218.129C611.011 221.078 616.325 220.784 619.663 217.446L679.446 157.663C682.784 154.325 683.078 149.011 680.129 145.325L620.266 70.4957C619.56 69.6135 618.73 68.897 617.821 68.3486C634.673 41.7166 647.165 12.0524 654.295 -19.6411C655.317 -19.3914 656.403 -19.3131 657.517 -19.4369L752.759 -30.0193C757.451 -30.5406 761 -34.5064 761 -39.2271V-123.772C761 -128.493 757.451 -132.459 752.759 -132.98L657.517 -143.563C656.403 -143.686 655.318 -143.608 654.295 -143.359C647.165 -175.052 634.673 -204.717 617.822 -231.349C618.73 -231.898 619.56 -232.614 620.266 -233.496L680.129 -308.326C683.078 -312.012 682.784 -317.326 679.446 -320.664L619.663 -380.447C616.325 -383.785 611.011 -384.079 607.325 -381.13L532.496 -321.267C531.614 -320.561 530.897 -319.73 530.349 -318.822C503.717 -335.673 474.052 -348.165 442.359 -355.295C442.608 -356.318 442.687 -357.403 442.563 -358.517L431.981 -453.759C431.459 -458.451 427.493 -462 422.773 -462H338.227C333.507 -462 329.541 -458.451 329.02 -453.759L318.437 -358.517C318.313 -357.403 318.392 -356.318 318.641 -355.295C286.948 -348.165 257.284 -335.673 230.652 -318.822C230.104 -319.73 229.387 -320.561 228.505 -321.266L153.676 -381.13C149.99 -384.079 144.676 -383.784 141.338 -380.446L81.5551 -320.664C78.2171 -317.326 77.9228 -312.011 80.8718 -308.325L140.735 -233.496C141.441 -232.614 142.271 -231.898 143.179 -231.349C126.327 -204.717 113.835 -175.053 106.706 -143.359C105.683 -143.609 104.597 -143.687 103.483 -143.563L8.24134 -132.981C3.54953 -132.459 0 -128.494 0 -123.773L0 -39.2276ZM379.868 -201.593C446.542 -201.593 500.592 -147.543 500.592 -80.8694C500.592 -14.1958 446.542 39.854 379.868 39.854C313.195 39.854 259.145 -14.1958 259.145 -80.8694C259.145 -147.543 313.195 -201.593 379.868 -201.593Z" stroke="white"/>
<path d="M571 340.772C571 345.493 574.55 349.459 579.241 349.98L674.483 360.563C675.597 360.686 676.683 360.608 677.706 360.358C684.836 392.052 697.328 421.717 714.179 448.349C713.271 448.897 712.441 449.614 711.735 450.496L651.872 525.325C648.923 529.011 649.217 534.325 652.555 537.663L712.338 597.446C715.676 600.784 720.99 601.079 724.676 598.13L799.505 538.266C800.387 537.56 801.104 536.73 801.653 535.822C828.284 552.672 857.949 565.164 889.642 572.294C889.392 573.317 889.314 574.403 889.437 575.517L900.02 670.759C900.541 675.45 904.507 679 909.228 679H993.773C998.494 679 1002.46 675.45 1002.98 670.759L1013.56 575.517C1013.69 574.403 1013.61 573.317 1013.36 572.294C1045.05 565.164 1074.72 552.672 1101.35 535.821C1101.9 536.73 1102.61 537.56 1103.5 538.266L1178.32 598.129C1182.01 601.078 1187.33 600.784 1190.66 597.446L1250.45 537.663C1253.78 534.325 1254.08 529.011 1251.13 525.325L1191.27 450.496C1190.56 449.614 1189.73 448.897 1188.82 448.349C1205.67 421.717 1218.16 392.052 1225.29 360.359C1226.32 360.609 1227.4 360.687 1228.52 360.563L1323.76 349.981C1328.45 349.459 1332 345.494 1332 340.773V256.228C1332 251.507 1328.45 247.541 1323.76 247.02L1228.52 236.437C1227.4 236.314 1226.32 236.392 1225.29 236.641C1218.17 204.948 1205.67 175.283 1188.82 148.651C1189.73 148.102 1190.56 147.386 1191.27 146.504L1251.13 71.6744C1254.08 67.9882 1253.78 62.6741 1250.45 59.3361L1190.66 -0.446594C1187.33 -3.78461 1182.01 -4.07892 1178.32 -1.12988L1103.5 58.7334C1102.61 59.4391 1101.9 60.2696 1101.35 61.1778C1074.72 44.3267 1045.05 31.8348 1013.36 24.705C1013.61 23.6823 1013.69 22.5969 1013.56 21.4832L1002.98 -73.7587C1002.46 -78.4505 998.493 -82.0001 993.773 -82.0001H909.227C904.507 -82.0001 900.541 -78.4505 900.02 -73.7587L889.437 21.4832C889.313 22.5969 889.392 23.6823 889.641 24.705C857.948 31.8348 828.284 44.3267 801.652 61.1777C801.104 60.2697 800.387 59.4393 799.505 58.7337L724.676 -1.12958C720.99 -4.07855 715.676 -3.78424 712.338 -0.446228L652.555 59.3365C649.217 62.6745 648.923 67.9886 651.872 71.6748L711.735 146.504C712.441 147.386 713.271 148.102 714.179 148.651C697.327 175.283 684.835 204.947 677.706 236.641C676.683 236.391 675.597 236.313 674.483 236.437L579.241 247.019C574.55 247.541 571 251.506 571 256.227V340.772ZM950.868 178.407C1017.54 178.407 1071.59 232.457 1071.59 299.131C1071.59 365.804 1017.54 419.854 950.868 419.854C884.195 419.854 830.145 365.804 830.145 299.131C830.145 232.457 884.195 178.407 950.868 178.407Z" fill="#333333"/>
<path d="M571 340.772C571 345.493 574.55 349.459 579.241 349.98L674.483 360.563C675.597 360.686 676.683 360.608 677.706 360.358C684.836 392.052 697.328 421.717 714.179 448.349C713.271 448.897 712.441 449.614 711.735 450.496L651.872 525.325C648.923 529.011 649.217 534.325 652.555 537.663L712.338 597.446C715.676 600.784 720.99 601.079 724.676 598.13L799.505 538.266C800.387 537.56 801.104 536.73 801.653 535.822C828.284 552.672 857.949 565.164 889.642 572.294C889.392 573.317 889.314 574.403 889.437 575.517L900.02 670.759C900.541 675.45 904.507 679 909.228 679H993.773C998.494 679 1002.46 675.45 1002.98 670.759L1013.56 575.517C1013.69 574.403 1013.61 573.317 1013.36 572.294C1045.05 565.164 1074.72 552.672 1101.35 535.821C1101.9 536.73 1102.61 537.56 1103.5 538.266L1178.32 598.129C1182.01 601.078 1187.33 600.784 1190.66 597.446L1250.45 537.663C1253.78 534.325 1254.08 529.011 1251.13 525.325L1191.27 450.496C1190.56 449.614 1189.73 448.897 1188.82 448.349C1205.67 421.717 1218.16 392.052 1225.29 360.359C1226.32 360.609 1227.4 360.687 1228.52 360.563L1323.76 349.981C1328.45 349.459 1332 345.494 1332 340.773V256.228C1332 251.507 1328.45 247.541 1323.76 247.02L1228.52 236.437C1227.4 236.314 1226.32 236.392 1225.29 236.641C1218.17 204.948 1205.67 175.283 1188.82 148.651C1189.73 148.102 1190.56 147.386 1191.27 146.504L1251.13 71.6744C1254.08 67.9882 1253.78 62.6741 1250.45 59.3361L1190.66 -0.446594C1187.33 -3.78461 1182.01 -4.07892 1178.32 -1.12988L1103.5 58.7334C1102.61 59.4391 1101.9 60.2696 1101.35 61.1778C1074.72 44.3267 1045.05 31.8348 1013.36 24.705C1013.61 23.6823 1013.69 22.5969 1013.56 21.4832L1002.98 -73.7587C1002.46 -78.4505 998.493 -82.0001 993.773 -82.0001H909.227C904.507 -82.0001 900.541 -78.4505 900.02 -73.7587L889.437 21.4832C889.313 22.5969 889.392 23.6823 889.641 24.705C857.948 31.8348 828.284 44.3267 801.652 61.1777C801.104 60.2697 800.387 59.4393 799.505 58.7337L724.676 -1.12958C720.99 -4.07855 715.676 -3.78424 712.338 -0.446228L652.555 59.3365C649.217 62.6745 648.923 67.9886 651.872 71.6748L711.735 146.504C712.441 147.386 713.271 148.102 714.179 148.651C697.327 175.283 684.835 204.947 677.706 236.641C676.683 236.391 675.597 236.313 674.483 236.437L579.241 247.019C574.55 247.541 571 251.506 571 256.227V340.772ZM950.868 178.407C1017.54 178.407 1071.59 232.457 1071.59 299.131C1071.59 365.804 1017.54 419.854 950.868 419.854C884.195 419.854 830.145 365.804 830.145 299.131C830.145 232.457 884.195 178.407 950.868 178.407Z" stroke="white"/>
</svg>
