<svg width="1080" height="1920" viewBox="0 0 1080 1920" fill="none" xmlns="http://www.w3.org/2000/svg">
<path fill-rule="evenodd" clip-rule="evenodd" d="M0 0H1080V1920H0V0ZM478.355 1187.44H500.846C499.153 1178.43 496.07 1170.43 491.596 1163.42C487.122 1156.35 481.56 1150.37 474.909 1145.47C468.258 1140.51 460.792 1136.75 452.508 1134.18C444.286 1131.62 435.489 1130.34 426.118 1130.34C410.277 1130.34 396.19 1133.98 383.856 1141.28C371.522 1148.57 361.818 1158.94 354.745 1172.39C347.671 1185.84 344.134 1201.8 344.134 1220.26C344.134 1238.72 347.671 1254.68 354.745 1268.13C361.818 1281.58 371.522 1291.95 383.856 1299.24C396.19 1306.54 410.277 1310.19 426.118 1310.19C435.489 1310.19 444.286 1308.9 452.508 1306.34C460.792 1303.77 468.258 1300.04 474.909 1295.14C481.56 1290.18 487.122 1284.17 491.596 1277.1C496.07 1270.04 499.153 1262.03 500.846 1253.08H478.355C477.025 1259.13 474.697 1264.48 471.372 1269.15C468.107 1273.77 464.117 1277.67 459.401 1280.87C454.746 1284 449.576 1286.36 443.893 1287.96C438.21 1289.56 432.285 1290.35 426.118 1290.35C414.872 1290.35 404.685 1287.68 395.555 1282.32C386.486 1276.96 379.261 1269.07 373.88 1258.64C368.56 1248.21 365.899 1235.42 365.899 1220.26C365.899 1205.1 368.56 1192.31 373.88 1181.88C379.261 1171.45 386.486 1163.56 395.555 1158.2C404.685 1152.85 414.872 1150.17 426.118 1150.17C432.285 1150.17 438.21 1150.96 443.893 1152.56C449.576 1154.16 454.746 1156.55 459.401 1159.74C464.117 1162.88 468.107 1166.75 471.372 1171.37C474.697 1175.98 477.025 1181.34 478.355 1187.44ZM595.848 1434.29H572.386C574.152 1443.59 577.369 1451.86 582.036 1459.1C586.703 1466.4 592.506 1472.58 599.443 1477.64C606.381 1482.76 614.171 1486.65 622.811 1489.29C631.389 1491.94 640.566 1493.27 650.342 1493.27C666.866 1493.27 681.562 1489.5 694.428 1481.97C707.295 1474.43 717.418 1463.72 724.797 1449.83C732.177 1435.94 735.866 1419.46 735.866 1400.39C735.866 1381.32 732.177 1364.84 724.797 1350.95C717.418 1337.06 707.295 1326.35 694.428 1318.82C681.562 1311.28 666.866 1307.52 650.342 1307.52C640.566 1307.52 631.389 1308.84 622.811 1311.49C614.171 1314.14 606.381 1317.99 599.443 1323.06C592.506 1328.18 586.703 1334.39 582.036 1341.68C577.369 1348.98 574.152 1357.25 572.386 1366.49H595.848C597.236 1360.25 599.664 1354.72 603.133 1349.89C606.539 1345.13 610.702 1341.1 615.621 1337.8C620.478 1334.56 625.87 1332.12 631.799 1330.47C637.728 1328.82 643.909 1328 650.342 1328C662.073 1328 672.701 1330.77 682.224 1336.3C691.685 1341.83 699.222 1349.98 704.835 1360.75C710.385 1371.52 713.161 1384.74 713.161 1400.39C713.161 1416.05 710.385 1429.26 704.835 1440.03C699.222 1450.8 691.685 1458.95 682.224 1464.49C672.701 1470.02 662.073 1472.79 650.342 1472.79C643.909 1472.79 637.728 1471.96 631.799 1470.31C625.87 1468.67 620.478 1466.19 615.621 1462.9C610.702 1459.66 606.539 1455.66 603.133 1450.89C599.664 1446.12 597.236 1440.59 595.848 1434.29ZM707.43 1159.69L377.479 1489.64L361.923 1474.08L691.874 1144.13L707.43 1159.69ZM302.872 581.805C296.6 587.545 288.58 590.414 278.811 590.414C266.724 590.414 257.221 586.537 250.303 578.783C243.385 570.991 239.926 560.31 239.926 546.74C239.926 532.068 243.86 520.76 251.729 512.816C258.57 505.898 267.275 502.439 277.842 502.439C291.982 502.439 302.321 507.076 308.858 516.351C312.469 521.558 314.408 526.785 314.674 532.03H297.113C295.973 528.001 294.509 524.96 292.723 522.908C289.53 519.259 284.798 517.434 278.526 517.434C272.14 517.434 267.104 520.019 263.417 525.188C259.73 530.32 257.886 537.599 257.886 547.025C257.886 556.452 259.825 563.522 263.702 568.235C267.617 572.911 272.577 575.248 278.583 575.248C284.741 575.248 289.435 573.234 292.666 569.205C294.452 567.038 295.935 563.788 297.113 559.455H314.503C312.983 568.615 309.106 576.065 302.872 581.805ZM357.892 540.925C351.354 540.925 346.964 543.053 344.721 547.31C343.467 549.705 342.84 553.392 342.84 558.372V588.077H326.476V525.93H341.985V536.763C344.493 532.619 346.679 529.788 348.542 528.267C351.582 525.72 355.535 524.447 360.401 524.447C360.705 524.447 360.952 524.466 361.142 524.504C361.37 524.504 361.845 524.523 362.567 524.561V541.21C361.541 541.096 360.629 541.02 359.831 540.982C359.032 540.944 358.386 540.925 357.892 540.925ZM419.583 581.064C423.004 577.263 424.924 573.519 425.342 569.832H408.75C407.876 571.656 406.869 573.082 405.728 574.108C403.638 576.008 400.92 576.959 397.575 576.959C394.42 576.959 391.722 576.18 389.479 574.621C385.792 572.112 383.834 567.741 383.606 561.507H426.14C426.216 556.148 426.045 552.043 425.627 549.192C424.905 544.327 423.327 540.05 420.895 536.363C418.196 532.182 414.775 529.122 410.632 527.184C406.489 525.245 401.832 524.276 396.663 524.276C387.958 524.276 380.87 527.146 375.396 532.885C369.96 538.625 367.243 546.873 367.243 557.63C367.243 569.11 370.265 577.396 376.308 582.489C382.352 587.583 389.327 590.129 397.233 590.129C406.812 590.129 414.262 587.108 419.583 581.064ZM405.329 541.039C407.686 543.243 408.997 546.493 409.263 550.788H384.005C384.538 546.759 385.83 543.566 387.882 541.21C389.973 538.853 392.9 537.675 396.663 537.675C400.122 537.675 403.011 538.796 405.329 541.039ZM439.482 532.657C443.777 527.184 451.151 524.447 461.604 524.447C468.408 524.447 474.452 525.796 479.735 528.495C485.018 531.194 487.66 536.287 487.66 543.775V572.283C487.66 574.26 487.698 576.655 487.774 579.467C487.888 581.596 488.211 583.04 488.744 583.801C489.276 584.561 490.074 585.188 491.138 585.682V588.077H473.463C472.969 586.822 472.627 585.644 472.437 584.542C472.247 583.44 472.095 582.185 471.981 580.779C469.738 583.211 467.154 585.283 464.227 586.993C460.73 589.008 456.777 590.015 452.367 590.015C446.742 590.015 442.086 588.419 438.398 585.226C434.749 581.995 432.925 577.434 432.925 571.542C432.925 563.902 435.871 558.372 441.762 554.951C444.993 553.088 449.745 551.758 456.016 550.959L461.547 550.275C464.55 549.895 466.697 549.42 467.99 548.85C470.308 547.862 471.468 546.322 471.468 544.232C471.468 541.685 470.574 539.936 468.788 538.986C467.039 537.998 464.455 537.504 461.034 537.504C457.195 537.504 454.477 538.454 452.881 540.355C451.74 541.761 450.98 543.661 450.6 546.056H434.921C435.263 540.621 436.783 536.154 439.482 532.657ZM451.569 576.332C453.09 577.586 454.952 578.213 457.157 578.213C460.654 578.213 463.866 577.187 466.792 575.134C469.757 573.082 471.297 569.338 471.411 563.902V557.858C470.384 558.505 469.339 559.037 468.275 559.455C467.249 559.835 465.823 560.196 463.999 560.538L460.35 561.222C456.929 561.831 454.477 562.572 452.995 563.446C450.486 564.928 449.232 567.228 449.232 570.345C449.232 573.12 450.011 575.115 451.569 576.332ZM530.593 588.647V576.503C530.061 576.541 529.51 576.579 528.94 576.617H527.4C524.093 576.617 522.117 576.313 521.471 575.704C520.824 575.058 520.501 573.462 520.501 570.915V538.074H530.593V526.5H520.501V509.167H504.423V526.5H495.756V538.074H504.423V576.332C504.423 580.209 505.335 583.078 507.16 584.941C509.972 587.868 515.218 589.198 522.896 588.932L530.593 588.647ZM557.733 525.93V588.077H541.255V525.93H557.733ZM557.733 503.522V518.517H541.255V503.522H557.733ZM585.67 525.93H567.425L589.719 588.077H606.88L629.288 525.93H611.841L598.613 571.77L585.67 525.93ZM691.72 569.832C691.302 573.519 689.382 577.263 685.961 581.064C680.64 587.108 673.19 590.129 663.611 590.129C655.705 590.129 648.73 587.583 642.686 582.489C636.643 577.396 633.621 569.11 633.621 557.63C633.621 546.873 636.339 538.625 641.774 532.885C647.248 527.146 654.337 524.276 663.041 524.276C668.21 524.276 672.867 525.245 677.01 527.184C681.153 529.122 684.574 532.182 687.273 536.363C689.705 540.05 691.283 544.327 692.005 549.192C692.423 552.043 692.594 556.148 692.518 561.507H649.984C650.212 567.741 652.17 572.112 655.857 574.621C658.1 576.18 660.798 576.959 663.953 576.959C667.298 576.959 670.016 576.008 672.107 574.108C673.247 573.082 674.254 571.656 675.128 569.832H691.72ZM675.642 550.788C675.375 546.493 674.064 543.243 671.707 541.039C669.389 538.796 666.5 537.675 663.041 537.675C659.278 537.675 656.351 538.853 654.261 541.21C652.208 543.566 650.916 546.759 650.383 550.788H675.642ZM278.811 726.644C288.58 726.644 296.6 723.775 302.872 718.035C309.106 712.295 312.983 704.845 314.503 695.685H297.113C295.935 700.018 294.452 703.268 292.666 705.434C289.435 709.464 284.741 711.478 278.583 711.478C272.577 711.478 267.617 709.141 263.702 704.465C259.825 699.752 257.886 692.682 257.886 683.255C257.886 673.829 259.73 666.55 263.417 661.418C267.104 656.249 272.14 653.664 278.526 653.664C284.798 653.664 289.53 655.489 292.723 659.138C294.509 661.19 295.973 664.231 297.113 668.26H314.674C314.408 663.015 312.469 657.788 308.858 652.581C302.321 643.306 291.982 638.669 277.842 638.669C267.275 638.669 258.57 642.128 251.729 649.046C243.86 656.99 239.926 668.298 239.926 682.97C239.926 696.54 243.385 707.221 250.303 715.013C257.221 722.767 266.724 726.644 278.811 726.644ZM378.475 670.028C383.72 676.603 386.343 684.377 386.343 693.347C386.343 702.47 383.72 710.281 378.475 716.781C373.229 723.242 365.266 726.473 354.585 726.473C343.904 726.473 335.941 723.242 330.696 716.781C325.45 710.281 322.827 702.47 322.827 693.347C322.827 684.377 325.45 676.603 330.696 670.028C335.941 663.452 343.904 660.164 354.585 660.164C365.266 660.164 373.229 663.452 378.475 670.028ZM354.528 673.905C349.777 673.905 346.109 675.596 343.524 678.979C340.977 682.324 339.704 687.113 339.704 693.347C339.704 699.581 340.977 704.389 343.524 707.772C346.109 711.155 349.777 712.847 354.528 712.847C359.279 712.847 362.928 711.155 365.475 707.772C368.022 704.389 369.295 699.581 369.295 693.347C369.295 687.113 368.022 682.324 365.475 678.979C362.928 675.596 359.279 673.905 354.528 673.905ZM424.886 674.76C428.877 674.76 431.557 676.261 432.925 679.264C433.685 680.937 434.065 683.616 434.065 687.303V724.307H450.429V687.303C450.429 684.529 450.866 682.153 451.74 680.176C453.451 676.451 456.549 674.589 461.034 674.589C464.911 674.589 467.572 676.033 469.016 678.922C469.776 680.443 470.156 682.381 470.156 684.738V724.307H486.805L486.919 685.137C486.919 681.108 486.729 678.048 486.349 675.957C485.741 672.802 484.562 670.142 482.814 667.975C480.647 665.314 478.234 663.452 475.573 662.387C472.912 661.323 470.213 660.791 467.477 660.791C463.371 660.791 459.646 661.646 456.301 663.357C453.147 665.067 450.505 667.747 448.376 671.396C447.16 668.355 445.373 665.865 443.017 663.927C440.09 661.836 436.251 660.791 431.5 660.791C426.482 660.791 422.396 662.007 419.241 664.44C417.455 665.808 415.554 668.108 413.54 671.339V662.273H397.746V724.307H414.224V686.904C414.224 683.521 414.661 680.975 415.535 679.264C417.132 676.261 420.248 674.76 424.886 674.76ZM553.97 668.83C558.987 674.19 561.496 682.058 561.496 692.435C561.496 703.382 559.025 711.725 554.084 717.465C549.18 723.204 542.852 726.074 535.097 726.074C530.156 726.074 526.051 724.839 522.782 722.368C520.995 721 519.247 719.004 517.537 716.382V748.767H501.458V662.159H517.023V671.339C518.772 668.64 520.634 666.512 522.611 664.953C526.222 662.178 530.517 660.791 535.497 660.791C542.757 660.791 548.914 663.471 553.97 668.83ZM544.733 693.233C544.733 688.444 543.631 684.206 541.426 680.519C539.26 676.831 535.725 674.988 530.821 674.988C524.93 674.988 520.881 677.782 518.677 683.369C517.537 686.334 516.966 690.097 516.966 694.658C516.966 701.881 518.886 706.955 522.725 709.882C525.006 711.592 527.704 712.447 530.821 712.447C535.344 712.447 538.784 710.699 541.141 707.202C543.536 703.705 544.733 699.049 544.733 693.233ZM612.012 717.237C612.62 716.287 613 715.716 613.152 715.526V724.307H628.946V662.159H612.468V695.97C612.468 699.961 611.936 703.173 610.872 705.606C608.819 710.091 605.018 712.333 599.468 712.333C595.135 712.333 592.227 710.756 590.745 707.601C589.909 705.815 589.491 703.154 589.491 699.619V662.159H572.842V699.619C572.842 706.727 573.735 712.105 575.522 715.754C578.715 722.368 584.91 725.675 594.109 725.675C597.302 725.675 600.076 725.257 602.433 724.421C604.828 723.585 607.299 722.026 609.845 719.745C610.681 719.023 611.404 718.187 612.012 717.237ZM673.133 712.732V724.877L665.436 725.162C657.758 725.428 652.512 724.098 649.699 721.171C647.875 719.308 646.963 716.439 646.963 712.561V674.304H638.296V662.73H646.963V645.397H663.041V662.73H673.133V674.304H663.041V707.145C663.041 709.692 663.364 711.288 664.01 711.934C664.656 712.542 666.633 712.847 669.94 712.847H671.479C672.05 712.809 672.601 712.771 673.133 712.732ZM700.272 724.307V662.159H683.795V724.307H700.272ZM700.272 654.747V639.752H683.795V654.747H700.272ZM745.315 674.19C739.803 674.19 736.021 676.527 733.969 681.203C732.904 683.673 732.372 686.828 732.372 690.667V724.307H716.18V662.273H731.859V671.339C733.95 668.146 735.926 665.846 737.789 664.44C741.134 661.931 745.372 660.677 750.503 660.677C756.927 660.677 762.173 662.368 766.24 665.751C770.345 669.096 772.397 674.665 772.397 682.457V724.307H755.749V686.505C755.749 683.236 755.312 680.728 754.437 678.979C752.841 675.786 749.8 674.19 745.315 674.19ZM813.848 737.42C809.705 737.42 806.759 736.679 805.011 735.197C803.984 734.361 803.243 732.992 802.787 731.092H785.112C785.644 737.287 788.419 741.944 793.436 745.061C798.454 748.177 804.935 749.736 812.879 749.736C826.03 749.736 834.925 746.239 839.562 739.245C842.261 735.178 843.61 729.134 843.61 721.114V662.159H827.817V671.111C825.384 666.74 822.191 663.737 818.238 662.102C815.92 661.152 813.202 660.677 810.085 660.677C801.647 660.677 795.128 663.832 790.529 670.142C785.929 676.413 783.63 684.168 783.63 693.404C783.63 702.983 786.005 710.585 790.757 716.21C795.546 721.798 801.932 724.592 809.914 724.592C815.083 724.592 819.284 723.356 822.514 720.886C824.301 719.555 825.973 717.56 827.532 714.899V718.89C827.532 724.82 826.886 729.039 825.593 731.548C823.617 735.463 819.702 737.42 813.848 737.42ZM814.133 710.965C808.432 710.965 804.478 708.342 802.274 703.097C801.057 700.284 800.449 697.072 800.449 693.461C800.449 689.28 801.019 685.764 802.16 682.913C804.326 677.554 808.26 674.874 813.962 674.874C818.143 674.874 821.469 676.413 823.94 679.492C826.448 682.571 827.703 687.056 827.703 692.948C827.703 699.22 826.391 703.8 823.769 706.689C821.146 709.54 817.934 710.965 814.133 710.965Z" fill="white"/>
<path d="M255.889 368.091V419.861C255.889 425.943 257.029 430.998 259.31 435.027C262.693 441.109 268.395 444.15 276.415 444.15C286.031 444.15 292.569 440.862 296.028 434.286C297.891 430.713 298.822 425.905 298.822 419.861V368.091H310.339V415.129C310.339 425.43 308.952 433.355 306.177 438.904C301.084 449.015 291.467 454.071 277.327 454.071C263.187 454.071 253.589 449.015 248.534 438.904C245.759 433.355 244.372 425.43 244.372 415.129V368.091H255.889Z" fill="black"/>
<path d="M350.82 445.233C357.624 445.233 362.281 442.668 364.789 437.536C367.336 432.367 368.609 426.627 368.609 420.317C368.609 414.616 367.697 409.978 365.873 406.405C362.984 400.78 358.004 397.967 350.935 397.967C344.663 397.967 340.102 400.362 337.251 405.151C334.4 409.94 332.975 415.718 332.975 422.484C332.975 428.984 334.4 434.4 337.251 438.733C340.102 443.067 344.625 445.233 350.82 445.233ZM351.22 389.016C359.088 389.016 365.74 391.638 371.175 396.884C376.611 402.129 379.328 409.845 379.328 420.032C379.328 429.877 376.934 438.011 372.144 444.435C367.355 450.859 359.924 454.071 349.851 454.071C341.451 454.071 334.78 451.239 329.839 445.575C324.897 439.874 322.427 432.234 322.427 422.655C322.427 412.392 325.03 404.22 330.238 398.138C335.445 392.056 342.439 389.016 351.22 389.016Z" fill="black"/>
<path d="M394.153 381.489C394.305 377.232 395.046 374.115 396.376 372.139C398.771 368.642 403.389 366.893 410.231 366.893C410.877 366.893 411.542 366.912 412.227 366.95C412.911 366.988 413.69 367.045 414.564 367.121V376.472C413.5 376.396 412.721 376.358 412.227 376.358C411.77 376.32 411.333 376.301 410.915 376.301C407.798 376.301 405.936 377.118 405.328 378.753C404.719 380.349 404.415 384.454 404.415 391.068H414.564V399.164H404.301V451.847H394.153V399.164H385.657V391.068H394.153V381.489Z" fill="black"/>
<path d="M486.404 368.091V378.069H458.181V451.847H446.664V378.069H418.441V368.091H486.404Z" fill="black"/>
<path d="M286.564 826.213L273.849 789.21L260.336 826.213H286.564ZM267.919 776.781H280.748L311.137 860.537H298.708L290.213 835.45H257.086L248.021 860.537H236.39L267.919 776.781Z" fill="black"/>
<path d="M326.19 841.38C326.494 844.8 327.349 847.423 328.755 849.248C331.34 852.555 335.825 854.208 342.211 854.208C346.012 854.208 349.357 853.391 352.246 851.756C355.135 850.084 356.579 847.518 356.579 844.059C356.579 841.437 355.42 839.441 353.101 838.073C351.619 837.236 348.692 836.267 344.321 835.165L336.167 833.112C330.96 831.82 327.121 830.375 324.65 828.779C320.241 826.004 318.036 822.165 318.036 817.262C318.036 811.484 320.108 806.809 324.251 803.236C328.432 799.663 334.039 797.876 341.071 797.876C350.269 797.876 356.902 800.575 360.969 805.973C363.516 809.394 364.751 813.081 364.675 817.034H354.983C354.793 814.715 353.975 812.606 352.531 810.705C350.174 808.006 346.088 806.657 340.273 806.657C336.395 806.657 333.45 807.398 331.435 808.88C329.459 810.363 328.47 812.32 328.47 814.753C328.47 817.414 329.782 819.542 332.404 821.139C333.925 822.089 336.167 822.925 339.132 823.648L345.917 825.301C353.291 827.088 358.233 828.817 360.741 830.489C364.732 833.112 366.728 837.236 366.728 842.862C366.728 848.297 364.656 852.992 360.513 856.945C356.408 860.898 350.136 862.874 341.698 862.874C332.613 862.874 326.171 860.822 322.37 856.717C318.607 852.574 316.592 847.461 316.326 841.38H326.19Z" fill="black"/>
<path d="M384.574 841.38C384.878 844.8 385.733 847.423 387.14 849.248C389.724 852.555 394.21 854.208 400.595 854.208C404.396 854.208 407.741 853.391 410.63 851.756C413.519 850.084 414.963 847.518 414.963 844.059C414.963 841.437 413.804 839.441 411.485 838.073C410.003 837.236 407.076 836.267 402.705 835.165L394.552 833.112C389.344 831.82 385.505 830.375 383.034 828.779C378.625 826.004 376.421 822.165 376.421 817.262C376.421 811.484 378.492 806.809 382.635 803.236C386.817 799.663 392.423 797.876 399.455 797.876C408.654 797.876 415.286 800.575 419.354 805.973C421.9 809.394 423.136 813.081 423.06 817.034H413.367C413.177 814.715 412.36 812.606 410.915 810.705C408.559 808.006 404.472 806.657 398.657 806.657C394.78 806.657 391.834 807.398 389.819 808.88C387.843 810.363 386.855 812.32 386.855 814.753C386.855 817.414 388.166 819.542 390.789 821.139C392.309 822.089 394.552 822.925 397.516 823.648L404.301 825.301C411.675 827.088 416.617 828.817 419.126 830.489C423.117 833.112 425.112 837.236 425.112 842.862C425.112 848.297 423.041 852.992 418.897 856.945C414.792 860.898 408.521 862.874 400.082 862.874C390.998 862.874 384.555 860.822 380.754 856.717C376.991 852.574 374.976 847.461 374.71 841.38H384.574Z" fill="black"/>
<path d="M461.089 853.923C467.893 853.923 472.549 851.357 475.058 846.226C477.605 841.056 478.878 835.317 478.878 829.007C478.878 823.306 477.966 818.668 476.141 815.095C473.253 809.47 468.273 806.657 461.203 806.657C454.931 806.657 450.37 809.052 447.519 813.841C444.669 818.63 443.243 824.408 443.243 831.174C443.243 837.673 444.669 843.09 447.519 847.423C450.37 851.756 454.893 853.923 461.089 853.923ZM461.488 797.705C469.356 797.705 476.008 800.328 481.444 805.574C486.879 810.819 489.597 818.535 489.597 828.722C489.597 838.567 487.202 846.701 482.413 853.125C477.624 859.549 470.193 862.76 460.12 862.76C451.72 862.76 445.049 859.929 440.107 854.265C435.166 848.564 432.695 840.923 432.695 831.345C432.695 821.082 435.299 812.91 440.506 806.828C445.714 800.746 452.708 797.705 461.488 797.705Z" fill="black"/>
<path d="M525.403 797.705C532.283 797.705 537.871 799.378 542.166 802.723C546.499 806.068 549.103 811.826 549.977 819.999H539.999C539.391 816.236 538.004 813.119 535.837 810.648C533.67 808.139 530.192 806.885 525.403 806.885C518.865 806.885 514.19 810.078 511.377 816.464C509.553 820.607 508.64 825.719 508.64 831.801C508.64 837.921 509.933 843.071 512.518 847.252C515.102 851.433 519.169 853.524 524.719 853.524C528.976 853.524 532.34 852.232 534.811 849.647C537.319 847.024 539.049 843.451 539.999 838.928H549.977C548.837 847.024 545.986 852.954 541.425 856.717C536.863 860.442 531.029 862.304 523.921 862.304C515.938 862.304 509.572 859.397 504.82 853.581C500.069 847.727 497.693 840.429 497.693 831.687C497.693 820.968 500.297 812.625 505.505 806.657C510.712 800.689 517.345 797.705 525.403 797.705Z" fill="black"/>
<path d="M560.24 799.758H570.674V860.537H560.24V799.758ZM560.24 776.781H570.674V788.412H560.24V776.781Z" fill="black"/>
<path d="M594.107 844.287C594.107 847.252 595.191 849.59 597.357 851.3C599.524 853.011 602.089 853.866 605.054 853.866C608.665 853.866 612.162 853.03 615.545 851.357C621.247 848.583 624.098 844.04 624.098 837.73V829.463C622.843 830.261 621.228 830.927 619.251 831.459C617.275 831.991 615.336 832.371 613.436 832.599L607.221 833.397C603.496 833.891 600.702 834.671 598.84 835.735C595.685 837.521 594.107 840.372 594.107 844.287ZM618.966 823.534C621.323 823.229 622.9 822.241 623.698 820.569C624.155 819.656 624.383 818.345 624.383 816.635C624.383 813.138 623.128 810.61 620.62 809.052C618.149 807.455 614.595 806.657 609.958 806.657C604.598 806.657 600.797 808.101 598.554 810.99C597.3 812.587 596.483 814.962 596.103 818.117H586.524C586.714 810.591 589.147 805.364 593.822 802.438C598.535 799.473 603.99 797.99 610.186 797.99C617.37 797.99 623.204 799.359 627.69 802.096C632.137 804.832 634.36 809.09 634.36 814.867V850.046C634.36 851.11 634.569 851.965 634.988 852.612C635.444 853.258 636.375 853.581 637.781 853.581C638.238 853.581 638.751 853.562 639.321 853.524C639.891 853.448 640.499 853.353 641.145 853.239V860.822C639.549 861.278 638.333 861.563 637.496 861.677C636.66 861.791 635.52 861.848 634.075 861.848C630.54 861.848 627.975 860.594 626.378 858.085C625.542 856.755 624.953 854.873 624.611 852.441C622.52 855.177 619.517 857.553 615.602 859.568C611.687 861.582 607.373 862.589 602.66 862.589C596.996 862.589 592.359 860.879 588.748 857.458C585.175 853.999 583.388 849.685 583.388 844.515C583.388 838.852 585.156 834.462 588.691 831.345C592.226 828.228 596.863 826.308 602.603 825.586L618.966 823.534Z" fill="black"/>
<path d="M653.29 782.425H663.667V799.473H673.416V807.854H663.667V847.708C663.667 849.837 664.389 851.262 665.833 851.984C666.631 852.403 667.962 852.612 669.824 852.612C670.318 852.612 670.851 852.612 671.421 852.612C671.991 852.574 672.656 852.517 673.416 852.441V860.537C672.238 860.879 671.003 861.126 669.71 861.278C668.456 861.43 667.088 861.506 665.605 861.506C660.816 861.506 657.566 860.29 655.855 857.857C654.145 855.386 653.29 852.194 653.29 848.278V807.854H645.022V799.473H653.29V782.425Z" fill="black"/>
<path d="M683.736 799.758H694.17V860.537H683.736V799.758ZM683.736 776.781H694.17V788.412H683.736V776.781Z" fill="black"/>
<path d="M733.967 853.923C740.771 853.923 745.427 851.357 747.936 846.226C750.483 841.056 751.756 835.317 751.756 829.007C751.756 823.306 750.844 818.668 749.019 815.095C746.131 809.47 741.151 806.657 734.081 806.657C727.809 806.657 723.248 809.052 720.397 813.841C717.547 818.63 716.121 824.408 716.121 831.174C716.121 837.673 717.547 843.09 720.397 847.423C723.248 851.756 727.771 853.923 733.967 853.923ZM734.366 797.705C742.234 797.705 748.886 800.328 754.322 805.574C759.757 810.819 762.475 818.535 762.475 828.722C762.475 838.567 760.08 846.701 755.291 853.125C750.502 859.549 743.071 862.76 732.998 862.76C724.598 862.76 717.927 859.929 712.985 854.265C708.044 848.564 705.573 840.923 705.573 831.345C705.573 821.082 708.177 812.91 713.384 806.828C718.592 800.746 725.586 797.705 734.366 797.705Z" fill="black"/>
<path d="M774.734 799.473H784.483V808.139C787.372 804.566 790.432 802.001 793.663 800.442C796.894 798.884 800.486 798.104 804.439 798.104C813.105 798.104 818.959 801.126 822 807.17C823.672 810.477 824.508 815.209 824.508 821.367V860.537H814.074V822.051C814.074 818.326 813.523 815.323 812.421 813.043C810.596 809.242 807.29 807.341 802.5 807.341C800.068 807.341 798.072 807.588 796.514 808.082C793.701 808.918 791.23 810.591 789.101 813.1C787.391 815.114 786.27 817.205 785.738 819.371C785.243 821.5 784.996 824.56 784.996 828.551V860.537H774.734V799.473Z" fill="black"/>
</svg>
