<svg width="1920" height="204" viewBox="0 0 1920 204" fill="none" xmlns="http://www.w3.org/2000/svg">
<path fill-rule="evenodd" clip-rule="evenodd" d="M0 0H1920V204H0V0ZM707.318 64.1364C708.955 66.5606 710.273 69.303 711.273 72.3636H722.909C722.061 67.8485 720.515 63.7424 718.273 60.0455C716.03 56.3182 713.227 53.1212 709.864 50.4545C706.53 47.7576 702.727 45.6818 698.455 44.2273C694.212 42.7424 689.636 42 684.727 42C678.758 42 673.288 43.1061 668.318 45.3182C663.349 47.5303 659.045 50.7121 655.409 54.8636C651.773 59.0152 648.955 64.0455 646.955 69.9545C644.985 75.8333 644 82.4545 644 89.8182C644 99.6364 645.727 108.121 649.182 115.273C652.667 122.424 657.515 127.939 663.727 131.818C669.97 135.697 677.212 137.636 685.455 137.636C692.849 137.636 699.394 136.091 705.091 133C710.818 129.879 715.303 125.485 718.545 119.818C721.818 114.152 723.455 107.485 723.455 99.8182V89.8182H688V99.8182H712.539C712.445 105.211 711.295 109.923 709.091 113.955C706.818 118.136 703.636 121.379 699.545 123.682C695.485 125.955 690.788 127.091 685.455 127.091C679.697 127.091 674.515 125.667 669.909 122.818C665.303 119.97 661.651 115.773 658.955 110.227C656.258 104.682 654.909 97.8788 654.909 89.8182C654.909 81.7576 656.242 74.9546 658.909 69.4091C661.576 63.8636 665.167 59.6667 669.682 56.8182C674.197 53.9697 679.212 52.5455 684.727 52.5455C688.091 52.5455 691.182 53 694 53.9091C696.818 54.8182 699.333 56.1364 701.545 57.8636C703.788 59.5909 705.712 61.6818 707.318 64.1364ZM749.807 135.5C753.413 137.167 757.428 138 761.852 138C765.913 138 769.352 137.394 772.17 136.182C774.989 134.97 777.246 133.5 778.943 131.773C780.64 130.045 781.852 128.424 782.58 126.909H783.125V136.364H793.852V90.3636C793.852 84.8182 792.943 80.3939 791.125 77.0909C789.307 73.7879 787.019 71.3182 784.261 69.6818C781.534 68.0455 778.701 66.9697 775.761 66.4545C772.852 65.9091 770.276 65.6364 768.034 65.6364C764.519 65.6364 760.943 66.1212 757.307 67.0909C753.701 68.0303 750.367 69.697 747.307 72.0909C744.276 74.4545 741.852 77.7576 740.034 82L750.216 85.6364C751.398 83.0909 753.443 80.697 756.352 78.4545C759.261 76.2121 763.276 75.0909 768.398 75.0909C773.337 75.0909 777.019 76.3333 779.443 78.8182C781.898 81.303 783.125 84.7879 783.125 89.2727V89.6364C783.125 91.3636 782.504 92.5758 781.261 93.2727C780.049 93.9697 778.11 94.4697 775.443 94.7727C772.807 95.0455 769.367 95.4545 765.125 96C761.883 96.4242 758.655 97 755.443 97.7273C752.261 98.4242 749.352 99.4848 746.716 100.909C744.08 102.333 741.974 104.303 740.398 106.818C738.822 109.303 738.034 112.545 738.034 116.545C738.034 121.091 739.095 124.97 741.216 128.182C743.337 131.364 746.201 133.803 749.807 135.5ZM774.216 125.864C771.307 127.53 767.731 128.364 763.489 128.364C759.216 128.364 755.686 127.424 752.898 125.545C750.14 123.636 748.761 120.818 748.761 117.091C748.761 114.364 749.489 112.212 750.943 110.636C752.428 109.03 754.367 107.833 756.761 107.045C759.186 106.227 761.792 105.636 764.58 105.273C765.731 105.121 767.231 104.939 769.08 104.727C770.958 104.485 772.883 104.212 774.852 103.909C776.852 103.576 778.61 103.197 780.125 102.773C781.67 102.318 782.67 101.818 783.125 101.273V111.091C783.125 114 782.367 116.773 780.852 119.409C779.367 122.045 777.155 124.197 774.216 125.864ZM824.159 43.2727V136.364H813.432V43.2727H824.159ZM854.534 136.364V43.2727H843.807V136.364H854.534ZM903.455 137.818C896.727 137.818 890.924 136.333 886.045 133.364C881.197 130.364 877.455 126.182 874.818 120.818C872.212 115.424 870.909 109.152 870.909 102C870.909 94.8485 872.212 88.5455 874.818 83.0909C877.455 77.6061 881.121 73.3333 885.818 70.2727C890.545 67.1818 896.061 65.6364 902.364 65.6364C906 65.6364 909.591 66.2424 913.136 67.4545C916.682 68.6667 919.909 70.6364 922.818 73.3636C925.727 76.0606 928.045 79.6364 929.773 84.0909C931.5 88.5455 932.364 94.0303 932.364 100.545V105.091H881.66C881.814 109.736 882.715 113.721 884.364 117.045C886.212 120.682 888.773 123.455 892.045 125.364C895.318 127.242 899.121 128.182 903.455 128.182C906.273 128.182 908.818 127.788 911.091 127C913.394 126.182 915.379 124.97 917.045 123.364C918.712 121.727 920 119.697 920.909 117.273L931.273 120.182C930.182 123.697 928.349 126.788 925.773 129.455C923.197 132.091 920.015 134.152 916.227 135.636C912.439 137.091 908.182 137.818 903.455 137.818ZM884.136 86.6364C882.708 89.5189 881.892 92.5795 881.688 95.8182H921.455C921.455 91.8788 920.667 88.3636 919.091 85.2727C917.545 82.1818 915.333 79.7424 912.455 77.9545C909.606 76.1667 906.242 75.2727 902.364 75.2727C898.091 75.2727 894.394 76.3333 891.273 78.4545C888.182 80.5455 885.803 83.2727 884.136 86.6364ZM948.682 66.5455V136.364H959.409V92.1818C959.409 89.0303 960.167 86.2273 961.682 83.7727C963.227 81.2879 965.318 79.3485 967.955 77.9545C970.621 76.5303 973.652 75.8182 977.045 75.8182C978.47 75.8182 979.818 75.9242 981.091 76.1364C982.394 76.3182 983.227 76.4545 983.591 76.5455V65.6364C982.985 65.5758 982.091 65.5303 980.909 65.5C979.727 65.4697 978.742 65.4545 977.955 65.4545C973.773 65.4545 970.015 66.5303 966.682 68.6818C963.349 70.8333 961.045 73.6364 959.773 77.0909H959.045V66.5455H948.682ZM1005.34 162.545C1003.52 162.545 1001.9 162.394 1000.48 162.091C999.053 161.818 998.068 161.545 997.523 161.273L1000.25 151.818C1002.86 152.485 1005.16 152.727 1007.16 152.545C1009.16 152.364 1010.93 151.47 1012.48 149.864C1014.05 148.288 1015.49 145.727 1016.8 142.182L1018.8 136.727L992.977 66.5455H1004.61L1023.89 122.182H1024.61L1043.89 66.5455H1055.52L1025.89 146.545C1024.55 150.152 1022.9 153.136 1020.93 155.5C1018.96 157.894 1016.67 159.667 1014.07 160.818C1011.49 161.97 1008.58 162.545 1005.34 162.545ZM1266.41 86.5236L1275.95 96.0233L1266.41 105.523L1237.79 134.023L1228.25 124.523L1250.12 102.741H1133.95V89.3058H1250.12L1228.25 67.5234L1237.79 58.0234L1266.41 86.5236Z" fill="#161616"/>
</svg>
