<svg width="1080" height="1920" viewBox="0 0 1080 1920" fill="none" xmlns="http://www.w3.org/2000/svg">
<path fill-rule="evenodd" clip-rule="evenodd" d="M1080 0H0V1920H1080V0ZM211.318 555.272C205.046 561.012 197.026 563.881 187.257 563.881C175.17 563.881 165.667 560.004 158.749 552.25C151.831 544.458 148.372 533.777 148.372 520.207C148.372 505.535 152.306 494.227 160.174 486.283C167.016 479.365 175.721 475.906 186.288 475.906C200.428 475.906 210.766 480.543 217.304 489.818C220.915 495.025 222.854 500.252 223.12 505.497H205.559C204.419 501.468 202.955 498.427 201.169 496.375C197.976 492.726 193.244 490.901 186.972 490.901C180.586 490.901 175.55 493.486 171.863 498.655C168.176 503.787 166.332 511.066 166.332 520.492C166.332 529.919 168.271 536.989 172.148 541.702C176.063 546.378 181.023 548.715 187.029 548.715C193.187 548.715 197.881 546.701 201.112 542.672C202.898 540.505 204.381 537.255 205.559 532.922H222.949C221.428 542.082 217.551 549.532 211.318 555.272ZM266.338 514.392C259.8 514.392 255.41 516.52 253.167 520.777C251.913 523.172 251.286 526.859 251.286 531.839V561.544H234.922V499.397H250.43V510.23C252.939 506.086 255.125 503.255 256.987 501.734C260.028 499.188 263.981 497.914 268.847 497.914C269.151 497.914 269.398 497.933 269.588 497.971C269.816 497.971 270.291 497.99 271.013 498.028V514.677C269.987 514.563 269.075 514.487 268.276 514.449C267.478 514.411 266.832 514.392 266.338 514.392ZM328.029 554.531C331.45 550.73 333.37 546.986 333.788 543.299H317.196C316.322 545.123 315.315 546.549 314.174 547.575C312.084 549.475 309.366 550.426 306.021 550.426C302.866 550.426 300.167 549.647 297.925 548.088C294.238 545.579 292.28 541.208 292.052 534.974H334.586C334.662 529.615 334.491 525.51 334.073 522.659C333.351 517.794 331.773 513.517 329.34 509.83C326.642 505.649 323.221 502.589 319.078 500.651C314.934 498.712 310.278 497.743 305.109 497.743C296.404 497.743 289.315 500.613 283.842 506.352C278.406 512.092 275.689 520.34 275.689 531.097C275.689 542.577 278.71 550.863 284.754 555.956C290.798 561.05 297.773 563.596 305.679 563.596C315.258 563.596 322.708 560.575 328.029 554.531ZM313.775 514.506C316.132 516.71 317.443 519.96 317.709 524.255H292.451C292.983 520.226 294.276 517.033 296.328 514.677C298.419 512.32 301.346 511.142 305.109 511.142C308.568 511.142 311.456 512.263 313.775 514.506ZM347.928 506.124C352.223 500.651 359.597 497.914 370.05 497.914C376.854 497.914 382.897 499.264 388.181 501.962C393.464 504.661 396.106 509.754 396.106 517.243V545.75C396.106 547.727 396.144 550.122 396.22 552.934C396.334 555.063 396.657 556.507 397.189 557.268C397.721 558.028 398.52 558.655 399.584 559.149V561.544H381.909C381.415 560.29 381.073 559.111 380.883 558.009C380.693 556.907 380.541 555.652 380.427 554.246C378.184 556.678 375.599 558.75 372.672 560.461C369.176 562.475 365.222 563.482 360.813 563.482C355.188 563.482 350.531 561.886 346.844 558.693C343.195 555.462 341.371 550.901 341.371 545.009C341.371 537.369 344.317 531.839 350.208 528.418C353.439 526.555 358.19 525.225 364.462 524.427L369.993 523.742C372.996 523.362 375.143 522.887 376.436 522.317C378.754 521.329 379.914 519.789 379.914 517.699C379.914 515.152 379.02 513.403 377.234 512.453C375.485 511.465 372.901 510.971 369.48 510.971C365.641 510.971 362.923 511.921 361.326 513.822C360.186 515.228 359.426 517.128 359.046 519.523H343.366C343.708 514.088 345.229 509.621 347.928 506.124ZM360.015 549.799C361.535 551.053 363.398 551.68 365.603 551.68C369.099 551.68 372.311 550.654 375.238 548.601C378.203 546.549 379.742 542.805 379.857 537.369V531.325C378.83 531.972 377.785 532.504 376.721 532.922C375.694 533.302 374.269 533.663 372.444 534.005L368.795 534.689C365.374 535.298 362.923 536.039 361.44 536.913C358.932 538.395 357.677 540.695 357.677 543.812C357.677 546.587 358.457 548.582 360.015 549.799ZM439.039 562.114V549.97C438.818 549.985 438.593 550.001 438.366 550.017C438.045 550.039 437.719 550.061 437.385 550.084H435.846C432.539 550.084 430.563 549.78 429.916 549.171C429.27 548.525 428.947 546.929 428.947 544.382V511.541H439.039V499.967H428.947V482.634H412.869V499.967H404.202V511.541H412.869V549.799C412.869 553.676 413.781 556.545 415.605 558.408C418.418 561.335 423.664 562.665 431.342 562.399L439.039 562.114ZM466.179 499.397V561.544H449.701V499.397H466.179ZM466.179 476.989V491.984H449.701V476.989H466.179ZM494.116 499.397H475.871L498.164 561.544H515.326L537.733 499.397H520.287L507.059 545.237L494.116 499.397ZM600.166 543.299C599.748 546.986 597.828 550.73 594.407 554.531C589.086 560.575 581.636 563.596 572.057 563.596C564.151 563.596 557.176 561.05 551.132 555.956C545.089 550.863 542.067 542.577 542.067 531.097C542.067 520.34 544.784 512.092 550.22 506.352C555.693 500.613 562.782 497.743 571.487 497.743C576.656 497.743 581.313 498.712 585.456 500.651C589.599 502.589 593.02 505.649 595.719 509.83C598.151 513.517 599.729 517.794 600.451 522.659C600.869 525.51 601.04 529.615 600.964 534.974H558.43C558.658 541.208 560.616 545.579 564.303 548.088C566.545 549.647 569.244 550.426 572.399 550.426C575.744 550.426 578.462 549.475 580.552 547.575C581.693 546.549 582.7 545.123 583.574 543.299H600.166ZM584.087 524.255C583.821 519.96 582.51 516.71 580.153 514.506C577.835 512.263 574.946 511.142 571.487 511.142C567.724 511.142 564.797 512.32 562.706 514.677C560.654 517.033 559.361 520.226 558.829 524.255H584.087ZM187.257 700.111C197.026 700.111 205.046 697.242 211.318 691.502C217.551 685.762 221.428 678.312 222.949 669.152H205.559C204.381 673.485 202.898 676.735 201.112 678.902C197.881 682.931 193.187 684.945 187.029 684.945C181.023 684.945 176.063 682.608 172.148 677.932C168.271 673.219 166.332 666.149 166.332 656.722C166.332 647.296 168.176 640.017 171.863 634.885C175.55 629.716 180.586 627.131 186.972 627.131C193.244 627.131 197.976 628.956 201.169 632.605C202.955 634.657 204.419 637.698 205.559 641.727H223.12C222.854 636.482 220.915 631.255 217.304 626.048C210.766 616.773 200.428 612.136 186.288 612.136C175.721 612.136 167.016 615.595 160.174 622.513C152.306 630.457 148.372 641.765 148.372 656.437C148.372 670.007 151.831 680.688 158.749 688.48C165.667 696.234 175.17 700.111 187.257 700.111ZM286.921 643.495C292.166 650.071 294.789 657.844 294.789 666.814C294.789 675.937 292.166 683.748 286.921 690.248C281.675 696.709 273.712 699.94 263.031 699.94C252.35 699.94 244.387 696.709 239.141 690.248C233.896 683.748 231.273 675.937 231.273 666.814C231.273 657.844 233.896 650.071 239.141 643.495C244.387 636.919 252.35 633.631 263.031 633.631C273.712 633.631 281.675 636.919 286.921 643.495ZM262.974 647.372C258.223 647.372 254.555 649.063 251.97 652.446C249.423 655.791 248.15 660.58 248.15 666.814C248.15 673.048 249.423 677.856 251.97 681.239C254.555 684.622 258.223 686.314 262.974 686.314C267.725 686.314 271.374 684.622 273.921 681.239C276.468 677.856 277.741 673.048 277.741 666.814C277.741 660.58 276.468 655.791 273.921 652.446C271.374 649.063 267.725 647.372 262.974 647.372ZM333.332 648.227C337.323 648.227 340.002 649.728 341.371 652.731C342.131 654.404 342.511 657.083 342.511 660.77V697.774H358.875V660.77C358.875 657.996 359.312 655.62 360.186 653.644C361.896 649.918 364.994 648.056 369.48 648.056C373.357 648.056 376.017 649.5 377.462 652.389C378.222 653.91 378.602 655.848 378.602 658.205V697.774H395.251L395.365 658.604C395.365 654.575 395.175 651.515 394.795 649.424C394.186 646.269 393.008 643.609 391.26 641.442C389.093 638.781 386.679 636.919 384.019 635.855C381.358 634.79 378.659 634.258 375.922 634.258C371.817 634.258 368.092 635.113 364.747 636.824C361.592 638.534 358.951 641.214 356.822 644.863C355.606 641.822 353.819 639.332 351.463 637.394C348.536 635.303 344.697 634.258 339.945 634.258C334.928 634.258 330.842 635.474 327.687 637.907C325.9 639.275 324 641.575 321.985 644.806V635.74H306.192V697.774H322.67V660.371C322.67 656.988 323.107 654.442 323.981 652.731C325.577 649.728 328.694 648.227 333.332 648.227ZM462.415 642.297C467.433 647.657 469.942 655.525 469.942 665.902C469.942 676.849 467.471 685.192 462.53 690.932C457.626 696.671 451.297 699.541 443.543 699.541C438.602 699.541 434.497 698.306 431.228 695.835C429.441 694.467 427.693 692.471 425.982 689.849V722.234H409.904V635.626H425.469V644.806C427.218 642.107 429.08 639.979 431.057 638.42C434.668 635.645 438.963 634.258 443.942 634.258C451.202 634.258 457.36 636.938 462.415 642.297ZM453.179 666.7C453.179 661.911 452.077 657.673 449.872 653.986C447.705 650.299 444.17 648.455 439.267 648.455C433.375 648.455 429.327 651.249 427.123 656.836C425.982 659.801 425.412 663.564 425.412 668.126C425.412 675.348 427.332 680.422 431.171 683.349C433.451 685.059 436.15 685.914 439.267 685.914C443.79 685.914 447.23 684.166 449.587 680.669C451.982 677.172 453.179 672.516 453.179 666.7ZM520.458 690.704C521.066 689.754 521.446 689.183 521.598 688.993V697.774H537.391V635.626H520.914V669.437C520.914 673.428 520.382 676.64 519.317 679.073C517.265 683.558 513.464 685.8 507.914 685.8C503.581 685.8 500.673 684.223 499.191 681.068C498.354 679.282 497.936 676.621 497.936 673.086V635.626H481.288V673.086C481.288 680.194 482.181 685.572 483.967 689.221C487.16 695.835 493.356 699.142 502.555 699.142C505.748 699.142 508.522 698.724 510.879 697.888C513.274 697.052 515.744 695.493 518.291 693.212C519.127 692.49 519.849 691.654 520.458 690.704ZM581.579 686.2V698.344L573.881 698.629C566.203 698.895 560.958 697.565 558.145 694.638C556.321 692.775 555.408 689.906 555.408 686.029V647.771H546.742V636.197H555.408V618.864H571.487V636.197H581.579V647.771H571.487V680.612C571.487 683.159 571.81 684.755 572.456 685.401C573.102 686.009 575.079 686.314 578.386 686.314H579.925C580.26 686.291 580.589 686.269 580.911 686.247L581.132 686.231L581.275 686.221L581.579 686.2ZM608.718 697.774V635.626H592.241V697.774H608.718ZM608.718 628.214V613.219H592.241V628.214H608.718ZM653.761 647.657C648.249 647.657 644.467 649.994 642.415 654.67C641.35 657.14 640.818 660.295 640.818 664.134V697.774H624.626V635.74H640.305V644.806C642.396 641.613 644.372 639.313 646.235 637.907C649.58 635.398 653.818 634.144 658.949 634.144C665.373 634.144 670.618 635.836 674.686 639.218C678.791 642.563 680.843 648.132 680.843 655.924V697.774H664.195V659.972C664.195 656.703 663.758 654.195 662.883 652.446C661.287 649.253 658.246 647.657 653.761 647.657ZM722.294 710.887C718.151 710.887 715.205 710.146 713.456 708.664C712.43 707.828 711.689 706.459 711.233 704.559H693.558C694.09 710.754 696.865 715.411 701.882 718.528C706.9 721.644 713.38 723.203 721.325 723.203C734.476 723.203 743.371 719.706 748.008 712.712C750.707 708.645 752.056 702.601 752.056 694.581V635.626H736.263V644.578C733.83 640.207 730.637 637.204 726.684 635.569C724.365 634.619 721.648 634.144 718.531 634.144C710.092 634.144 703.574 637.299 698.974 643.609C694.375 649.88 692.075 657.635 692.075 666.871C692.075 676.45 694.451 684.052 699.202 689.678C703.992 695.265 710.378 698.059 718.36 698.059C723.529 698.059 727.729 696.824 730.96 694.353C732.747 693.022 734.419 691.027 735.978 688.366V692.357C735.978 698.287 735.331 702.506 734.039 705.015C732.062 708.93 728.147 710.887 722.294 710.887ZM722.579 684.432C716.877 684.432 712.924 681.809 710.72 676.564C709.503 673.751 708.895 670.539 708.895 666.928C708.895 662.747 709.465 659.231 710.606 656.38C712.772 651.021 716.706 648.341 722.408 648.341C726.589 648.341 729.915 649.88 732.386 652.959C734.894 656.038 736.149 660.523 736.149 666.415C736.149 672.687 734.837 677.267 732.215 680.156C729.592 683.007 726.38 684.432 722.579 684.432Z" fill="#D9D9D9"/>
<path d="M642.096 852.994H589.904C586.818 838.844 581.416 826.414 573.699 815.702C566.123 804.991 556.863 795.998 545.92 788.725C535.117 781.32 523.121 775.765 509.933 772.063C496.744 768.36 482.995 766.509 468.684 766.509C442.588 766.509 418.947 772.724 397.762 785.155C376.717 797.585 359.951 815.9 347.464 840.1C335.117 864.3 328.944 893.988 328.944 929.164C328.944 964.34 335.117 994.028 347.464 1018.23C359.951 1042.43 376.717 1060.74 397.762 1073.17C418.947 1085.6 442.588 1091.82 468.684 1091.82C482.995 1091.82 496.744 1089.97 509.933 1086.27C523.121 1082.56 535.117 1077.07 545.92 1069.8C556.863 1062.4 566.123 1053.34 573.699 1042.63C581.416 1031.78 586.818 1019.35 589.904 1005.33H642.096C638.168 1026.1 631.012 1044.68 620.63 1061.07C610.248 1077.47 597.34 1091.42 581.907 1102.93C566.474 1114.3 549.147 1122.96 529.925 1128.91C510.844 1134.86 490.431 1137.84 468.684 1137.84C431.925 1137.84 399.235 1129.38 370.613 1112.45C341.992 1095.52 319.474 1071.45 303.058 1040.25C286.643 1009.04 278.436 972.01 278.436 929.164C278.436 886.318 286.643 849.291 303.058 818.082C319.474 786.874 341.992 762.806 370.613 745.879C399.235 728.952 431.925 720.489 468.684 720.489C490.431 720.489 510.844 723.464 529.925 729.415C549.147 735.366 566.474 744.094 581.907 755.599C597.34 766.971 610.248 780.857 620.63 797.255C631.012 813.52 638.168 832.1 642.096 852.994Z" fill="black" fill-opacity="0.15"/>
<path d="M808.108 1425.84H862.554C865.774 1440.45 871.409 1453.29 879.459 1464.36C887.362 1475.42 897.022 1484.71 908.438 1492.22C919.708 1499.87 932.222 1505.6 945.979 1509.43C959.737 1513.25 974.081 1515.16 989.009 1515.16C1016.23 1515.16 1040.89 1508.74 1062.99 1495.91C1084.95 1483.07 1102.44 1464.15 1115.46 1439.16C1128.34 1414.16 1134.78 1383.5 1134.78 1347.17C1134.78 1310.84 1128.34 1280.18 1115.46 1255.19C1102.44 1230.19 1084.95 1211.28 1062.99 1198.44C1040.89 1185.6 1016.23 1179.18 989.009 1179.18C974.081 1179.18 959.737 1181.09 945.979 1184.92C932.222 1188.74 919.708 1194.41 908.438 1201.92C897.022 1209.57 887.362 1218.92 879.459 1229.99C871.409 1241.19 865.774 1254.02 862.554 1268.5H808.108C812.206 1247.06 819.671 1227.87 830.501 1210.93C841.332 1194 854.797 1179.59 870.897 1167.71C886.996 1155.96 905.072 1147.02 925.123 1140.87C945.028 1134.72 966.323 1131.65 989.009 1131.65C1027.36 1131.65 1061.46 1140.39 1091.31 1157.87C1121.17 1175.36 1144.66 1200.21 1161.79 1232.45C1178.91 1264.68 1187.47 1302.92 1187.47 1347.17C1187.47 1391.42 1178.91 1429.66 1161.79 1461.9C1144.66 1494.13 1121.17 1518.99 1091.31 1536.47C1061.46 1553.95 1027.36 1562.69 989.009 1562.69C966.323 1562.69 945.028 1559.62 925.123 1553.47C905.072 1547.33 886.996 1538.31 870.897 1526.43C854.797 1514.68 841.332 1500.34 830.501 1483.41C819.671 1466.61 812.206 1447.42 808.108 1425.84Z" fill="black" fill-opacity="0.15"/>
<path fill-rule="evenodd" clip-rule="evenodd" d="M1121.49 788.598L355.815 1554.27L319.715 1518.17L1085.39 752.498L1121.49 788.598Z" fill="black" fill-opacity="0.15"/>
<path d="M164.335 341.558V393.328C164.335 399.41 165.476 404.465 167.756 408.494C171.139 414.576 176.841 417.617 184.861 417.617C194.478 417.617 201.016 414.329 204.475 407.753C206.337 404.18 207.268 399.372 207.268 393.328V341.558H218.786V388.596C218.786 398.897 217.398 406.822 214.623 412.372C209.53 422.482 199.913 427.538 185.773 427.538C171.633 427.538 162.036 422.482 156.98 412.372C154.206 406.822 152.818 398.897 152.818 388.596V341.558H164.335Z" fill="black"/>
<path d="M259.267 418.7C266.071 418.7 270.727 416.135 273.236 411.003C275.782 405.834 277.056 400.094 277.056 393.784C277.056 388.083 276.143 383.445 274.319 379.872C271.43 374.247 266.451 371.434 259.381 371.434C253.109 371.434 248.548 373.829 245.697 378.618C242.846 383.407 241.421 389.185 241.421 395.951C241.421 402.451 242.846 407.867 245.697 412.2C248.548 416.534 253.071 418.7 259.267 418.7ZM259.666 362.483C267.534 362.483 274.186 365.105 279.621 370.351C285.057 375.596 287.775 383.312 287.775 393.499C287.775 403.344 285.38 411.478 280.591 417.902C275.801 424.326 268.37 427.538 258.298 427.538C249.897 427.538 243.226 424.706 238.285 419.042C233.344 413.341 230.873 405.701 230.873 396.122C230.873 385.859 233.477 377.687 238.684 371.605C243.892 365.523 250.885 362.483 259.666 362.483Z" fill="black"/>
<path d="M302.599 354.957C302.751 350.699 303.492 347.582 304.822 345.606C307.217 342.109 311.835 340.36 318.677 340.36C319.324 340.36 319.989 340.379 320.673 340.417C321.357 340.456 322.136 340.513 323.011 340.589V349.939C321.946 349.863 321.167 349.825 320.673 349.825C320.217 349.787 319.78 349.768 319.362 349.768C316.245 349.768 314.382 350.585 313.774 352.22C313.166 353.816 312.862 357.921 312.862 364.535H323.011V372.631H312.748V425.314H302.599V372.631H294.103V364.535H302.599V354.957Z" fill="black"/>
<path d="M394.851 341.558V351.536H366.628V425.314H355.11V351.536H326.888V341.558H394.851Z" fill="black"/>
<path d="M195.01 799.68L182.295 762.677L168.783 799.68H195.01ZM176.366 750.248H189.194L219.584 834.004H207.154L198.659 808.917H165.533L156.467 834.004H144.836L176.366 750.248Z" fill="black"/>
<path d="M234.636 814.847C234.94 818.268 235.795 820.89 237.202 822.715C239.786 826.022 244.272 827.675 250.657 827.675C254.458 827.675 257.803 826.858 260.692 825.223C263.581 823.551 265.025 820.985 265.025 817.526C265.025 814.904 263.866 812.908 261.547 811.54C260.065 810.703 257.138 809.734 252.767 808.632L244.614 806.579C239.406 805.287 235.567 803.842 233.097 802.246C228.687 799.471 226.483 795.632 226.483 790.729C226.483 784.951 228.554 780.276 232.697 776.703C236.879 773.13 242.485 771.343 249.517 771.343C258.716 771.343 265.348 774.042 269.416 779.44C271.962 782.861 273.198 786.548 273.122 790.501H263.429C263.239 788.182 262.422 786.073 260.977 784.172C258.621 781.473 254.534 780.124 248.719 780.124C244.842 780.124 241.896 780.865 239.881 782.348C237.905 783.83 236.917 785.787 236.917 788.22C236.917 790.881 238.228 793.009 240.851 794.606C242.371 795.556 244.614 796.392 247.579 797.115L254.363 798.768C261.737 800.555 266.679 802.284 269.188 803.957C273.179 806.579 275.174 810.703 275.174 816.329C275.174 821.765 273.103 826.459 268.959 830.412C264.854 834.365 258.583 836.342 250.144 836.342C241.06 836.342 234.617 834.289 230.816 830.184C227.053 826.041 225.038 820.928 224.772 814.847H234.636Z" fill="black"/>
<path d="M293.02 814.847C293.324 818.268 294.18 820.89 295.586 822.715C298.171 826.022 302.656 827.675 309.042 827.675C312.843 827.675 316.188 826.858 319.076 825.223C321.965 823.551 323.41 820.985 323.41 817.526C323.41 814.904 322.25 812.908 319.932 811.54C318.449 810.703 315.522 809.734 311.151 808.632L302.998 806.579C297.791 805.287 293.951 803.842 291.481 802.246C287.072 799.471 284.867 795.632 284.867 790.729C284.867 784.951 286.938 780.276 291.082 776.703C295.263 773.13 300.869 771.343 307.901 771.343C317.1 771.343 323.733 774.042 327.8 779.44C330.347 782.861 331.582 786.548 331.506 790.501H321.813C321.623 788.182 320.806 786.073 319.362 784.172C317.005 781.473 312.919 780.124 307.103 780.124C303.226 780.124 300.28 780.865 298.266 782.348C296.289 783.83 295.301 785.787 295.301 788.22C295.301 790.881 296.612 793.009 299.235 794.606C300.755 795.556 302.998 796.392 305.963 797.115L312.748 798.768C320.122 800.555 325.063 802.284 327.572 803.957C331.563 806.579 333.558 810.703 333.558 816.329C333.558 821.765 331.487 826.459 327.344 830.412C323.239 834.365 316.967 836.342 308.528 836.342C299.444 836.342 293.001 834.289 289.2 830.184C285.437 826.041 283.423 820.928 283.156 814.847H293.02Z" fill="black"/>
<path d="M369.535 827.39C376.339 827.39 380.996 824.824 383.504 819.693C386.051 814.523 387.324 808.784 387.324 802.474C387.324 796.773 386.412 792.135 384.588 788.562C381.699 782.937 376.719 780.124 369.65 780.124C363.378 780.124 358.817 782.519 355.966 787.308C353.115 792.097 351.69 797.875 351.69 804.641C351.69 811.141 353.115 816.557 355.966 820.89C358.817 825.223 363.34 827.39 369.535 827.39ZM369.935 771.172C377.803 771.172 384.455 773.795 389.89 779.041C395.326 784.286 398.043 792.002 398.043 802.189C398.043 812.034 395.649 820.168 390.859 826.592C386.07 833.016 378.639 836.228 368.566 836.228C360.166 836.228 353.495 833.396 348.554 827.732C343.612 822.031 341.142 814.39 341.142 804.812C341.142 794.549 343.745 786.377 348.953 780.295C354.16 774.213 361.154 771.172 369.935 771.172Z" fill="black"/>
<path d="M433.849 771.172C440.729 771.172 446.317 772.845 450.612 776.19C454.945 779.535 457.549 785.293 458.423 793.466H448.445C447.837 789.703 446.45 786.586 444.283 784.115C442.117 781.606 438.639 780.352 433.849 780.352C427.312 780.352 422.636 783.545 419.823 789.931C417.999 794.074 417.087 799.186 417.087 805.268C417.087 811.388 418.379 816.538 420.964 820.719C423.549 824.9 427.616 826.991 433.165 826.991C437.422 826.991 440.786 825.699 443.257 823.114C445.766 820.491 447.495 816.918 448.445 812.395H458.423C457.283 820.491 454.432 826.421 449.871 830.184C445.31 833.909 439.475 835.771 432.367 835.771C424.385 835.771 418.018 832.864 413.267 827.048C408.515 821.194 406.14 813.896 406.14 805.154C406.14 794.435 408.743 786.092 413.951 780.124C419.158 774.156 425.791 771.172 433.849 771.172Z" fill="black"/>
<path d="M468.686 773.225H479.12V834.004H468.686V773.225ZM468.686 750.248H479.12V761.879H468.686V750.248Z" fill="black"/>
<path d="M502.553 817.754C502.553 820.719 503.637 823.057 505.803 824.767C507.97 826.478 510.536 827.333 513.501 827.333C517.112 827.333 520.609 826.497 523.991 824.824C529.693 822.05 532.544 817.507 532.544 811.198V802.93C531.29 803.728 529.674 804.394 527.698 804.926C525.721 805.458 523.782 805.838 521.882 806.066L515.667 806.864C511.942 807.358 509.148 808.138 507.286 809.202C504.131 810.988 502.553 813.839 502.553 817.754ZM527.412 797.001C529.769 796.697 531.347 795.708 532.145 794.036C532.601 793.124 532.829 791.812 532.829 790.102C532.829 786.605 531.575 784.077 529.066 782.519C526.595 780.922 523.041 780.124 518.404 780.124C513.044 780.124 509.243 781.568 507.001 784.457C505.746 786.054 504.929 788.429 504.549 791.584H494.97C495.16 784.058 497.593 778.832 502.268 775.905C506.982 772.94 512.436 771.457 518.632 771.457C525.816 771.457 531.651 772.826 536.136 775.563C540.583 778.299 542.807 782.557 542.807 788.334V823.513C542.807 824.577 543.016 825.433 543.434 826.079C543.89 826.725 544.821 827.048 546.228 827.048C546.684 827.048 547.197 827.029 547.767 826.991C548.337 826.915 548.945 826.82 549.592 826.706V834.289C547.995 834.745 546.779 835.03 545.943 835.144C545.106 835.258 543.966 835.315 542.522 835.315C538.987 835.315 536.421 834.061 534.824 831.552C533.988 830.222 533.399 828.34 533.057 825.908C530.966 828.644 527.964 831.02 524.049 833.035C520.133 835.049 515.819 836.056 511.106 836.056C505.442 836.056 500.805 834.346 497.194 830.925C493.621 827.466 491.835 823.152 491.835 817.982C491.835 812.319 493.602 807.929 497.137 804.812C500.672 801.695 505.309 799.775 511.049 799.053L527.412 797.001Z" fill="black"/>
<path d="M561.736 755.892H572.113V772.94H581.863V781.321H572.113V821.175C572.113 823.304 572.835 824.729 574.279 825.452C575.078 825.87 576.408 826.079 578.271 826.079C578.765 826.079 579.297 826.079 579.867 826.079C580.437 826.041 581.102 825.984 581.863 825.908V834.004C580.684 834.346 579.449 834.593 578.157 834.745C576.902 834.897 575.534 834.973 574.051 834.973C569.262 834.973 566.012 833.757 564.302 831.324C562.591 828.853 561.736 825.661 561.736 821.745V781.321H553.469V772.94H561.736V755.892Z" fill="black"/>
<path d="M592.182 773.225H602.616V834.004H592.182V773.225ZM592.182 750.248H602.616V761.879H592.182V750.248Z" fill="black"/>
<path d="M642.413 827.39C649.217 827.39 653.874 824.824 656.382 819.693C658.929 814.523 660.202 808.784 660.202 802.474C660.202 796.773 659.29 792.135 657.466 788.562C654.577 782.937 649.597 780.124 642.527 780.124C636.256 780.124 631.694 782.519 628.844 787.308C625.993 792.097 624.567 797.875 624.567 804.641C624.567 811.141 625.993 816.557 628.844 820.89C631.694 825.223 636.218 827.39 642.413 827.39ZM642.813 771.172C650.681 771.172 657.333 773.795 662.768 779.041C668.204 784.286 670.921 792.002 670.921 802.189C670.921 812.034 668.527 820.168 663.737 826.592C658.948 833.016 651.517 836.228 641.444 836.228C633.044 836.228 626.373 833.396 621.432 827.732C616.49 822.031 614.02 814.39 614.02 804.812C614.02 794.549 616.623 786.377 621.831 780.295C627.038 774.213 634.032 771.172 642.813 771.172Z" fill="black"/>
<path d="M683.18 772.94H692.93V781.606C695.818 778.033 698.878 775.468 702.109 773.909C705.34 772.351 708.932 771.572 712.885 771.572C721.551 771.572 727.405 774.593 730.446 780.637C732.118 783.944 732.955 788.676 732.955 794.834V834.004H722.521V795.518C722.521 791.793 721.97 788.79 720.867 786.51C719.043 782.709 715.736 780.808 710.946 780.808C708.514 780.808 706.518 781.055 704.96 781.549C702.147 782.386 699.676 784.058 697.548 786.567C695.837 788.581 694.716 790.672 694.184 792.838C693.69 794.967 693.443 798.027 693.443 802.018V834.004H683.18V772.94Z" fill="black"/>
</svg>
