<svg width="1677" height="1823" viewBox="0 0 1677 1823" fill="none" xmlns="http://www.w3.org/2000/svg">
<g filter="url(#filter0_f_119_1042)">
<path d="M1359.6 684.156H1155.6C1087.67 684.156 1032.6 739.225 1032.6 807.156V1011.16C1032.6 1079.09 1087.67 1134.16 1155.6 1134.16H1359.6C1427.53 1134.16 1482.6 1079.09 1482.6 1011.16V807.156C1482.6 739.225 1427.53 684.156 1359.6 684.156Z" fill="#DB19FA" fill-opacity="0.75"/>
<path d="M727.954 684.377H523.954C456.023 684.377 400.954 739.446 400.954 807.377V1011.38C400.954 1079.31 456.023 1134.38 523.954 1134.38H727.954C795.885 1134.38 850.954 1079.31 850.954 1011.38V807.377C850.954 739.446 795.885 684.377 727.954 684.377Z" fill="#F02313" fill-opacity="0.75"/>
<path d="M1108 844.554C1108 946.543 1025.32 1029.22 923.332 1029.22C821.343 1029.22 738.665 946.543 738.665 844.554C738.665 742.565 821.343 659.887 923.332 659.887C1025.32 659.887 1108 742.565 1108 844.554Z" fill="#FF5C00" fill-opacity="0.75"/>
<path d="M1047.17 400.125H843.166C775.235 400.125 720.166 455.194 720.166 523.125V727.125C720.166 795.056 775.235 850.125 843.166 850.125H1047.17C1115.1 850.125 1170.17 795.056 1170.17 727.125V523.125C1170.17 455.194 1115.1 400.125 1047.17 400.125Z" fill="#4322FF" fill-opacity="0.75"/>
<path d="M1065.67 972.221H861.665C793.734 972.221 738.665 1027.29 738.665 1095.22V1299.22C738.665 1367.15 793.734 1422.22 861.665 1422.22H1065.67C1133.6 1422.22 1188.67 1367.15 1188.67 1299.22V1095.22C1188.67 1027.29 1133.6 972.221 1065.67 972.221Z" fill="#FFD600" fill-opacity="0.75"/>
</g>
<defs>
<filter id="filter0_f_119_1042" x="0.954102" y="0.125122" width="1881.65" height="1822.1" filterUnits="userSpaceOnUse" color-interpolation-filters="sRGB">
<feFlood flood-opacity="0" result="BackgroundImageFix"/>
<feBlend mode="normal" in="SourceGraphic" in2="BackgroundImageFix" result="shape"/>
<feGaussianBlur stdDeviation="200" result="effect1_foregroundBlur_119_1042"/>
</filter>
</defs>
</svg>
