<svg width="761" height="761" viewBox="0 0 761 761" fill="none" xmlns="http://www.w3.org/2000/svg">
<path fill-rule="evenodd" clip-rule="evenodd" d="M661.135 380.499C661.135 225.509 535.491 99.8649 380.5 99.8649C225.51 99.8649 99.8656 225.509 99.8656 380.499C99.8656 535.49 225.51 661.134 380.5 661.134C535.491 661.134 661.135 535.49 661.135 380.499ZM500.592 381.131C500.592 314.457 446.542 260.407 379.868 260.407C313.195 260.407 259.145 314.457 259.145 381.131C259.145 447.804 313.195 501.854 379.868 501.854C446.542 501.854 500.592 447.804 500.592 381.131Z" fill="#333333"/>
<path d="M8.24134 431.98C3.54954 431.459 0 427.493 0 422.772L0 338.227C0 333.506 3.54953 329.541 8.24134 329.019L103.483 318.437C108.971 317.827 113.771 322.123 113.771 327.645L113.771 433.355C113.771 438.877 108.971 443.172 103.483 442.563L8.24134 431.98Z" fill="#333333"/>
<path d="M752.759 329.02C757.451 329.541 761 333.507 761 338.227V422.773C761 427.494 757.451 431.459 752.759 431.981L657.517 442.563C652.029 443.173 647.229 438.877 647.229 433.355V327.645C647.229 322.123 652.029 317.828 657.517 318.437L752.759 329.02Z" fill="#333333"/>
<path d="M431.981 752.759C431.46 757.45 427.494 761 422.773 761H338.228C333.507 761 329.541 757.45 329.02 752.759L318.437 657.517C317.828 652.029 322.123 647.229 327.645 647.229H433.356C438.877 647.229 443.173 652.029 442.563 657.517L431.981 752.759Z" fill="#333333"/>
<path d="M329.02 8.24128C329.541 3.54948 333.507 -3.24249e-05 338.227 -3.24249e-05H422.773C427.494 -3.24249e-05 431.459 3.54948 431.981 8.24128L442.563 103.483C443.173 108.971 438.877 113.771 433.355 113.771H327.645C322.123 113.771 317.827 108.971 318.437 103.483L329.02 8.24128Z" fill="#333333"/>
<path d="M153.676 680.13C149.99 683.079 144.676 682.784 141.338 679.446L81.555 619.663C78.217 616.325 77.9227 611.011 80.8717 607.325L140.735 532.496C144.184 528.184 150.616 527.828 154.52 531.733L229.269 606.481C233.173 610.385 232.817 616.817 228.505 620.266L153.676 680.13Z" fill="#333333"/>
<path d="M607.325 80.8701C611.011 77.9211 616.325 78.2154 619.663 81.5534L679.446 141.336C682.784 144.674 683.078 149.988 680.129 153.674L620.266 228.504C616.817 232.815 610.385 233.171 606.481 229.267L531.732 154.519C527.828 150.614 528.184 144.183 532.496 140.733L607.325 80.8701Z" fill="#333333"/>
<path d="M680.129 607.325C683.078 611.011 682.784 616.325 679.446 619.663L619.663 679.446C616.325 682.784 611.011 683.078 607.325 680.129L532.496 620.266C528.184 616.817 527.828 610.385 531.732 606.481L606.481 531.732C610.385 527.828 616.816 528.184 620.266 532.496L680.129 607.325Z" fill="#333333"/>
<path d="M80.8718 153.675C77.9228 149.989 78.2171 144.675 81.5551 141.336L141.338 81.5538C144.676 78.2158 149.99 77.9214 153.676 80.8704L228.505 140.734C232.817 144.183 233.173 150.615 229.269 154.519L154.52 229.267C150.616 233.172 144.184 232.816 140.735 228.504L80.8718 153.675Z" fill="#333333"/>
</svg>
