<svg width="1332" height="1141" viewBox="0 0 1332 1141" fill="none" xmlns="http://www.w3.org/2000/svg">
<path d="M0 422.772C0 427.493 3.54954 431.459 8.24134 431.98L103.483 442.563C104.597 442.686 105.683 442.608 106.706 442.358C113.836 474.052 126.328 503.717 143.179 530.349C142.271 530.897 141.441 531.614 140.735 532.496L80.8717 607.325C77.9227 611.011 78.217 616.325 81.555 619.663L141.338 679.446C144.676 682.784 149.99 683.079 153.676 680.13L228.505 620.266C229.387 619.56 230.104 618.73 230.653 617.822C257.284 634.672 286.949 647.164 318.642 654.294C318.392 655.317 318.314 656.403 318.437 657.517L329.02 752.759C329.541 757.45 333.507 761 338.228 761H422.773C427.494 761 431.46 757.45 431.981 752.759L442.563 657.517C442.687 656.403 442.609 655.317 442.359 654.294C474.052 647.164 503.716 634.672 530.348 617.821C530.897 618.73 531.613 619.56 532.496 620.266L607.325 680.129C611.011 683.078 616.325 682.784 619.663 679.446L679.446 619.663C682.784 616.325 683.078 611.011 680.129 607.325L620.266 532.496C619.56 531.614 618.73 530.897 617.821 530.349C634.673 503.717 647.165 474.052 654.295 442.359C655.317 442.609 656.403 442.687 657.517 442.563L752.759 431.981C757.451 431.459 761 427.494 761 422.773V338.228C761 333.507 757.451 329.541 752.759 329.02L657.517 318.437C656.403 318.314 655.318 318.392 654.295 318.641C647.165 286.948 634.673 257.283 617.822 230.651C618.73 230.102 619.56 229.386 620.266 228.504L680.129 153.674C683.078 149.988 682.784 144.674 679.446 141.336L619.663 81.5534C616.325 78.2154 611.011 77.9211 607.325 80.8701L532.496 140.733C531.614 141.439 530.897 142.27 530.349 143.178C503.717 126.327 474.052 113.835 442.359 106.705C442.608 105.682 442.687 104.597 442.563 103.483L431.981 8.24127C431.459 3.5495 427.493 -6.10352e-05 422.773 -6.10352e-05H338.227C333.507 -6.10352e-05 329.541 3.5495 329.02 8.24127L318.437 103.483C318.313 104.597 318.392 105.682 318.641 106.705C286.948 113.835 257.284 126.327 230.652 143.178C230.104 142.27 229.387 141.439 228.505 140.734L153.676 80.8704C149.99 77.9214 144.676 78.2158 141.338 81.5538L81.5551 141.336C78.2171 144.674 77.9228 149.989 80.8718 153.675L140.735 228.504C141.441 229.386 142.271 230.102 143.179 230.651C126.327 257.283 113.835 286.947 106.706 318.641C105.683 318.391 104.597 318.313 103.483 318.437L8.24134 329.019C3.54953 329.541 0 333.506 0 338.227L0 422.772ZM379.868 260.407C446.542 260.407 500.592 314.457 500.592 381.131C500.592 447.804 446.542 501.854 379.868 501.854C313.195 501.854 259.145 447.804 259.145 381.131C259.145 314.457 313.195 260.407 379.868 260.407Z" fill="#333333"/>
<path d="M0 422.772C0 427.493 3.54954 431.459 8.24134 431.98L103.483 442.563C104.597 442.686 105.683 442.608 106.706 442.358C113.836 474.052 126.328 503.717 143.179 530.349C142.271 530.897 141.441 531.614 140.735 532.496L80.8717 607.325C77.9227 611.011 78.217 616.325 81.555 619.663L141.338 679.446C144.676 682.784 149.99 683.079 153.676 680.13L228.505 620.266C229.387 619.56 230.104 618.73 230.653 617.822C257.284 634.672 286.949 647.164 318.642 654.294C318.392 655.317 318.314 656.403 318.437 657.517L329.02 752.759C329.541 757.45 333.507 761 338.228 761H422.773C427.494 761 431.46 757.45 431.981 752.759L442.563 657.517C442.687 656.403 442.609 655.317 442.359 654.294C474.052 647.164 503.716 634.672 530.348 617.821C530.897 618.73 531.613 619.56 532.496 620.266L607.325 680.129C611.011 683.078 616.325 682.784 619.663 679.446L679.446 619.663C682.784 616.325 683.078 611.011 680.129 607.325L620.266 532.496C619.56 531.614 618.73 530.897 617.821 530.349C634.673 503.717 647.165 474.052 654.295 442.359C655.317 442.609 656.403 442.687 657.517 442.563L752.759 431.981C757.451 431.459 761 427.494 761 422.773V338.228C761 333.507 757.451 329.541 752.759 329.02L657.517 318.437C656.403 318.314 655.318 318.392 654.295 318.641C647.165 286.948 634.673 257.283 617.822 230.651C618.73 230.102 619.56 229.386 620.266 228.504L680.129 153.674C683.078 149.988 682.784 144.674 679.446 141.336L619.663 81.5534C616.325 78.2154 611.011 77.9211 607.325 80.8701L532.496 140.733C531.614 141.439 530.897 142.27 530.349 143.178C503.717 126.327 474.052 113.835 442.359 106.705C442.608 105.682 442.687 104.597 442.563 103.483L431.981 8.24127C431.459 3.5495 427.493 -6.10352e-05 422.773 -6.10352e-05H338.227C333.507 -6.10352e-05 329.541 3.5495 329.02 8.24127L318.437 103.483C318.313 104.597 318.392 105.682 318.641 106.705C286.948 113.835 257.284 126.327 230.652 143.178C230.104 142.27 229.387 141.439 228.505 140.734L153.676 80.8704C149.99 77.9214 144.676 78.2158 141.338 81.5538L81.5551 141.336C78.2171 144.674 77.9228 149.989 80.8718 153.675L140.735 228.504C141.441 229.386 142.271 230.102 143.179 230.651C126.327 257.283 113.835 286.947 106.706 318.641C105.683 318.391 104.597 318.313 103.483 318.437L8.24134 329.019C3.54953 329.541 0 333.506 0 338.227L0 422.772ZM379.868 260.407C446.542 260.407 500.592 314.457 500.592 381.131C500.592 447.804 446.542 501.854 379.868 501.854C313.195 501.854 259.145 447.804 259.145 381.131C259.145 314.457 313.195 260.407 379.868 260.407Z" stroke="white"/>
<path d="M571 802.772C571 807.493 574.55 811.459 579.241 811.98L674.483 822.563C675.597 822.686 676.683 822.608 677.706 822.358C684.836 854.052 697.328 883.717 714.179 910.349C713.271 910.897 712.441 911.614 711.735 912.496L651.872 987.325C648.923 991.011 649.217 996.325 652.555 999.663L712.338 1059.45C715.676 1062.78 720.99 1063.08 724.676 1060.13L799.505 1000.27C800.387 999.56 801.104 998.73 801.653 997.822C828.284 1014.67 857.949 1027.16 889.642 1034.29C889.392 1035.32 889.314 1036.4 889.437 1037.52L900.02 1132.76C900.541 1137.45 904.507 1141 909.228 1141H993.773C998.494 1141 1002.46 1137.45 1002.98 1132.76L1013.56 1037.52C1013.69 1036.4 1013.61 1035.32 1013.36 1034.29C1045.05 1027.16 1074.72 1014.67 1101.35 997.821C1101.9 998.73 1102.61 999.56 1103.5 1000.27L1178.32 1060.13C1182.01 1063.08 1187.33 1062.78 1190.66 1059.45L1250.45 999.663C1253.78 996.325 1254.08 991.011 1251.13 987.325L1191.27 912.496C1190.56 911.614 1189.73 910.897 1188.82 910.349C1205.67 883.717 1218.16 854.052 1225.29 822.359C1226.32 822.609 1227.4 822.687 1228.52 822.563L1323.76 811.981C1328.45 811.459 1332 807.494 1332 802.773V718.228C1332 713.507 1328.45 709.541 1323.76 709.02L1228.52 698.437C1227.4 698.314 1226.32 698.392 1225.29 698.641C1218.17 666.948 1205.67 637.283 1188.82 610.651C1189.73 610.102 1190.56 609.386 1191.27 608.504L1251.13 533.674C1254.08 529.988 1253.78 524.674 1250.45 521.336L1190.66 461.553C1187.33 458.215 1182.01 457.921 1178.32 460.87L1103.5 520.733C1102.61 521.439 1101.9 522.27 1101.35 523.178C1074.72 506.327 1045.05 493.835 1013.36 486.705C1013.61 485.682 1013.69 484.597 1013.56 483.483L1002.98 388.241C1002.46 383.549 998.493 380 993.773 380H909.227C904.507 380 900.541 383.549 900.02 388.241L889.437 483.483C889.313 484.597 889.392 485.682 889.641 486.705C857.948 493.835 828.284 506.327 801.652 523.178C801.104 522.27 800.387 521.439 799.505 520.734L724.676 460.87C720.99 457.921 715.676 458.216 712.338 461.554L652.555 521.336C649.217 524.674 648.923 529.989 651.872 533.675L711.735 608.504C712.441 609.386 713.271 610.102 714.179 610.651C697.327 637.283 684.835 666.947 677.706 698.641C676.683 698.391 675.597 698.313 674.483 698.437L579.241 709.019C574.55 709.541 571 713.506 571 718.227V802.772ZM950.868 640.407C1017.54 640.407 1071.59 694.457 1071.59 761.131C1071.59 827.804 1017.54 881.854 950.868 881.854C884.195 881.854 830.145 827.804 830.145 761.131C830.145 694.457 884.195 640.407 950.868 640.407Z" fill="#333333"/>
<path d="M571 802.772C571 807.493 574.55 811.459 579.241 811.98L674.483 822.563C675.597 822.686 676.683 822.608 677.706 822.358C684.836 854.052 697.328 883.717 714.179 910.349C713.271 910.897 712.441 911.614 711.735 912.496L651.872 987.325C648.923 991.011 649.217 996.325 652.555 999.663L712.338 1059.45C715.676 1062.78 720.99 1063.08 724.676 1060.13L799.505 1000.27C800.387 999.56 801.104 998.73 801.653 997.822C828.284 1014.67 857.949 1027.16 889.642 1034.29C889.392 1035.32 889.314 1036.4 889.437 1037.52L900.02 1132.76C900.541 1137.45 904.507 1141 909.228 1141H993.773C998.494 1141 1002.46 1137.45 1002.98 1132.76L1013.56 1037.52C1013.69 1036.4 1013.61 1035.32 1013.36 1034.29C1045.05 1027.16 1074.72 1014.67 1101.35 997.821C1101.9 998.73 1102.61 999.56 1103.5 1000.27L1178.32 1060.13C1182.01 1063.08 1187.33 1062.78 1190.66 1059.45L1250.45 999.663C1253.78 996.325 1254.08 991.011 1251.13 987.325L1191.27 912.496C1190.56 911.614 1189.73 910.897 1188.82 910.349C1205.67 883.717 1218.16 854.052 1225.29 822.359C1226.32 822.609 1227.4 822.687 1228.52 822.563L1323.76 811.981C1328.45 811.459 1332 807.494 1332 802.773V718.228C1332 713.507 1328.45 709.541 1323.76 709.02L1228.52 698.437C1227.4 698.314 1226.32 698.392 1225.29 698.641C1218.17 666.948 1205.67 637.283 1188.82 610.651C1189.73 610.102 1190.56 609.386 1191.27 608.504L1251.13 533.674C1254.08 529.988 1253.78 524.674 1250.45 521.336L1190.66 461.553C1187.33 458.215 1182.01 457.921 1178.32 460.87L1103.5 520.733C1102.61 521.439 1101.9 522.27 1101.35 523.178C1074.72 506.327 1045.05 493.835 1013.36 486.705C1013.61 485.682 1013.69 484.597 1013.56 483.483L1002.98 388.241C1002.46 383.549 998.493 380 993.773 380H909.227C904.507 380 900.541 383.549 900.02 388.241L889.437 483.483C889.313 484.597 889.392 485.682 889.641 486.705C857.948 493.835 828.284 506.327 801.652 523.178C801.104 522.27 800.387 521.439 799.505 520.734L724.676 460.87C720.99 457.921 715.676 458.216 712.338 461.554L652.555 521.336C649.217 524.674 648.923 529.989 651.872 533.675L711.735 608.504C712.441 609.386 713.271 610.102 714.179 610.651C697.327 637.283 684.835 666.947 677.706 698.641C676.683 698.391 675.597 698.313 674.483 698.437L579.241 709.019C574.55 709.541 571 713.506 571 718.227V802.772ZM950.868 640.407C1017.54 640.407 1071.59 694.457 1071.59 761.131C1071.59 827.804 1017.54 881.854 950.868 881.854C884.195 881.854 830.145 827.804 830.145 761.131C830.145 694.457 884.195 640.407 950.868 640.407Z" stroke="white"/>
</svg>
