<svg width="1706" height="204" viewBox="0 0 1706 204" fill="none" xmlns="http://www.w3.org/2000/svg">
<path fill-rule="evenodd" clip-rule="evenodd" d="M0 0H1706V204H0V0ZM621.367 64.1129C623.003 66.5372 624.322 69.2796 625.322 72.3402H636.958C636.109 67.8251 634.564 63.719 632.322 60.022C630.079 56.2947 627.276 53.0978 623.912 50.4311C620.579 47.7341 616.776 45.6584 612.503 44.2038C608.261 42.719 603.685 41.9766 598.776 41.9766C592.806 41.9766 587.337 43.0826 582.367 45.2947C577.397 47.5069 573.094 50.6887 569.458 54.8402C565.822 58.9917 563.003 64.022 561.003 69.9311C559.034 75.8099 558.049 82.4311 558.049 89.7947C558.049 99.6129 559.776 108.098 563.231 115.249C566.716 122.401 571.564 127.916 577.776 131.795C584.019 135.674 591.261 137.613 599.503 137.613C606.897 137.613 613.443 136.067 619.14 132.977C624.867 129.855 629.352 125.461 632.594 119.795C635.867 114.128 637.503 107.461 637.503 99.7947V89.7947H602.049V99.7947H626.588C626.494 105.187 625.344 109.899 623.14 113.931C620.867 118.113 617.685 121.355 613.594 123.658C609.534 125.931 604.837 127.067 599.503 127.067C593.746 127.067 588.564 125.643 583.958 122.795C579.352 119.946 575.7 115.749 573.003 110.204C570.306 104.658 568.958 97.8554 568.958 89.7947C568.958 81.7341 570.291 74.9311 572.958 69.3857C575.625 63.8402 579.216 59.6432 583.731 56.7947C588.246 53.9463 593.261 52.522 598.776 52.522C602.14 52.522 605.231 52.9766 608.049 53.8857C610.867 54.7947 613.382 56.1129 615.594 57.8402C617.837 59.5675 619.761 61.6584 621.367 64.1129ZM663.856 135.477C667.462 137.143 671.477 137.977 675.901 137.977C679.962 137.977 683.401 137.371 686.219 136.158C689.037 134.946 691.295 133.477 692.992 131.749C694.689 130.022 695.901 128.401 696.628 126.886H697.174V136.34H707.901V90.3402C707.901 84.7947 706.992 80.3705 705.174 77.0675C703.356 73.7644 701.068 71.2947 698.31 69.6584C695.583 68.022 692.75 66.9463 689.81 66.4311C686.901 65.8857 684.325 65.6129 682.083 65.6129C678.568 65.6129 674.992 66.0978 671.356 67.0675C667.75 68.0069 664.416 69.6735 661.356 72.0675C658.325 74.4311 655.901 77.7341 654.083 81.9766L664.265 85.6129C665.447 83.0675 667.492 80.6735 670.401 78.4311C673.31 76.1887 677.325 75.0675 682.447 75.0675C687.386 75.0675 691.068 76.3099 693.492 78.7947C695.947 81.2796 697.174 84.7644 697.174 89.2493V89.6129C697.174 91.3402 696.553 92.5523 695.31 93.2493C694.098 93.9463 692.159 94.4463 689.492 94.7493C686.856 95.022 683.416 95.4311 679.174 95.9766C675.931 96.4008 672.704 96.9766 669.492 97.7038C666.31 98.4008 663.401 99.4614 660.765 100.886C658.128 102.31 656.022 104.28 654.447 106.795C652.871 109.28 652.083 112.522 652.083 116.522C652.083 121.067 653.144 124.946 655.265 128.158C657.386 131.34 660.25 133.78 663.856 135.477ZM688.265 125.84C685.356 127.507 681.78 128.34 677.537 128.34C673.265 128.34 669.734 127.401 666.947 125.522C664.189 123.613 662.81 120.795 662.81 117.067C662.81 114.34 663.537 112.189 664.992 110.613C666.477 109.007 668.416 107.81 670.81 107.022C673.234 106.204 675.841 105.613 678.628 105.249C679.78 105.098 681.28 104.916 683.128 104.704C685.007 104.461 686.931 104.189 688.901 103.886C690.901 103.552 692.659 103.174 694.174 102.749C695.719 102.295 696.719 101.795 697.174 101.249V111.067C697.174 113.977 696.416 116.749 694.901 119.386C693.416 122.022 691.204 124.174 688.265 125.84ZM738.208 43.2493V136.34H727.481V43.2493H738.208ZM768.583 136.34V43.2493H757.856V136.34H768.583ZM817.503 137.795C810.776 137.795 804.973 136.31 800.094 133.34C795.246 130.34 791.503 126.158 788.867 120.795C786.261 115.401 784.958 109.128 784.958 101.977C784.958 94.8251 786.261 88.522 788.867 83.0675C791.503 77.5826 795.17 73.3099 799.867 70.2493C804.594 67.1584 810.109 65.6129 816.412 65.6129C820.049 65.6129 823.64 66.219 827.185 67.4311C830.731 68.6432 833.958 70.6129 836.867 73.3402C839.776 76.0372 842.094 79.6129 843.822 84.0675C845.549 88.522 846.412 94.0069 846.412 100.522V105.067H795.709C795.863 109.713 796.764 113.697 798.412 117.022C800.261 120.658 802.822 123.431 806.094 125.34C809.367 127.219 813.17 128.158 817.503 128.158C820.322 128.158 822.867 127.764 825.14 126.977C827.443 126.158 829.428 124.946 831.094 123.34C832.761 121.704 834.049 119.674 834.958 117.249L845.322 120.158C844.231 123.674 842.397 126.764 839.822 129.431C837.246 132.067 834.064 134.128 830.276 135.613C826.488 137.067 822.231 137.795 817.503 137.795ZM798.185 86.6129C796.757 89.4955 795.941 92.5561 795.736 95.7947H835.503C835.503 91.8554 834.716 88.3402 833.14 85.2493C831.594 82.1584 829.382 79.719 826.503 77.9311C823.655 76.1432 820.291 75.2493 816.412 75.2493C812.14 75.2493 808.443 76.3099 805.322 78.4311C802.231 80.522 799.852 83.2493 798.185 86.6129ZM862.731 66.522V136.34H873.458V92.1584C873.458 89.0069 874.216 86.2038 875.731 83.7493C877.276 81.2644 879.367 79.3251 882.003 77.9311C884.67 76.5069 887.7 75.7947 891.094 75.7947C892.519 75.7947 893.867 75.9008 895.14 76.1129C896.443 76.2947 897.276 76.4311 897.64 76.522V65.6129C897.034 65.5523 896.14 65.5069 894.958 65.4766C893.776 65.4463 892.791 65.4311 892.003 65.4311C887.822 65.4311 884.064 66.5069 880.731 68.6584C877.397 70.8099 875.094 73.6129 873.822 77.0675H873.094V66.522H862.731ZM919.39 162.522C917.572 162.522 915.95 162.37 914.526 162.067C913.102 161.795 912.117 161.522 911.572 161.249L914.299 151.795C916.905 152.461 919.208 152.704 921.208 152.522C923.208 152.34 924.981 151.446 926.526 149.84C928.102 148.264 929.541 145.704 930.844 142.158L932.844 136.704L907.026 66.522H918.662L937.935 122.158H938.662L957.935 66.522H969.572L939.935 146.522C938.602 150.128 936.95 153.113 934.981 155.477C933.011 157.87 930.723 159.643 928.117 160.795C925.541 161.946 922.632 162.522 919.39 162.522ZM1180.46 86.5002L1190 95.9999L1180.46 105.5L1151.84 134L1142.3 124.5L1164.17 102.717H1048V89.2824H1164.17L1142.3 67.5L1151.84 58L1180.46 86.5002Z" fill="#161616"/>
</svg>
