<svg width="108" height="108" viewBox="0 0 108 108" fill="none" xmlns="http://www.w3.org/2000/svg">
<path fill-rule="evenodd" clip-rule="evenodd" d="M2 4C3.10457 4 4 3.10457 4 2C4 0.895431 3.10457 0 2 0C0.895431 0 0 0.895431 0 2C0 3.10457 0.895431 4 2 4ZM10 4C11.1046 4 12 3.10457 12 2C12 0.895431 11.1046 0 10 0C8.89543 0 8 0.895431 8 2C8 3.10457 8.89543 4 10 4ZM20 2C20 3.10457 19.1046 4 18 4C16.8954 4 16 3.10457 16 2C16 0.895431 16.8954 0 18 0C19.1046 0 20 0.895431 20 2ZM2 12C3.10457 12 4 11.1046 4 10C4 8.89543 3.10457 8 2 8C0.895431 8 0 8.89543 0 10C0 11.1046 0.895431 12 2 12ZM4 18C4 19.1046 3.10457 20 2 20C0.895431 20 0 19.1046 0 18C0 16.8954 0.895431 16 2 16C3.10457 16 4 16.8954 4 18ZM10 12C11.1046 12 12 11.1046 12 10C12 8.89543 11.1046 8 10 8C8.89543 8 8 8.89543 8 10C8 11.1046 8.89543 12 10 12ZM20 10C20 11.1046 19.1046 12 18 12C16.8954 12 16 11.1046 16 10C16 8.89543 16.8954 8 18 8C19.1046 8 20 8.89543 20 10ZM10 20C11.1046 20 12 19.1046 12 18C12 16.8954 11.1046 16 10 16C8.89543 16 8 16.8954 8 18C8 19.1046 8.89543 20 10 20ZM20 18C20 19.1046 19.1046 20 18 20C16.8954 20 16 19.1046 16 18C16 16.8954 16.8954 16 18 16C19.1046 16 20 16.8954 20 18ZM26 4C27.1046 4 28 3.10457 28 2C28 0.895431 27.1046 0 26 0C24.8954 0 24 0.895431 24 2C24 3.10457 24.8954 4 26 4ZM36 2C36 3.10457 35.1046 4 34 4C32.8954 4 32 3.10457 32 2C32 0.895431 32.8954 0 34 0C35.1046 0 36 0.895431 36 2ZM42 4C43.1046 4 44 3.10457 44 2C44 0.895431 43.1046 0 42 0C40.8954 0 40 0.895431 40 2C40 3.10457 40.8954 4 42 4ZM52 2C52 3.10457 51.1046 4 50 4C48.8954 4 48 3.10457 48 2C48 0.895431 48.8954 0 50 0C51.1046 0 52 0.895431 52 2ZM26 12C27.1046 12 28 11.1046 28 10C28 8.89543 27.1046 8 26 8C24.8954 8 24 8.89543 24 10C24 11.1046 24.8954 12 26 12ZM36 10C36 11.1046 35.1046 12 34 12C32.8954 12 32 11.1046 32 10C32 8.89543 32.8954 8 34 8C35.1046 8 36 8.89543 36 10ZM26 20C27.1046 20 28 19.1046 28 18C28 16.8954 27.1046 16 26 16C24.8954 16 24 16.8954 24 18C24 19.1046 24.8954 20 26 20ZM36 18C36 19.1046 35.1046 20 34 20C32.8954 20 32 19.1046 32 18C32 16.8954 32.8954 16 34 16C35.1046 16 36 16.8954 36 18ZM42 12C43.1046 12 44 11.1046 44 10C44 8.89543 43.1046 8 42 8C40.8954 8 40 8.89543 40 10C40 11.1046 40.8954 12 42 12ZM52 10C52 11.1046 51.1046 12 50 12C48.8954 12 48 11.1046 48 10C48 8.89543 48.8954 8 50 8C51.1046 8 52 8.89543 52 10ZM42 20C43.1046 20 44 19.1046 44 18C44 16.8954 43.1046 16 42 16C40.8954 16 40 16.8954 40 18C40 19.1046 40.8954 20 42 20ZM52 18C52 19.1046 51.1046 20 50 20C48.8954 20 48 19.1046 48 18C48 16.8954 48.8954 16 50 16C51.1046 16 52 16.8954 52 18ZM2 28C3.10457 28 4 27.1046 4 26C4 24.8954 3.10457 24 2 24C0.895431 24 0 24.8954 0 26C0 27.1046 0.895431 28 2 28ZM4 34C4 35.1046 3.10457 36 2 36C0.895431 36 0 35.1046 0 34C0 32.8954 0.895431 32 2 32C3.10457 32 4 32.8954 4 34ZM10 28C11.1046 28 12 27.1046 12 26C12 24.8954 11.1046 24 10 24C8.89543 24 8 24.8954 8 26C8 27.1046 8.89543 28 10 28ZM20 26C20 27.1046 19.1046 28 18 28C16.8954 28 16 27.1046 16 26C16 24.8954 16.8954 24 18 24C19.1046 24 20 24.8954 20 26ZM10 36C11.1046 36 12 35.1046 12 34C12 32.8954 11.1046 32 10 32C8.89543 32 8 32.8954 8 34C8 35.1046 8.89543 36 10 36ZM20 34C20 35.1046 19.1046 36 18 36C16.8954 36 16 35.1046 16 34C16 32.8954 16.8954 32 18 32C19.1046 32 20 32.8954 20 34ZM2 44C3.10457 44 4 43.1046 4 42C4 40.8954 3.10457 40 2 40C0.895431 40 0 40.8954 0 42C0 43.1046 0.895431 44 2 44ZM4 50C4 51.1046 3.10457 52 2 52C0.895431 52 0 51.1046 0 50C0 48.8954 0.895431 48 2 48C3.10457 48 4 48.8954 4 50ZM10 44C11.1046 44 12 43.1046 12 42C12 40.8954 11.1046 40 10 40C8.89543 40 8 40.8954 8 42C8 43.1046 8.89543 44 10 44ZM20 42C20 43.1046 19.1046 44 18 44C16.8954 44 16 43.1046 16 42C16 40.8954 16.8954 40 18 40C19.1046 40 20 40.8954 20 42ZM10 52C11.1046 52 12 51.1046 12 50C12 48.8954 11.1046 48 10 48C8.89543 48 8 48.8954 8 50C8 51.1046 8.89543 52 10 52ZM20 50C20 51.1046 19.1046 52 18 52C16.8954 52 16 51.1046 16 50C16 48.8954 16.8954 48 18 48C19.1046 48 20 48.8954 20 50ZM26 28C27.1046 28 28 27.1046 28 26C28 24.8954 27.1046 24 26 24C24.8954 24 24 24.8954 24 26C24 27.1046 24.8954 28 26 28ZM36 26C36 27.1046 35.1046 28 34 28C32.8954 28 32 27.1046 32 26C32 24.8954 32.8954 24 34 24C35.1046 24 36 24.8954 36 26ZM26 36C27.1046 36 28 35.1046 28 34C28 32.8954 27.1046 32 26 32C24.8954 32 24 32.8954 24 34C24 35.1046 24.8954 36 26 36ZM36 34C36 35.1046 35.1046 36 34 36C32.8954 36 32 35.1046 32 34C32 32.8954 32.8954 32 34 32C35.1046 32 36 32.8954 36 34ZM42 28C43.1046 28 44 27.1046 44 26C44 24.8954 43.1046 24 42 24C40.8954 24 40 24.8954 40 26C40 27.1046 40.8954 28 42 28ZM52 26C52 27.1046 51.1046 28 50 28C48.8954 28 48 27.1046 48 26C48 24.8954 48.8954 24 50 24C51.1046 24 52 24.8954 52 26ZM42 36C43.1046 36 44 35.1046 44 34C44 32.8954 43.1046 32 42 32C40.8954 32 40 32.8954 40 34C40 35.1046 40.8954 36 42 36ZM52 34C52 35.1046 51.1046 36 50 36C48.8954 36 48 35.1046 48 34C48 32.8954 48.8954 32 50 32C51.1046 32 52 32.8954 52 34ZM26 44C27.1046 44 28 43.1046 28 42C28 40.8954 27.1046 40 26 40C24.8954 40 24 40.8954 24 42C24 43.1046 24.8954 44 26 44ZM36 42C36 43.1046 35.1046 44 34 44C32.8954 44 32 43.1046 32 42C32 40.8954 32.8954 40 34 40C35.1046 40 36 40.8954 36 42ZM26 52C27.1046 52 28 51.1046 28 50C28 48.8954 27.1046 48 26 48C24.8954 48 24 48.8954 24 50C24 51.1046 24.8954 52 26 52ZM36 50C36 51.1046 35.1046 52 34 52C32.8954 52 32 51.1046 32 50C32 48.8954 32.8954 48 34 48C35.1046 48 36 48.8954 36 50ZM42 44C43.1046 44 44 43.1046 44 42C44 40.8954 43.1046 40 42 40C40.8954 40 40 40.8954 40 42C40 43.1046 40.8954 44 42 44ZM52 42C52 43.1046 51.1046 44 50 44C48.8954 44 48 43.1046 48 42C48 40.8954 48.8954 40 50 40C51.1046 40 52 40.8954 52 42ZM42 52C43.1046 52 44 51.1046 44 50C44 48.8954 43.1046 48 42 48C40.8954 48 40 48.8954 40 50C40 51.1046 40.8954 52 42 52ZM52 50C52 51.1046 51.1046 52 50 52C48.8954 52 48 51.1046 48 50C48 48.8954 48.8954 48 50 48C51.1046 48 52 48.8954 52 50ZM58 4C59.1046 4 60 3.10457 60 2C60 0.895431 59.1046 0 58 0C56.8954 0 56 0.895431 56 2C56 3.10457 56.8954 4 58 4ZM68 2C68 3.10457 67.1046 4 66 4C64.8954 4 64 3.10457 64 2C64 0.895431 64.8954 0 66 0C67.1046 0 68 0.895431 68 2ZM74 4C75.1046 4 76 3.10457 76 2C76 0.895431 75.1046 0 74 0C72.8954 0 72 0.895431 72 2C72 3.10457 72.8954 4 74 4ZM84 2C84 3.10457 83.1046 4 82 4C80.8954 4 80 3.10457 80 2C80 0.895431 80.8954 0 82 0C83.1046 0 84 0.895431 84 2ZM58 12C59.1046 12 60 11.1046 60 10C60 8.89543 59.1046 8 58 8C56.8954 8 56 8.89543 56 10C56 11.1046 56.8954 12 58 12ZM68 10C68 11.1046 67.1046 12 66 12C64.8954 12 64 11.1046 64 10C64 8.89543 64.8954 8 66 8C67.1046 8 68 8.89543 68 10ZM58 20C59.1046 20 60 19.1046 60 18C60 16.8954 59.1046 16 58 16C56.8954 16 56 16.8954 56 18C56 19.1046 56.8954 20 58 20ZM68 18C68 19.1046 67.1046 20 66 20C64.8954 20 64 19.1046 64 18C64 16.8954 64.8954 16 66 16C67.1046 16 68 16.8954 68 18ZM74 12C75.1046 12 76 11.1046 76 10C76 8.89543 75.1046 8 74 8C72.8954 8 72 8.89543 72 10C72 11.1046 72.8954 12 74 12ZM84 10C84 11.1046 83.1046 12 82 12C80.8954 12 80 11.1046 80 10C80 8.89543 80.8954 8 82 8C83.1046 8 84 8.89543 84 10ZM74 20C75.1046 20 76 19.1046 76 18C76 16.8954 75.1046 16 74 16C72.8954 16 72 16.8954 72 18C72 19.1046 72.8954 20 74 20ZM84 18C84 19.1046 83.1046 20 82 20C80.8954 20 80 19.1046 80 18C80 16.8954 80.8954 16 82 16C83.1046 16 84 16.8954 84 18ZM90 4C91.1046 4 92 3.10457 92 2C92 0.895431 91.1046 0 90 0C88.8954 0 88 0.895431 88 2C88 3.10457 88.8954 4 90 4ZM100 2C100 3.10457 99.1046 4 98 4C96.8954 4 96 3.10457 96 2C96 0.895431 96.8954 0 98 0C99.1046 0 100 0.895431 100 2ZM106 4C107.105 4 108 3.10457 108 2C108 0.895431 107.105 0 106 0C104.895 0 104 0.895431 104 2C104 3.10457 104.895 4 106 4ZM92 10C92 11.1046 91.1046 12 90 12C88.8954 12 88 11.1046 88 10C88 8.89543 88.8954 8 90 8C91.1046 8 92 8.89543 92 10ZM98 12C99.1046 12 100 11.1046 100 10C100 8.89543 99.1046 8 98 8C96.8954 8 96 8.89543 96 10C96 11.1046 96.8954 12 98 12ZM92 18C92 19.1046 91.1046 20 90 20C88.8954 20 88 19.1046 88 18C88 16.8954 88.8954 16 90 16C91.1046 16 92 16.8954 92 18ZM98 20C99.1046 20 100 19.1046 100 18C100 16.8954 99.1046 16 98 16C96.8954 16 96 16.8954 96 18C96 19.1046 96.8954 20 98 20ZM108 10C108 11.1046 107.105 12 106 12C104.895 12 104 11.1046 104 10C104 8.89543 104.895 8 106 8C107.105 8 108 8.89543 108 10ZM106 20C107.105 20 108 19.1046 108 18C108 16.8954 107.105 16 106 16C104.895 16 104 16.8954 104 18C104 19.1046 104.895 20 106 20ZM60 26C60 27.1046 59.1046 28 58 28C56.8954 28 56 27.1046 56 26C56 24.8954 56.8954 24 58 24C59.1046 24 60 24.8954 60 26ZM66 28C67.1046 28 68 27.1046 68 26C68 24.8954 67.1046 24 66 24C64.8954 24 64 24.8954 64 26C64 27.1046 64.8954 28 66 28ZM60 34C60 35.1046 59.1046 36 58 36C56.8954 36 56 35.1046 56 34C56 32.8954 56.8954 32 58 32C59.1046 32 60 32.8954 60 34ZM66 36C67.1046 36 68 35.1046 68 34C68 32.8954 67.1046 32 66 32C64.8954 32 64 32.8954 64 34C64 35.1046 64.8954 36 66 36ZM76 26C76 27.1046 75.1046 28 74 28C72.8954 28 72 27.1046 72 26C72 24.8954 72.8954 24 74 24C75.1046 24 76 24.8954 76 26ZM82 28C83.1046 28 84 27.1046 84 26C84 24.8954 83.1046 24 82 24C80.8954 24 80 24.8954 80 26C80 27.1046 80.8954 28 82 28ZM76 34C76 35.1046 75.1046 36 74 36C72.8954 36 72 35.1046 72 34C72 32.8954 72.8954 32 74 32C75.1046 32 76 32.8954 76 34ZM82 36C83.1046 36 84 35.1046 84 34C84 32.8954 83.1046 32 82 32C80.8954 32 80 32.8954 80 34C80 35.1046 80.8954 36 82 36ZM60 42C60 43.1046 59.1046 44 58 44C56.8954 44 56 43.1046 56 42C56 40.8954 56.8954 40 58 40C59.1046 40 60 40.8954 60 42ZM66 44C67.1046 44 68 43.1046 68 42C68 40.8954 67.1046 40 66 40C64.8954 40 64 40.8954 64 42C64 43.1046 64.8954 44 66 44ZM60 50C60 51.1046 59.1046 52 58 52C56.8954 52 56 51.1046 56 50C56 48.8954 56.8954 48 58 48C59.1046 48 60 48.8954 60 50ZM66 52C67.1046 52 68 51.1046 68 50C68 48.8954 67.1046 48 66 48C64.8954 48 64 48.8954 64 50C64 51.1046 64.8954 52 66 52ZM76 42C76 43.1046 75.1046 44 74 44C72.8954 44 72 43.1046 72 42C72 40.8954 72.8954 40 74 40C75.1046 40 76 40.8954 76 42ZM82 44C83.1046 44 84 43.1046 84 42C84 40.8954 83.1046 40 82 40C80.8954 40 80 40.8954 80 42C80 43.1046 80.8954 44 82 44ZM76 50C76 51.1046 75.1046 52 74 52C72.8954 52 72 51.1046 72 50C72 48.8954 72.8954 48 74 48C75.1046 48 76 48.8954 76 50ZM82 52C83.1046 52 84 51.1046 84 50C84 48.8954 83.1046 48 82 48C80.8954 48 80 48.8954 80 50C80 51.1046 80.8954 52 82 52ZM92 26C92 27.1046 91.1046 28 90 28C88.8954 28 88 27.1046 88 26C88 24.8954 88.8954 24 90 24C91.1046 24 92 24.8954 92 26ZM98 28C99.1046 28 100 27.1046 100 26C100 24.8954 99.1046 24 98 24C96.8954 24 96 24.8954 96 26C96 27.1046 96.8954 28 98 28ZM92 34C92 35.1046 91.1046 36 90 36C88.8954 36 88 35.1046 88 34C88 32.8954 88.8954 32 90 32C91.1046 32 92 32.8954 92 34ZM98 36C99.1046 36 100 35.1046 100 34C100 32.8954 99.1046 32 98 32C96.8954 32 96 32.8954 96 34C96 35.1046 96.8954 36 98 36ZM108 26C108 27.1046 107.105 28 106 28C104.895 28 104 27.1046 104 26C104 24.8954 104.895 24 106 24C107.105 24 108 24.8954 108 26ZM106 36C107.105 36 108 35.1046 108 34C108 32.8954 107.105 32 106 32C104.895 32 104 32.8954 104 34C104 35.1046 104.895 36 106 36ZM92 42C92 43.1046 91.1046 44 90 44C88.8954 44 88 43.1046 88 42C88 40.8954 88.8954 40 90 40C91.1046 40 92 40.8954 92 42ZM98 44C99.1046 44 100 43.1046 100 42C100 40.8954 99.1046 40 98 40C96.8954 40 96 40.8954 96 42C96 43.1046 96.8954 44 98 44ZM92 50C92 51.1046 91.1046 52 90 52C88.8954 52 88 51.1046 88 50C88 48.8954 88.8954 48 90 48C91.1046 48 92 48.8954 92 50ZM98 52C99.1046 52 100 51.1046 100 50C100 48.8954 99.1046 48 98 48C96.8954 48 96 48.8954 96 50C96 51.1046 96.8954 52 98 52ZM108 42C108 43.1046 107.105 44 106 44C104.895 44 104 43.1046 104 42C104 40.8954 104.895 40 106 40C107.105 40 108 40.8954 108 42ZM106 52C107.105 52 108 51.1046 108 50C108 48.8954 107.105 48 106 48C104.895 48 104 48.8954 104 50C104 51.1046 104.895 52 106 52ZM4 58C4 59.1046 3.10457 60 2 60C0.895431 60 0 59.1046 0 58C0 56.8954 0.895431 56 2 56C3.10457 56 4 56.8954 4 58ZM2 68C3.10457 68 4 67.1046 4 66C4 64.8954 3.10457 64 2 64C0.895431 64 0 64.8954 0 66C0 67.1046 0.895431 68 2 68ZM12 58C12 59.1046 11.1046 60 10 60C8.89543 60 8 59.1046 8 58C8 56.8954 8.89543 56 10 56C11.1046 56 12 56.8954 12 58ZM18 60C19.1046 60 20 59.1046 20 58C20 56.8954 19.1046 56 18 56C16.8954 56 16 56.8954 16 58C16 59.1046 16.8954 60 18 60ZM12 66C12 67.1046 11.1046 68 10 68C8.89543 68 8 67.1046 8 66C8 64.8954 8.89543 64 10 64C11.1046 64 12 64.8954 12 66ZM18 68C19.1046 68 20 67.1046 20 66C20 64.8954 19.1046 64 18 64C16.8954 64 16 64.8954 16 66C16 67.1046 16.8954 68 18 68ZM4 74C4 75.1046 3.10457 76 2 76C0.895431 76 0 75.1046 0 74C0 72.8954 0.895431 72 2 72C3.10457 72 4 72.8954 4 74ZM2 84C3.10457 84 4 83.1046 4 82C4 80.8954 3.10457 80 2 80C0.895431 80 0 80.8954 0 82C0 83.1046 0.895431 84 2 84ZM12 74C12 75.1046 11.1046 76 10 76C8.89543 76 8 75.1046 8 74C8 72.8954 8.89543 72 10 72C11.1046 72 12 72.8954 12 74ZM18 76C19.1046 76 20 75.1046 20 74C20 72.8954 19.1046 72 18 72C16.8954 72 16 72.8954 16 74C16 75.1046 16.8954 76 18 76ZM12 82C12 83.1046 11.1046 84 10 84C8.89543 84 8 83.1046 8 82C8 80.8954 8.89543 80 10 80C11.1046 80 12 80.8954 12 82ZM18 84C19.1046 84 20 83.1046 20 82C20 80.8954 19.1046 80 18 80C16.8954 80 16 80.8954 16 82C16 83.1046 16.8954 84 18 84ZM28 58C28 59.1046 27.1046 60 26 60C24.8954 60 24 59.1046 24 58C24 56.8954 24.8954 56 26 56C27.1046 56 28 56.8954 28 58ZM34 60C35.1046 60 36 59.1046 36 58C36 56.8954 35.1046 56 34 56C32.8954 56 32 56.8954 32 58C32 59.1046 32.8954 60 34 60ZM28 66C28 67.1046 27.1046 68 26 68C24.8954 68 24 67.1046 24 66C24 64.8954 24.8954 64 26 64C27.1046 64 28 64.8954 28 66ZM34 68C35.1046 68 36 67.1046 36 66C36 64.8954 35.1046 64 34 64C32.8954 64 32 64.8954 32 66C32 67.1046 32.8954 68 34 68ZM44 58C44 59.1046 43.1046 60 42 60C40.8954 60 40 59.1046 40 58C40 56.8954 40.8954 56 42 56C43.1046 56 44 56.8954 44 58ZM50 60C51.1046 60 52 59.1046 52 58C52 56.8954 51.1046 56 50 56C48.8954 56 48 56.8954 48 58C48 59.1046 48.8954 60 50 60ZM44 66C44 67.1046 43.1046 68 42 68C40.8954 68 40 67.1046 40 66C40 64.8954 40.8954 64 42 64C43.1046 64 44 64.8954 44 66ZM50 68C51.1046 68 52 67.1046 52 66C52 64.8954 51.1046 64 50 64C48.8954 64 48 64.8954 48 66C48 67.1046 48.8954 68 50 68ZM28 74C28 75.1046 27.1046 76 26 76C24.8954 76 24 75.1046 24 74C24 72.8954 24.8954 72 26 72C27.1046 72 28 72.8954 28 74ZM34 76C35.1046 76 36 75.1046 36 74C36 72.8954 35.1046 72 34 72C32.8954 72 32 72.8954 32 74C32 75.1046 32.8954 76 34 76ZM28 82C28 83.1046 27.1046 84 26 84C24.8954 84 24 83.1046 24 82C24 80.8954 24.8954 80 26 80C27.1046 80 28 80.8954 28 82ZM34 84C35.1046 84 36 83.1046 36 82C36 80.8954 35.1046 80 34 80C32.8954 80 32 80.8954 32 82C32 83.1046 32.8954 84 34 84ZM44 74C44 75.1046 43.1046 76 42 76C40.8954 76 40 75.1046 40 74C40 72.8954 40.8954 72 42 72C43.1046 72 44 72.8954 44 74ZM50 76C51.1046 76 52 75.1046 52 74C52 72.8954 51.1046 72 50 72C48.8954 72 48 72.8954 48 74C48 75.1046 48.8954 76 50 76ZM44 82C44 83.1046 43.1046 84 42 84C40.8954 84 40 83.1046 40 82C40 80.8954 40.8954 80 42 80C43.1046 80 44 80.8954 44 82ZM50 84C51.1046 84 52 83.1046 52 82C52 80.8954 51.1046 80 50 80C48.8954 80 48 80.8954 48 82C48 83.1046 48.8954 84 50 84ZM4 90C4 91.1046 3.10457 92 2 92C0.895431 92 0 91.1046 0 90C0 88.8954 0.895431 88 2 88C3.10457 88 4 88.8954 4 90ZM2 100C3.10457 100 4 99.1046 4 98C4 96.8954 3.10457 96 2 96C0.895431 96 0 96.8954 0 98C0 99.1046 0.895431 100 2 100ZM12 90C12 91.1046 11.1046 92 10 92C8.89543 92 8 91.1046 8 90C8 88.8954 8.89543 88 10 88C11.1046 88 12 88.8954 12 90ZM18 92C19.1046 92 20 91.1046 20 90C20 88.8954 19.1046 88 18 88C16.8954 88 16 88.8954 16 90C16 91.1046 16.8954 92 18 92ZM12 98C12 99.1046 11.1046 100 10 100C8.89543 100 8 99.1046 8 98C8 96.8954 8.89543 96 10 96C11.1046 96 12 96.8954 12 98ZM18 100C19.1046 100 20 99.1046 20 98C20 96.8954 19.1046 96 18 96C16.8954 96 16 96.8954 16 98C16 99.1046 16.8954 100 18 100ZM4 106C4 107.105 3.10457 108 2 108C0.895431 108 0 107.105 0 106C0 104.895 0.895431 104 2 104C3.10457 104 4 104.895 4 106ZM10 108C11.1046 108 12 107.105 12 106C12 104.895 11.1046 104 10 104C8.89543 104 8 104.895 8 106C8 107.105 8.89543 108 10 108ZM20 106C20 107.105 19.1046 108 18 108C16.8954 108 16 107.105 16 106C16 104.895 16.8954 104 18 104C19.1046 104 20 104.895 20 106ZM26 92C27.1046 92 28 91.1046 28 90C28 88.8954 27.1046 88 26 88C24.8954 88 24 88.8954 24 90C24 91.1046 24.8954 92 26 92ZM36 90C36 91.1046 35.1046 92 34 92C32.8954 92 32 91.1046 32 90C32 88.8954 32.8954 88 34 88C35.1046 88 36 88.8954 36 90ZM26 100C27.1046 100 28 99.1046 28 98C28 96.8954 27.1046 96 26 96C24.8954 96 24 96.8954 24 98C24 99.1046 24.8954 100 26 100ZM36 98C36 99.1046 35.1046 100 34 100C32.8954 100 32 99.1046 32 98C32 96.8954 32.8954 96 34 96C35.1046 96 36 96.8954 36 98ZM42 92C43.1046 92 44 91.1046 44 90C44 88.8954 43.1046 88 42 88C40.8954 88 40 88.8954 40 90C40 91.1046 40.8954 92 42 92ZM52 90C52 91.1046 51.1046 92 50 92C48.8954 92 48 91.1046 48 90C48 88.8954 48.8954 88 50 88C51.1046 88 52 88.8954 52 90ZM42 100C43.1046 100 44 99.1046 44 98C44 96.8954 43.1046 96 42 96C40.8954 96 40 96.8954 40 98C40 99.1046 40.8954 100 42 100ZM52 98C52 99.1046 51.1046 100 50 100C48.8954 100 48 99.1046 48 98C48 96.8954 48.8954 96 50 96C51.1046 96 52 96.8954 52 98ZM26 108C27.1046 108 28 107.105 28 106C28 104.895 27.1046 104 26 104C24.8954 104 24 104.895 24 106C24 107.105 24.8954 108 26 108ZM36 106C36 107.105 35.1046 108 34 108C32.8954 108 32 107.105 32 106C32 104.895 32.8954 104 34 104C35.1046 104 36 104.895 36 106ZM42 108C43.1046 108 44 107.105 44 106C44 104.895 43.1046 104 42 104C40.8954 104 40 104.895 40 106C40 107.105 40.8954 108 42 108ZM52 106C52 107.105 51.1046 108 50 108C48.8954 108 48 107.105 48 106C48 104.895 48.8954 104 50 104C51.1046 104 52 104.895 52 106ZM58 60C59.1046 60 60 59.1046 60 58C60 56.8954 59.1046 56 58 56C56.8954 56 56 56.8954 56 58C56 59.1046 56.8954 60 58 60ZM68 58C68 59.1046 67.1046 60 66 60C64.8954 60 64 59.1046 64 58C64 56.8954 64.8954 56 66 56C67.1046 56 68 56.8954 68 58ZM58 68C59.1046 68 60 67.1046 60 66C60 64.8954 59.1046 64 58 64C56.8954 64 56 64.8954 56 66C56 67.1046 56.8954 68 58 68ZM68 66C68 67.1046 67.1046 68 66 68C64.8954 68 64 67.1046 64 66C64 64.8954 64.8954 64 66 64C67.1046 64 68 64.8954 68 66ZM74 60C75.1046 60 76 59.1046 76 58C76 56.8954 75.1046 56 74 56C72.8954 56 72 56.8954 72 58C72 59.1046 72.8954 60 74 60ZM84 58C84 59.1046 83.1046 60 82 60C80.8954 60 80 59.1046 80 58C80 56.8954 80.8954 56 82 56C83.1046 56 84 56.8954 84 58ZM74 68C75.1046 68 76 67.1046 76 66C76 64.8954 75.1046 64 74 64C72.8954 64 72 64.8954 72 66C72 67.1046 72.8954 68 74 68ZM84 66C84 67.1046 83.1046 68 82 68C80.8954 68 80 67.1046 80 66C80 64.8954 80.8954 64 82 64C83.1046 64 84 64.8954 84 66ZM58 76C59.1046 76 60 75.1046 60 74C60 72.8954 59.1046 72 58 72C56.8954 72 56 72.8954 56 74C56 75.1046 56.8954 76 58 76ZM68 74C68 75.1046 67.1046 76 66 76C64.8954 76 64 75.1046 64 74C64 72.8954 64.8954 72 66 72C67.1046 72 68 72.8954 68 74ZM58 84C59.1046 84 60 83.1046 60 82C60 80.8954 59.1046 80 58 80C56.8954 80 56 80.8954 56 82C56 83.1046 56.8954 84 58 84ZM68 82C68 83.1046 67.1046 84 66 84C64.8954 84 64 83.1046 64 82C64 80.8954 64.8954 80 66 80C67.1046 80 68 80.8954 68 82ZM74 76C75.1046 76 76 75.1046 76 74C76 72.8954 75.1046 72 74 72C72.8954 72 72 72.8954 72 74C72 75.1046 72.8954 76 74 76ZM84 74C84 75.1046 83.1046 76 82 76C80.8954 76 80 75.1046 80 74C80 72.8954 80.8954 72 82 72C83.1046 72 84 72.8954 84 74ZM74 84C75.1046 84 76 83.1046 76 82C76 80.8954 75.1046 80 74 80C72.8954 80 72 80.8954 72 82C72 83.1046 72.8954 84 74 84ZM84 82C84 83.1046 83.1046 84 82 84C80.8954 84 80 83.1046 80 82C80 80.8954 80.8954 80 82 80C83.1046 80 84 80.8954 84 82ZM90 60C91.1046 60 92 59.1046 92 58C92 56.8954 91.1046 56 90 56C88.8954 56 88 56.8954 88 58C88 59.1046 88.8954 60 90 60ZM100 58C100 59.1046 99.1046 60 98 60C96.8954 60 96 59.1046 96 58C96 56.8954 96.8954 56 98 56C99.1046 56 100 56.8954 100 58ZM90 68C91.1046 68 92 67.1046 92 66C92 64.8954 91.1046 64 90 64C88.8954 64 88 64.8954 88 66C88 67.1046 88.8954 68 90 68ZM100 66C100 67.1046 99.1046 68 98 68C96.8954 68 96 67.1046 96 66C96 64.8954 96.8954 64 98 64C99.1046 64 100 64.8954 100 66ZM106 60C107.105 60 108 59.1046 108 58C108 56.8954 107.105 56 106 56C104.895 56 104 56.8954 104 58C104 59.1046 104.895 60 106 60ZM108 66C108 67.1046 107.105 68 106 68C104.895 68 104 67.1046 104 66C104 64.8954 104.895 64 106 64C107.105 64 108 64.8954 108 66ZM90 76C91.1046 76 92 75.1046 92 74C92 72.8954 91.1046 72 90 72C88.8954 72 88 72.8954 88 74C88 75.1046 88.8954 76 90 76ZM100 74C100 75.1046 99.1046 76 98 76C96.8954 76 96 75.1046 96 74C96 72.8954 96.8954 72 98 72C99.1046 72 100 72.8954 100 74ZM90 84C91.1046 84 92 83.1046 92 82C92 80.8954 91.1046 80 90 80C88.8954 80 88 80.8954 88 82C88 83.1046 88.8954 84 90 84ZM100 82C100 83.1046 99.1046 84 98 84C96.8954 84 96 83.1046 96 82C96 80.8954 96.8954 80 98 80C99.1046 80 100 80.8954 100 82ZM106 76C107.105 76 108 75.1046 108 74C108 72.8954 107.105 72 106 72C104.895 72 104 72.8954 104 74C104 75.1046 104.895 76 106 76ZM108 82C108 83.1046 107.105 84 106 84C104.895 84 104 83.1046 104 82C104 80.8954 104.895 80 106 80C107.105 80 108 80.8954 108 82ZM58 92C59.1046 92 60 91.1046 60 90C60 88.8954 59.1046 88 58 88C56.8954 88 56 88.8954 56 90C56 91.1046 56.8954 92 58 92ZM68 90C68 91.1046 67.1046 92 66 92C64.8954 92 64 91.1046 64 90C64 88.8954 64.8954 88 66 88C67.1046 88 68 88.8954 68 90ZM58 100C59.1046 100 60 99.1046 60 98C60 96.8954 59.1046 96 58 96C56.8954 96 56 96.8954 56 98C56 99.1046 56.8954 100 58 100ZM68 98C68 99.1046 67.1046 100 66 100C64.8954 100 64 99.1046 64 98C64 96.8954 64.8954 96 66 96C67.1046 96 68 96.8954 68 98ZM74 92C75.1046 92 76 91.1046 76 90C76 88.8954 75.1046 88 74 88C72.8954 88 72 88.8954 72 90C72 91.1046 72.8954 92 74 92ZM84 90C84 91.1046 83.1046 92 82 92C80.8954 92 80 91.1046 80 90C80 88.8954 80.8954 88 82 88C83.1046 88 84 88.8954 84 90ZM74 100C75.1046 100 76 99.1046 76 98C76 96.8954 75.1046 96 74 96C72.8954 96 72 96.8954 72 98C72 99.1046 72.8954 100 74 100ZM84 98C84 99.1046 83.1046 100 82 100C80.8954 100 80 99.1046 80 98C80 96.8954 80.8954 96 82 96C83.1046 96 84 96.8954 84 98ZM58 108C59.1046 108 60 107.105 60 106C60 104.895 59.1046 104 58 104C56.8954 104 56 104.895 56 106C56 107.105 56.8954 108 58 108ZM68 106C68 107.105 67.1046 108 66 108C64.8954 108 64 107.105 64 106C64 104.895 64.8954 104 66 104C67.1046 104 68 104.895 68 106ZM74 108C75.1046 108 76 107.105 76 106C76 104.895 75.1046 104 74 104C72.8954 104 72 104.895 72 106C72 107.105 72.8954 108 74 108ZM84 106C84 107.105 83.1046 108 82 108C80.8954 108 80 107.105 80 106C80 104.895 80.8954 104 82 104C83.1046 104 84 104.895 84 106ZM90 92C91.1046 92 92 91.1046 92 90C92 88.8954 91.1046 88 90 88C88.8954 88 88 88.8954 88 90C88 91.1046 88.8954 92 90 92ZM100 90C100 91.1046 99.1046 92 98 92C96.8954 92 96 91.1046 96 90C96 88.8954 96.8954 88 98 88C99.1046 88 100 88.8954 100 90ZM90 100C91.1046 100 92 99.1046 92 98C92 96.8954 91.1046 96 90 96C88.8954 96 88 96.8954 88 98C88 99.1046 88.8954 100 90 100ZM100 98C100 99.1046 99.1046 100 98 100C96.8954 100 96 99.1046 96 98C96 96.8954 96.8954 96 98 96C99.1046 96 100 96.8954 100 98ZM106 92C107.105 92 108 91.1046 108 90C108 88.8954 107.105 88 106 88C104.895 88 104 88.8954 104 90C104 91.1046 104.895 92 106 92ZM108 98C108 99.1046 107.105 100 106 100C104.895 100 104 99.1046 104 98C104 96.8954 104.895 96 106 96C107.105 96 108 96.8954 108 98ZM90 108C91.1046 108 92 107.105 92 106C92 104.895 91.1046 104 90 104C88.8954 104 88 104.895 88 106C88 107.105 88.8954 108 90 108ZM100 106C100 107.105 99.1046 108 98 108C96.8954 108 96 107.105 96 106C96 104.895 96.8954 104 98 104C99.1046 104 100 104.895 100 106ZM106 108C107.105 108 108 107.105 108 106C108 104.895 107.105 104 106 104C104.895 104 104 104.895 104 106C104 107.105 104.895 108 106 108Z" fill="url(#paint0_radial_262_331)"/>
<defs>
<radialGradient id="paint0_radial_262_331" cx="0" cy="0" r="1" gradientUnits="userSpaceOnUse" gradientTransform="translate(54 54) rotate(90) scale(54)">
<stop stop-color="#D9D9D9"/>
<stop offset="1" stop-color="#737373"/>
</radialGradient>
</defs>
</svg>
