<svg width="1009" height="720" viewBox="0 0 1009 720" fill="none" xmlns="http://www.w3.org/2000/svg">
<path d="M403.65 147.105H345.719C342.293 131.396 336.298 117.596 327.732 105.704C319.323 93.8122 309.045 83.8291 296.898 75.7545C284.907 67.5331 271.592 61.367 256.953 57.2563C242.315 53.1456 227.053 51.0902 211.169 51.0902C182.203 51.0902 155.963 57.9903 132.448 71.7906C109.088 85.5908 90.4787 105.924 76.6188 132.791C62.9146 159.657 56.0626 192.616 56.0626 231.668C56.0626 270.719 62.9146 303.678 76.6188 330.545C90.4787 357.411 109.088 377.745 132.448 391.545C155.963 405.345 182.203 412.245 211.169 412.245C227.053 412.245 242.315 410.19 256.953 406.079C271.592 401.968 284.907 395.876 296.898 387.801C309.045 379.58 319.323 369.523 327.732 357.631C336.298 345.593 342.293 331.793 345.719 316.231H403.65C399.29 339.28 391.348 359.907 379.824 378.112C368.3 396.316 353.973 411.805 336.843 424.577C319.712 437.203 300.48 446.819 279.145 453.426C257.966 460.032 235.307 463.335 211.169 463.335C170.368 463.335 134.083 453.94 102.314 435.148C70.5454 416.356 45.5508 389.636 27.3305 354.989C9.11016 320.341 0 279.234 0 231.668C0 184.101 9.11016 142.994 27.3305 108.347C45.5508 73.6991 70.5454 46.9795 102.314 28.1877C134.083 9.39591 170.368 0 211.169 0C235.307 0 257.966 3.30325 279.145 9.90975C300.48 16.5162 319.712 26.2058 336.843 38.9783C353.973 51.604 368.3 67.0192 379.824 85.2238C391.348 103.282 399.29 123.908 403.65 147.105Z" fill="white" fill-opacity="0.07"/>
<path d="M587.918 783.069H648.351C651.925 799.293 658.179 813.547 667.114 825.828C675.887 838.11 686.609 848.421 699.28 856.76C711.789 865.251 725.679 871.62 740.95 875.865C756.221 880.111 772.141 882.234 788.712 882.234C818.928 882.234 846.302 875.107 870.832 860.854C895.201 846.601 914.614 825.601 929.072 797.853C943.368 770.105 950.516 736.065 950.516 695.732C950.516 655.399 943.368 621.359 929.072 593.611C914.614 565.863 895.201 544.863 870.832 530.61C846.302 516.357 818.928 509.23 788.712 509.23C772.141 509.23 756.221 511.353 740.95 515.599C725.679 519.844 711.789 526.137 699.28 534.476C686.609 542.967 675.887 553.354 667.114 565.636C658.179 578.069 651.925 592.322 648.351 608.395H587.918C592.466 584.589 600.752 563.285 612.773 544.484C624.795 525.682 639.741 509.685 657.611 496.494C675.481 483.454 695.544 473.522 717.8 466.699C739.894 459.876 763.531 456.464 788.712 456.464C831.275 456.464 869.127 466.168 902.267 485.576C935.408 504.985 961.482 532.581 980.489 568.365C999.497 604.149 1009 646.605 1009 695.732C1009 744.859 999.497 787.315 980.489 823.099C961.482 858.883 935.408 886.479 902.267 905.888C869.127 925.296 831.275 935 788.712 935C763.531 935 739.894 931.588 717.8 924.765C695.544 917.942 675.481 907.934 657.611 894.743C639.741 881.703 624.795 865.782 612.773 846.98C600.752 828.33 592.466 807.026 587.918 783.069Z" fill="white" fill-opacity="0.07"/>
<path fill-rule="evenodd" clip-rule="evenodd" d="M935.757 75.6133L85.8882 925.649L45.8191 885.572L895.688 35.5363L935.757 75.6133Z" fill="white" fill-opacity="0.07"/>
</svg>
