<?xml version="1.0" standalone="no"?>
<!DOCTYPE svg PUBLIC "-//W3C//DTD SVG 20010904//EN"
 "http://www.w3.org/TR/2001/REC-SVG-20010904/DTD/svg10.dtd">
<svg version="1.0" xmlns="http://www.w3.org/2000/svg"
 width="3917.000000pt" height="3917.000000pt" viewBox="0 0 3917.000000 3917.000000"
 preserveAspectRatio="xMidYMid meet">
<metadata>
Created by potrace 1.14, written by Peter Selinger 2001-2017
</metadata>
<g transform="translate(0.000000,3917.000000) scale(0.100000,-0.100000)"
fill="#000000" stroke="none">
<path d="M10 19580 l0 -19580 19580 0 19580 0 0 19580 0 19580 -19580 0
-19580 0 0 -19580z m15166 7820 c450 -35 826 -137 1209 -325 303 -149 542
-322 775 -561 305 -313 515 -668 636 -1076 33 -111 73 -278 74 -305 0 -10 -97
-13 -450 -13 -352 0 -451 3 -454 13 -64 232 -107 344 -182 479 -142 253 -325
449 -579 620 -350 236 -761 360 -1241 375 -861 26 -1573 -330 -2025 -1015
-258 -390 -402 -843 -449 -1415 -16 -189 -8 -737 14 -892 73 -538 203 -907
452 -1280 367 -550 910 -880 1604 -976 147 -21 526 -18 685 5 867 123 1502
638 1699 1376 l23 85 451 3 c368 2 452 0 452 -11 0 -7 -15 -76 -34 -153 -120
-483 -338 -880 -676 -1228 -339 -349 -728 -585 -1216 -739 -444 -140 -1007
-189 -1504 -131 -1452 168 -2517 1223 -2775 2747 -51 301 -60 424 -59 837 0
336 3 409 23 570 80 661 266 1183 595 1670 117 173 220 297 385 460 530 528
1209 826 2011 883 110 8 438 6 556 -3z m10649 -860 l310 -310 -6600 -6600
-6600 -6600 -313 313 -313 313 6598 6597 c3629 3628 6600 6597 6603 6597 3 0
145 -140 315 -310z m-1487 -6244 c667 -89 1233 -331 1712 -734 127 -106 346
-333 446 -462 420 -540 655 -1142 750 -1920 22 -182 31 -758 15 -969 -46 -600
-187 -1122 -426 -1577 -156 -298 -213 -385 -428 -648 -18 -22 -44 -52 -59 -68
-16 -16 -28 -30 -28 -33 0 -4 -75 -77 -132 -129 -16 -14 -28 -31 -28 -37 0 -7
-3 -10 -6 -7 -3 3 -15 -4 -28 -16 -39 -37 -125 -107 -164 -133 -20 -14 -39
-28 -42 -32 -22 -27 -313 -200 -480 -285 -322 -164 -681 -273 -1080 -328 -190
-26 -632 -36 -833 -18 -480 40 -862 143 -1262 340 -702 344 -1210 920 -1440
1631 -33 103 -95 342 -95 368 0 17 939 15 944 -1 2 -7 20 -69 40 -138 91 -314
301 -631 563 -850 461 -384 1076 -571 1740 -530 532 34 999 208 1379 516 379
306 675 768 823 1283 160 559 184 1302 61 1921 -145 725 -523 1317 -1070 1673
-621 403 -1466 497 -2221 247 -657 -218 -1129 -696 -1293 -1310 l-23 -85 -471
-3 c-412 -2 -472 0 -472 13 0 32 81 327 118 430 99 275 212 485 387 720 500
672 1268 1080 2220 1180 179 19 714 13 883 -9z"/>
</g>
</svg>
